Q-SCI.glyphspackage
{
glyphname = exclam;
layers = (
{
layerId = m01;
shapes = (
{
closed = 1;
nodes = (
(414,0,ls),
(530,0,o),
(621,91,o),
(621,207,cs),
(621,414,ls),
(621,530,o),
(530,621,o),
(414,621,cs),
(207,621,ls),
(91,621,o),
(0,530,o),
(0,414,cs),
(0,207,ls),
(0,91,o),
(91,0,o),
(207,0,cs)
);
},
{
closed = 1;
nodes = (
(207,207,l),
(207,414,l),
(414,414,l),
(414,207,l)
);
},
{
closed = 1;
nodes = (
(414,828,ls),
(530,828,o),
(621,919,o),
(621,1035,cs),
(621,1151,o),
(530,1242,o),
(414,1242,cs),
(298,1242,o),
(207,1151,o),
(207,1035,c),
(207,1242,l),
(414,1242,ls),
(530,1242,o),
(621,1333,o),
(621,1449,cs),
(621,1656,l),
(621,1863,l),
(621,2484,l),
(621,2691,ls),
(621,2807,o),
(530,2898,o),
(414,2898,cs),
(207,2898,ls),
(91,2898,o),
(0,2807,o),
(0,2691,cs),
(0,2484,l),
(0,1863,ls),
(0,1747,o),
(91,1656,o),
(207,1656,cs),
(414,1656,l),
(414,1449,l),
(207,1449,ls),
(91,1449,o),
(0,1358,o),
(0,1242,cs),
(0,1035,ls),
(0,919,o),
(91,828,o),
(207,828,cs)
);
},
{
closed = 1;
nodes = (
(207,1863,l),
(207,2484,l),
(207,2691,l),
(414,2691,l),
(414,2484,l),
(414,1863,l)
);
}
);
width = 828;
},
{
layerId = m002;
shapes = (
{
closed = 1;
nodes = (
(414,0,ls),
(530,0,o),
(621,91,o),
(621,207,cs),
(621,414,ls),
(621,530,o),
(530,621,o),
(414,621,cs),
(207,621,ls),
(91,621,o),
(0,530,o),
(0,414,cs),
(0,207,ls),
(0,91,o),
(91,0,o),
(207,0,cs)
);
},
{
closed = 1;
nodes = (
(414,828,ls),
(530,828,o),
(621,919,o),
(621,1035,cs),
(621,1151,o),
(530,1242,o),
(414,1242,c),
(530,1242,o),
(621,1333,o),
(621,1449,cs),
(621,1656,l),
(621,1863,l),
(621,2484,l),
(621,2691,ls),
(621,2807,o),
(530,2898,o),
(414,2898,cs),
(207,2898,ls),
(91,2898,o),
(0,2807,o),
(0,2691,cs),
(0,2484,l),
(0,1863,ls),
(0,1747,o),
(91,1656,o),
(207,1656,c),
(207,1449,l),
(91,1449,o),
(0,1358,o),
(0,1242,cs),
(0,1035,ls),
(0,919,o),
(91,828,o),
(207,828,cs)
);
}
);
width = 828;
}
);
note = exclam;
unicode = 33;
}
{
glyphname = numbersign;
layers = (
{
layerId = m01;
shapes = (
{
closed = 1;
nodes = (
(737,0,o),
(828,91,o),
(828,207,cs),
(828,414,l),
(828,621,l),
(828,828,l),
(828,712,o),
(919,621,o),
(1035,621,cs),
(1151,621,o),
(1242,712,o),
(1242,828,c),
(1242,712,o),
(1333,621,o),
(1449,621,cs),
(1565,621,o),
(1656,712,o),
(1656,828,c),
(1656,621,l),
(1656,414,l),
(1656,207,ls),
(1656,91,o),
(1747,0,o),
(1863,0,cs),
(1979,0,o),
(2070,91,o),
(2070,207,cs),
(2070,323,o),
(1979,414,o),
(1863,414,c),
(1863,621,l),
(1863,828,l),
(2070,828,l),
(2070,712,o),
(2161,621,o),
(2277,621,cs),
(2393,621,o),
(2484,712,o),
(2484,828,cs),
(2484,944,o),
(2393,1035,o),
(2277,1035,cs),
(2070,1035,l),
(1863,1035,l),
(1863,1242,l),
(1863,1863,l),
(2070,1863,l),
(2277,1863,ls),
(2393,1863,o),
(2484,1954,o),
(2484,2070,cs),
(2484,2186,o),
(2393,2277,o),
(2277,2277,cs),
(2161,2277,o),
(2070,2186,o),
(2070,2070,c),
(1863,2070,l),
(1863,2277,l),
(1863,2484,l),
(1979,2484,o),
(2070,2575,o),
(2070,2691,cs),
(2070,2807,o),
(1979,2898,o),
(1863,2898,cs),
(1747,2898,o),
(1656,2807,o),
(1656,2691,cs),
(1656,2484,l),
(1656,2277,l),
(1656,2070,l),
(1656,2186,o),
(1565,2277,o),
(1449,2277,cs),
(1333,2277,o),
(1242,2186,o),
(1242,2070,c),
(1242,2186,o),
(1151,2277,o),
(1035,2277,cs),
(919,2277,o),
(828,2186,o),
(828,2070,c),
(828,2277,l),
(828,2484,l),
(828,2691,ls),
(828,2807,o),
(737,2898,o),
(621,2898,cs),
(505,2898,o),
(414,2807,o),
(414,2691,cs),
(414,2575,o),
(505,2484,o),
(621,2484,c),
(621,2277,l),
(621,2070,l),
(414,2070,l),
(414,2186,o),
(323,2277,o),
(207,2277,cs),
(91,2277,o),
(0,2186,o),
(0,2070,cs),
(0,1954,o),
(91,1863,o),
(207,1863,cs),
(414,1863,l),
(621,1863,l),
(621,1242,l),
(621,1035,l),
(414,1035,l),
(207,1035,ls),
(91,1035,o),
(0,944,o),
(0,828,cs),
(0,712,o),
(91,621,o),
(207,621,cs),
(323,621,o),
(414,712,o),
(414,828,c),
(621,828,l),
(621,621,l),
(621,414,l),
(505,414,o),
(414,323,o),
(414,207,cs),
(414,91,o),
(505,0,o),
(621,0,cs)
);
},
{
closed = 1;
nodes = (
(1035,944,o),
(944,1035,o),
(828,1035,c),
(828,1242,l),
(828,1863,l),
(944,1863,o),
(1035,1954,o),
(1035,2070,c),
(1035,1954,o),
(1126,1863,o),
(1242,1863,cs),
(1358,1863,o),
(1449,1954,o),
(1449,2070,c),
(1449,1954,o),
(1540,1863,o),
(1656,1863,c),
(1656,1242,l),
(1656,1035,l),
(1540,1035,o),
(1449,944,o),
(1449,828,c),
(1449,944,o),
(1358,1035,o),
(1242,1035,cs),
(1126,1035,o),
(1035,944,o),
(1035,828,c)
);
}
);
width = 2691;
},
{
layerId = m002;
shapes = (
{
closed = 1;
nodes = (
(737,0,o),
(828,91,o),
(828,207,cs),
(828,414,l),
(828,621,l),
(828,828,l),
(828,712,o),
(919,621,o),
(1035,621,cs),
(1151,621,o),
(1242,712,o),
(1242,828,c),
(1242,712,o),
(1333,621,o),
(1449,621,cs),
(1565,621,o),
(1656,712,o),
(1656,828,c),
(1656,621,l),
(1656,414,l),
(1656,207,ls),
(1656,91,o),
(1747,0,o),
(1863,0,cs),
(1979,0,o),
(2070,91,o),
(2070,207,cs),
(2070,323,o),
(1979,414,o),
(1863,414,c),
(1863,621,l),
(1863,828,l),
(2070,828,l),
(2070,712,o),
(2161,621,o),
(2277,621,cs),
(2393,621,o),
(2484,712,o),
(2484,828,cs),
(2484,944,o),
(2393,1035,o),
(2277,1035,cs),
(2070,1035,l),
(1863,1035,l),
(1863,1242,l),
(1863,1863,l),
(2070,1863,l),
(2277,1863,ls),
(2393,1863,o),
(2484,1954,o),
(2484,2070,cs),
(2484,2186,o),
(2393,2277,o),
(2277,2277,cs),
(2161,2277,o),
(2070,2186,o),
(2070,2070,c),
(1863,2070,l),
(1863,2277,l),
(1863,2484,l),
(1979,2484,o),
(2070,2575,o),
(2070,2691,cs),
(2070,2807,o),
(1979,2898,o),
(1863,2898,cs),
(1747,2898,o),
(1656,2807,o),
(1656,2691,cs),
(1656,2484,l),
(1656,2277,l),
(1656,2070,l),
(1656,2186,o),
(1565,2277,o),
(1449,2277,cs),
(1333,2277,o),
(1242,2186,o),
(1242,2070,c),
(1242,2186,o),
(1151,2277,o),
(1035,2277,cs),
(919,2277,o),
(828,2186,o),
(828,2070,c),
(828,2277,l),
(828,2484,l),
(828,2691,ls),
(828,2807,o),
(737,2898,o),
(621,2898,cs),
(505,2898,o),
(414,2807,o),
(414,2691,cs),
(414,2575,o),
(505,2484,o),
(621,2484,c),
(621,2277,l),
(621,2070,l),
(414,2070,l),
(414,2186,o),
(323,2277,o),
(207,2277,cs),
(91,2277,o),
(0,2186,o),
(0,2070,cs),
(0,1954,o),
(91,1863,o),
(207,1863,cs),
(414,1863,l),
(621,1863,l),
(621,1242,l),
(621,1035,l),
(414,1035,l),
(207,1035,ls),
(91,1035,o),
(0,944,o),
(0,828,cs),
(0,712,o),
(91,621,o),
(207,621,cs),
(323,621,o),
(414,712,o),
(414,828,c),
(621,828,l),
(621,621,l),
(621,414,l),
(505,414,o),
(414,323,o),
(414,207,cs),
(414,91,o),
(505,0,o),
(621,0,cs)
);
},
{
closed = 1;
nodes = (
(1035,944,o),
(944,1035,o),
(828,1035,c),
(828,1242,l),
(828,1863,l),
(944,1863,o),
(1035,1954,o),
(1035,2070,c),
(1035,1954,o),
(1126,1863,o),
(1242,1863,cs),
(1358,1863,o),
(1449,1954,o),
(1449,2070,c),
(1449,1954,o),
(1540,1863,o),
(1656,1863,c),
(1656,1242,l),
(1656,1035,l),
(1540,1035,o),
(1449,944,o),
(1449,828,c),
(1449,944,o),
(1358,1035,o),
(1242,1035,cs),
(1126,1035,o),
(1035,944,o),
(1035,828,c)
);
}
);
width = 2691;
}
);
note = numbersign;
unicode = 35;
}
{
glyphname = ampersand;
layers = (
{
layerId = m01;
shapes = (
{
closed = 1;
nodes = (
(414,0,l),
(621,0,l),
(828,0,l),
(1035,0,ls),
(1151,0,o),
(1242,91,o),
(1242,207,c),
(1358,207,o),
(1449,298,o),
(1449,414,cs),
(1449,530,o),
(1358,621,o),
(1242,621,cs),
(1126,621,o),
(1035,530,o),
(1035,414,cs),
(1035,207,l),
(828,207,l),
(621,207,l),
(621,414,l),
(621,621,l),
(621,828,l),
(621,1035,l),
(828,1035,l),
(1035,1035,l),
(1035,919,o),
(1126,828,o),
(1242,828,c),
(1242,712,o),
(1333,621,o),
(1449,621,c),
(1449,505,o),
(1540,414,o),
(1656,414,c),
(1656,298,o),
(1747,207,o),
(1863,207,c),
(1863,91,o),
(1954,0,o),
(2070,0,cs),
(2277,0,ls),
(2393,0,o),
(2484,91,o),
(2484,207,cs),
(2484,323,o),
(2393,414,o),
(2277,414,cs),
(2161,414,o),
(2070,323,o),
(2070,207,c),
(2070,323,o),
(1979,414,o),
(1863,414,c),
(1863,530,o),
(1772,621,o),
(1656,621,c),
(1656,737,o),
(1565,828,o),
(1449,828,c),
(1449,944,o),
(1358,1035,o),
(1242,1035,c),
(1358,1035,o),
(1449,1126,o),
(1449,1242,c),
(1565,1242,o),
(1656,1333,o),
(1656,1449,c),
(1772,1449,o),
(1863,1540,o),
(1863,1656,c),
(2070,1656,ls),
(2186,1656,o),
(2277,1747,o),
(2277,1863,cs),
(2277,2484,ls),
(2277,2600,o),
(2186,2691,o),
(2070,2691,cs),
(1863,2691,l),
(1863,2807,o),
(1772,2898,o),
(1656,2898,cs),
(1449,2898,ls),
(1333,2898,o),
(1242,2807,o),
(1242,2691,c),
(1242,2807,o),
(1151,2898,o),
(1035,2898,cs),
(919,2898,o),
(828,2807,o),
(828,2691,c),
(828,2807,o),
(737,2898,o),
(621,2898,cs),
(505,2898,o),
(414,2807,o),
(414,2691,c),
(207,2691,ls),
(91,2691,o),
(0,2600,o),
(0,2484,cs),
(0,1863,l),
(0,1656,ls),
(0,1540,o),
(91,1449,o),
(207,1449,cs),
(414,1449,l),
(621,1449,l),
(621,1333,o),
(712,1242,o),
(828,1242,c),
(621,1242,l),
(414,1242,l),
(207,1242,ls),
(91,1242,o),
(0,1151,o),
(0,1035,cs),
(0,828,l),
(0,621,l),
(0,414,l),
(0,207,ls),
(0,91,o),
(91,0,o),
(207,0,cs)
);
},
{
closed = 1;
nodes = (
(207,207,l),
(207,414,l),
(207,621,l),
(207,828,l),
(207,1035,l),
(414,1035,l),
(414,828,l),
(414,621,l),
(414,414,l),
(414,207,l)
);
},
{
closed = 1;
nodes = (
(1035,1358,o),
(944,1449,o),
(828,1449,c),
(828,1565,o),
(737,1656,o),
(621,1656,c),
(621,1863,l),
(621,2484,l),
(621,2691,l),
(621,2575,o),
(712,2484,o),
(828,2484,cs),
(944,2484,o),
(1035,2575,o),
(1035,2691,c),
(1035,2575,o),
(1126,2484,o),
(1242,2484,cs),
(1358,2484,o),
(1449,2575,o),
(1449,2691,c),
(1656,2691,l),
(1656,2484,l),
(1656,1863,l),
(1656,1656,l),
(1540,1656,o),
(1449,1565,o),
(1449,1449,c),
(1333,1449,o),
(1242,1358,o),
(1242,1242,c),
(1035,1242,l)
);
},
{
closed = 1;
nodes = (
(207,1656,l),
(207,1863,l),
(207,2484,l),
(414,2484,l),
(414,1863,l),
(414,1656,l)
);
},
{
closed = 1;
nodes = (
(1863,2484,l),
(2070,2484,l),
(2070,1863,l),
(1863,1863,l)
);
}
);
width = 2691;
},
{
layerId = m002;
shapes = (
{
closed = 1;
nodes = (
(414,0,l),
(621,0,l),
(828,0,l),
(1035,0,ls),
(1151,0,o),
(1242,91,o),
(1242,207,c),
(1358,207,o),
(1449,298,o),
(1449,414,cs),
(1449,530,o),
(1358,621,o),
(1242,621,cs),
(1126,621,o),
(1035,530,o),
(1035,414,cs),
(1035,207,l),
(828,207,l),
(621,207,l),
(621,414,l),
(621,621,l),
(621,828,l),
(621,1035,l),
(828,1035,l),
(1035,1035,l),
(1035,919,o),
(1126,828,o),
(1242,828,c),
(1242,712,o),
(1333,621,o),
(1449,621,c),
(1449,505,o),
(1540,414,o),
(1656,414,c),
(1656,298,o),
(1747,207,o),
(1863,207,c),
(1863,91,o),
(1954,0,o),
(2070,0,cs),
(2277,0,ls),
(2393,0,o),
(2484,91,o),
(2484,207,cs),
(2484,323,o),
(2393,414,o),
(2277,414,cs),
(2161,414,o),
(2070,323,o),
(2070,207,c),
(2070,323,o),
(1979,414,o),
(1863,414,c),
(1863,530,o),
(1772,621,o),
(1656,621,c),
(1656,737,o),
(1565,828,o),
(1449,828,c),
(1449,944,o),
(1358,1035,o),
(1242,1035,c),
(1358,1035,o),
(1449,1126,o),
(1449,1242,c),
(1565,1242,o),
(1656,1333,o),
(1656,1449,c),
(1772,1449,o),
(1863,1540,o),
(1863,1656,c),
(2070,1656,ls),
(2186,1656,o),
(2277,1747,o),
(2277,1863,cs),
(2277,2484,ls),
(2277,2600,o),
(2186,2691,o),
(2070,2691,cs),
(1863,2691,l),
(1863,2807,o),
(1772,2898,o),
(1656,2898,cs),
(1449,2898,ls),
(1333,2898,o),
(1242,2807,o),
(1242,2691,c),
(1242,2807,o),
(1151,2898,o),
(1035,2898,cs),
(919,2898,o),
(828,2807,o),
(828,2691,c),
(828,2807,o),
(737,2898,o),
(621,2898,cs),
(505,2898,o),
(414,2807,o),
(414,2691,c),
(207,2691,ls),
(91,2691,o),
(0,2600,o),
(0,2484,cs),
(0,1863,l),
(0,1656,ls),
(0,1540,o),
(91,1449,o),
(207,1449,cs),
(414,1449,l),
(621,1449,l),
(621,1333,o),
(712,1242,o),
(828,1242,c),
(621,1242,l),
(414,1242,l),
(207,1242,ls),
(91,1242,o),
(0,1151,o),
(0,1035,cs),
(0,828,l),
(0,621,l),
(0,414,l),
(0,207,ls),
(0,91,o),
(91,0,o),
(207,0,cs)
);
},
{
closed = 1;
nodes = (
(1035,1358,o),
(944,1449,o),
(828,1449,c),
(828,1565,o),
(737,1656,o),
(621,1656,c),
(621,1863,l),
(621,2484,l),
(621,2691,l),
(621,2575,o),
(712,2484,o),
(828,2484,cs),
(944,2484,o),
(1035,2575,o),
(1035,2691,c),
(1035,2575,o),
(1126,2484,o),
(1242,2484,cs),
(1358,2484,o),
(1449,2575,o),
(1449,2691,c),
(1656,2691,l),
(1656,2484,l),
(1656,1863,l),
(1656,1656,l),
(1540,1656,o),
(1449,1565,o),
(1449,1449,c),
(1333,1449,o),
(1242,1358,o),
(1242,1242,c),
(1035,1242,l)
);
}
);
width = 2691;
}
);
note = ampersand;
unicode = 38;
}
{
glyphname = parenleft;
layers = (
{
layerId = m01;
shapes = (
{
closed = 1;
nodes = (
(828,0,l),
(1035,0,l),
(1035,207,l),
(1035,414,ls),
(1035,530,o),
(944,621,o),
(828,621,c),
(828,737,o),
(737,828,o),
(621,828,c),
(621,944,o),
(530,1035,o),
(414,1035,c),
(414,828,ls),
(414,712,o),
(505,621,o),
(621,621,c),
(621,505,o),
(712,414,o),
(828,414,c),
(828,207,l),
(621,207,l),
(621,323,o),
(530,414,o),
(414,414,c),
(414,530,o),
(323,621,o),
(207,621,c),
(207,828,l),
(323,828,o),
(414,919,o),
(414,1035,cs),
(414,1242,l),
(414,1449,l),
(298,1449,o),
(207,1358,o),
(207,1242,c),
(207,1358,o),
(116,1449,o),
(0,1449,c),
(0,1242,l),
(0,1035,l),
(0,828,l),
(0,621,ls),
(0,505,o),
(91,414,o),
(207,414,c),
(207,298,o),
(298,207,o),
(414,207,c),
(414,91,o),
(505,0,o),
(621,0,cs)
);
},
{
closed = 1;
nodes = (
(0,1449,l),
(116,1449,o),
(207,1540,o),
(207,1656,c),
(207,1540,o),
(298,1449,o),
(414,1449,c),
(414,1656,l),
(414,1863,ls),
(414,1979,o),
(323,2070,o),
(207,2070,c),
(207,2277,l),
(323,2277,o),
(414,2368,o),
(414,2484,c),
(530,2484,o),
(621,2575,o),
(621,2691,c),
(828,2691,l),
(828,2484,l),
(712,2484,o),
(621,2393,o),
(621,2277,c),
(505,2277,o),
(414,2186,o),
(414,2070,cs),
(414,1863,l),
(530,1863,o),
(621,1954,o),
(621,2070,c),
(737,2070,o),
(828,2161,o),
(828,2277,c),
(944,2277,o),
(1035,2368,o),
(1035,2484,cs),
(1035,2691,l),
(1035,2898,l),
(828,2898,l),
(621,2898,ls),
(505,2898,o),
(414,2807,o),
(414,2691,c),
(298,2691,o),
(207,2600,o),
(207,2484,c),
(91,2484,o),
(0,2393,o),
(0,2277,cs),
(0,2070,l),
(0,1863,l),
(0,1656,l)
);
}
);
width = 1242;
},
{
layerId = m002;
shapes = (
{
closed = 1;
nodes = (
(828,0,l),
(1035,0,l),
(1035,207,l),
(1035,414,ls),
(1035,530,o),
(944,621,o),
(828,621,c),
(828,737,o),
(737,828,o),
(621,828,c),
(621,944,o),
(530,1035,o),
(414,1035,c),
(414,1242,l),
(414,1449,l),
(298,1449,o),
(207,1358,o),
(207,1242,c),
(207,1358,o),
(116,1449,o),
(0,1449,c),
(0,1242,l),
(0,1035,l),
(0,828,l),
(0,621,ls),
(0,505,o),
(91,414,o),
(207,414,c),
(207,298,o),
(298,207,o),
(414,207,c),
(414,91,o),
(505,0,o),
(621,0,cs)
);
},
{
closed = 1;
nodes = (
(0,1449,l),
(116,1449,o),
(207,1540,o),
(207,1656,c),
(207,1540,o),
(298,1449,o),
(414,1449,c),
(414,1656,l),
(414,1863,l),
(530,1863,o),
(621,1954,o),
(621,2070,c),
(737,2070,o),
(828,2161,o),
(828,2277,c),
(944,2277,o),
(1035,2368,o),
(1035,2484,cs),
(1035,2691,l),
(1035,2898,l),
(828,2898,l),
(621,2898,ls),
(505,2898,o),
(414,2807,o),
(414,2691,c),
(298,2691,o),
(207,2600,o),
(207,2484,c),
(91,2484,o),
(0,2393,o),
(0,2277,cs),
(0,2070,l),
(0,1863,l),
(0,1656,l)
);
}
);
width = 1242;
}
);
note = parenleft;
unicode = 40;
}
{
glyphname = parenright;
layers = (
{
layerId = m01;
shapes = (
{
closed = 1;
nodes = (
(530,0,o),
(621,91,o),
(621,207,c),
(737,207,o),
(828,298,o),
(828,414,c),
(944,414,o),
(1035,505,o),
(1035,621,cs),
(1035,828,l),
(1035,1035,l),
(1035,1242,l),
(1035,1449,l),
(919,1449,o),
(828,1358,o),
(828,1242,c),
(828,1358,o),
(737,1449,o),
(621,1449,c),
(621,1242,l),
(621,1035,ls),
(621,919,o),
(712,828,o),
(828,828,c),
(828,621,l),
(712,621,o),
(621,530,o),
(621,414,c),
(505,414,o),
(414,323,o),
(414,207,c),
(207,207,l),
(207,414,l),
(323,414,o),
(414,505,o),
(414,621,c),
(530,621,o),
(621,712,o),
(621,828,cs),
(621,1035,l),
(505,1035,o),
(414,944,o),
(414,828,c),
(298,828,o),
(207,737,o),
(207,621,c),
(91,621,o),
(0,530,o),
(0,414,cs),
(0,207,l),
(0,0,l),
(207,0,l),
(414,0,ls)
);
},
{
closed = 1;
nodes = (
(1035,1863,l),
(1035,2070,l),
(1035,2277,ls),
(1035,2393,o),
(944,2484,o),
(828,2484,c),
(828,2600,o),
(737,2691,o),
(621,2691,c),
(621,2807,o),
(530,2898,o),
(414,2898,cs),
(207,2898,l),
(0,2898,l),
(0,2691,l),
(0,2484,ls),
(0,2368,o),
(91,2277,o),
(207,2277,c),
(207,2161,o),
(298,2070,o),
(414,2070,c),
(414,1954,o),
(505,1863,o),
(621,1863,c),
(621,2070,ls),
(621,2186,o),
(530,2277,o),
(414,2277,c),
(414,2393,o),
(323,2484,o),
(207,2484,c),
(207,2691,l),
(414,2691,l),
(414,2575,o),
(505,2484,o),
(621,2484,c),
(621,2368,o),
(712,2277,o),
(828,2277,c),
(828,2070,l),
(712,2070,o),
(621,1979,o),
(621,1863,cs),
(621,1656,l),
(621,1449,l),
(737,1449,o),
(828,1540,o),
(828,1656,c),
(828,1540,o),
(919,1449,o),
(1035,1449,c),
(1035,1656,l)
);
}
);
width = 1242;
},
{
layerId = m002;
shapes = (
{
closed = 1;
nodes = (
(530,0,o),
(621,91,o),
(621,207,c),
(737,207,o),
(828,298,o),
(828,414,c),
(944,414,o),
(1035,505,o),
(1035,621,cs),
(1035,828,l),
(1035,1035,l),
(1035,1242,l),
(1035,1449,l),
(919,1449,o),
(828,1358,o),
(828,1242,c),
(828,1358,o),
(737,1449,o),
(621,1449,c),
(621,1242,l),
(621,1035,l),
(621,1035,o),
(621,1034,o),
(621,1034,c),
(621,1035,l),
(505,1035,o),
(414,944,o),
(414,828,c),
(298,828,o),
(207,737,o),
(207,621,c),
(91,621,o),
(0,530,o),
(0,414,cs),
(0,207,l),
(0,0,l),
(207,0,l),
(414,0,ls)
);
},
{
closed = 1;
nodes = (
(207,414,o),
(208,414,o),
(208,414,c),
(207,411,l),
(207,414,l)
);
},
{
closed = 1;
nodes = (
(1035,1863,l),
(1035,2070,l),
(1035,2277,ls),
(1035,2393,o),
(944,2484,o),
(828,2484,c),
(828,2600,o),
(737,2691,o),
(621,2691,c),
(621,2807,o),
(530,2898,o),
(414,2898,cs),
(207,2898,l),
(0,2898,l),
(0,2691,l),
(0,2484,ls),
(0,2368,o),
(91,2277,o),
(207,2277,c),
(207,2161,o),
(298,2070,o),
(414,2070,c),
(414,1954,o),
(505,1863,o),
(621,1863,c),
(621,1865,l),
(621,1865,o),
(621,1863,o),
(621,1863,c),
(621,1656,l),
(621,1449,l),
(737,1449,o),
(828,1540,o),
(828,1656,c),
(828,1540,o),
(919,1449,o),
(1035,1449,c),
(1035,1656,l)
);
},
{
closed = 1;
nodes = (
(207,2487,l),
(208,2484,l),
(208,2484,o),
(207,2484,o),
(207,2484,c)
);
}
);
width = 1242;
}
);
note = parenright;
unicode = 41;
}
{
glyphname = asterisk;
layers = (
{
layerId = m01;
shapes = (
{
closed = 1;
nodes = (
(621,1863,l),
(414,1863,l),
(414,1747,o),
(505,1656,o),
(621,1656,c)
);
},
{
closed = 1;
nodes = (
(0,1863,l),
(116,1863,o),
(207,1954,o),
(207,2070,c),
(0,2070,l)
);
},
{
closed = 1;
nodes = (
(414,2070,l),
(414,1863,l),
(621,1863,l),
(621,2070,l)
);
},
{
closed = 1;
nodes = (
(1035,2070,l),
(828,2070,l),
(828,1954,o),
(919,1863,o),
(1035,1863,c)
);
},
{
closed = 1;
nodes = (
(207,2277,l),
(91,2277,o),
(0,2186,o),
(0,2070,c),
(207,2070,l)
);
},
{
closed = 1;
nodes = (
(207,2070,l),
(323,2070,o),
(414,2161,o),
(414,2277,c),
(207,2277,l)
);
},
{
closed = 1;
nodes = (
(414,2277,l),
(414,2070,l),
(621,2070,l),
(621,2277,l)
);
},
{
closed = 1;
nodes = (
(828,2277,l),
(621,2277,l),
(621,2161,o),
(712,2070,o),
(828,2070,c)
);
},
{
closed = 1;
nodes = (
(828,2070,l),
(1035,2070,l),
(1035,2186,o),
(944,2277,o),
(828,2277,c)
);
},
{
closed = 1;
nodes = (
(207,2484,l),
(0,2484,l),
(0,2368,o),
(91,2277,o),
(207,2277,c)
);
},
{
closed = 1;
nodes = (
(207,2277,l),
(414,2277,l),
(414,2393,o),
(323,2484,o),
(207,2484,c)
);
},
{
closed = 1;
nodes = (
(414,2484,l),
(414,2277,l),
(621,2277,l),
(621,2484,l)
);
},
{
closed = 1;
nodes = (
(828,2484,l),
(712,2484,o),
(621,2393,o),
(621,2277,c),
(828,2277,l)
);
},
{
closed = 1;
nodes = (
(828,2277,l),
(944,2277,o),
(1035,2368,o),
(1035,2484,c),
(828,2484,l)
);
},
{
closed = 1;
nodes = (
(0,2484,l),
(207,2484,l),
(207,2600,o),
(116,2691,o),
(0,2691,c)
);
},
{
closed = 1;
nodes = (
(414,2691,l),
(414,2484,l),
(621,2484,l),
(621,2691,l)
);
},
{
closed = 1;
nodes = (
(1035,2691,l),
(919,2691,o),
(828,2600,o),
(828,2484,c),
(1035,2484,l)
);
},
{
closed = 1;
nodes = (
(414,2691,l),
(621,2691,l),
(621,2807,o),
(530,2898,o),
(414,2898,c)
);
}
);
width = 1242;
},
{
layerId = m002;
shapes = (
{
closed = 1;
nodes = (
(621,1863,l),
(414,1863,l),
(414,1747,o),
(505,1656,o),
(621,1656,c)
);
},
{
closed = 1;
nodes = (
(0,1863,l),
(116,1863,o),
(207,1954,o),
(207,2070,c),
(0,2070,l)
);
},
{
closed = 1;
nodes = (
(414,2070,l),
(414,1863,l),
(621,1863,l),
(621,2070,l)
);
},
{
closed = 1;
nodes = (
(1035,2070,l),
(828,2070,l),
(828,1954,o),
(919,1863,o),
(1035,1863,c)
);
},
{
closed = 1;
nodes = (
(207,2277,l),
(91,2277,o),
(0,2186,o),
(0,2070,c),
(207,2070,l)
);
},
{
closed = 1;
nodes = (
(207,2070,l),
(323,2070,o),
(414,2161,o),
(414,2277,c),
(207,2277,l)
);
},
{
closed = 1;
nodes = (
(414,2277,l),
(414,2070,l),
(621,2070,l),
(621,2277,l)
);
},
{
closed = 1;
nodes = (
(828,2277,l),
(621,2277,l),
(621,2161,o),
(712,2070,o),
(828,2070,c)
);
},
{
closed = 1;
nodes = (
(828,2070,l),
(1035,2070,l),
(1035,2186,o),
(944,2277,o),
(828,2277,c)
);
},
{
closed = 1;
nodes = (
(207,2484,l),
(0,2484,l),
(0,2368,o),
(91,2277,o),
(207,2277,c)
);
},
{
closed = 1;
nodes = (
(207,2277,l),
(414,2277,l),
(414,2393,o),
(323,2484,o),
(207,2484,c)
);
},
{
closed = 1;
nodes = (
(414,2484,l),
(414,2277,l),
(621,2277,l),
(621,2484,l)
);
},
{
closed = 1;
nodes = (
(828,2484,l),
(712,2484,o),
(621,2393,o),
(621,2277,c),
(828,2277,l)
);
},
{
closed = 1;
nodes = (
(828,2277,l),
(944,2277,o),
(1035,2368,o),
(1035,2484,c),
(828,2484,l)
);
},
{
closed = 1;
nodes = (
(0,2484,l),
(207,2484,l),
(207,2600,o),
(116,2691,o),
(0,2691,c)
);
},
{
closed = 1;
nodes = (
(414,2691,l),
(414,2484,l),
(621,2484,l),
(621,2691,l)
);
},
{
closed = 1;
nodes = (
(1035,2691,l),
(919,2691,o),
(828,2600,o),
(828,2484,c),
(1035,2484,l)
);
},
{
closed = 1;
nodes = (
(414,2691,l),
(621,2691,l),
(621,2807,o),
(530,2898,o),
(414,2898,c)
);
}
);
width = 1242;
}
);
note = asterisk;
unicode = 42;
}
{
glyphname = plus;
layers = (
{
layerId = m01;
shapes = (
{
closed = 1;
nodes = (
(1151,207,o),
(1242,298,o),
(1242,414,cs),
(1242,530,o),
(1151,621,o),
(1035,621,c),
(1151,621,o),
(1242,712,o),
(1242,828,cs),
(1242,1035,l),
(1358,1035,o),
(1449,1126,o),
(1449,1242,c),
(1449,1126,o),
(1540,1035,o),
(1656,1035,cs),
(1863,1035,ls),
(1979,1035,o),
(2070,1126,o),
(2070,1242,cs),
(2070,1358,o),
(1979,1449,o),
(1863,1449,cs),
(1747,1449,o),
(1656,1358,o),
(1656,1242,c),
(1656,1358,o),
(1565,1449,o),
(1449,1449,cs),
(1333,1449,o),
(1242,1358,o),
(1242,1242,c),
(1126,1242,o),
(1035,1151,o),
(1035,1035,c),
(1035,1151,o),
(944,1242,o),
(828,1242,c),
(828,1358,o),
(737,1449,o),
(621,1449,cs),
(505,1449,o),
(414,1358,o),
(414,1242,c),
(414,1358,o),
(323,1449,o),
(207,1449,cs),
(91,1449,o),
(0,1358,o),
(0,1242,cs),
(0,1126,o),
(91,1035,o),
(207,1035,cs),
(414,1035,ls),
(530,1035,o),
(621,1126,o),
(621,1242,c),
(621,1126,o),
(712,1035,o),
(828,1035,c),
(828,919,o),
(919,828,o),
(1035,828,c),
(919,828,o),
(828,737,o),
(828,621,cs),
(828,414,ls),
(828,298,o),
(919,207,o),
(1035,207,cs)
);
},
{
closed = 1;
nodes = (
(944,1242,o),
(1035,1333,o),
(1035,1449,c),
(1035,1333,o),
(1126,1242,o),
(1242,1242,c),
(1242,1449,ls),
(1242,1565,o),
(1151,1656,o),
(1035,1656,c),
(1151,1656,o),
(1242,1747,o),
(1242,1863,cs),
(1242,2070,ls),
(1242,2186,o),
(1151,2277,o),
(1035,2277,cs),
(919,2277,o),
(828,2186,o),
(828,2070,cs),
(828,1954,o),
(919,1863,o),
(1035,1863,c),
(919,1863,o),
(828,1772,o),
(828,1656,cs),
(828,1449,l),
(828,1242,l)
);
}
);
width = 2277;
},
{
layerId = m002;
shapes = (
{
closed = 1;
nodes = (
(1151,207,o),
(1242,298,o),
(1242,414,cs),
(1242,530,o),
(1151,621,o),
(1035,621,c),
(1151,621,o),
(1242,712,o),
(1242,828,cs),
(1242,1035,l),
(1358,1035,o),
(1449,1126,o),
(1449,1242,c),
(1449,1126,o),
(1540,1035,o),
(1656,1035,cs),
(1863,1035,ls),
(1979,1035,o),
(2070,1126,o),
(2070,1242,cs),
(2070,1358,o),
(1979,1449,o),
(1863,1449,cs),
(1747,1449,o),
(1656,1358,o),
(1656,1242,c),
(1656,1358,o),
(1565,1449,o),
(1449,1449,cs),
(1333,1449,o),
(1242,1358,o),
(1242,1242,c),
(1126,1242,o),
(1035,1151,o),
(1035,1035,c),
(1035,1151,o),
(944,1242,o),
(828,1242,c),
(828,1358,o),
(737,1449,o),
(621,1449,cs),
(505,1449,o),
(414,1358,o),
(414,1242,c),
(414,1358,o),
(323,1449,o),
(207,1449,cs),
(91,1449,o),
(0,1358,o),
(0,1242,cs),
(0,1126,o),
(91,1035,o),
(207,1035,cs),
(414,1035,ls),
(530,1035,o),
(621,1126,o),
(621,1242,c),
(621,1126,o),
(712,1035,o),
(828,1035,c),
(828,919,o),
(919,828,o),
(1035,828,c),
(919,828,o),
(828,737,o),
(828,621,cs),
(828,414,ls),
(828,298,o),
(919,207,o),
(1035,207,cs)
);
},
{
closed = 1;
nodes = (
(944,1242,o),
(1035,1333,o),
(1035,1449,c),
(1035,1333,o),
(1126,1242,o),
(1242,1242,c),
(1242,1449,ls),
(1242,1565,o),
(1151,1656,o),
(1035,1656,c),
(1151,1656,o),
(1242,1747,o),
(1242,1863,cs),
(1242,2070,ls),
(1242,2186,o),
(1151,2277,o),
(1035,2277,cs),
(919,2277,o),
(828,2186,o),
(828,2070,cs),
(828,1954,o),
(919,1863,o),
(1035,1863,c),
(919,1863,o),
(828,1772,o),
(828,1656,cs),
(828,1449,l),
(828,1242,l)
);
}
);
width = 2277;
}
);
note = plus;
unicode = 43;
}
{
glyphname = hyphen;
layers = (
{
layerId = m01;
shapes = (
{
closed = 1;
nodes = (
(323,1035,o),
(414,1126,o),
(414,1242,c),
(414,1126,o),
(505,1035,o),
(621,1035,cs),
(737,1035,o),
(828,1126,o),
(828,1242,c),
(828,1126,o),
(919,1035,o),
(1035,1035,cs),
(1151,1035,o),
(1242,1126,o),
(1242,1242,cs),
(1242,1449,l),
(1126,1449,o),
(1035,1358,o),
(1035,1242,c),
(1035,1358,o),
(944,1449,o),
(828,1449,cs),
(621,1449,l),
(414,1449,ls),
(298,1449,o),
(207,1358,o),
(207,1242,c),
(207,1358,o),
(116,1449,o),
(0,1449,c),
(0,1242,ls),
(0,1126,o),
(91,1035,o),
(207,1035,cs)
);
}
);
width = 1449;
},
{
layerId = m002;
shapes = (
{
closed = 1;
nodes = (
(323,1035,o),
(414,1126,o),
(414,1242,c),
(414,1126,o),
(505,1035,o),
(621,1035,cs),
(737,1035,o),
(828,1126,o),
(828,1242,c),
(828,1126,o),
(919,1035,o),
(1035,1035,cs),
(1151,1035,o),
(1242,1126,o),
(1242,1242,cs),
(1242,1449,l),
(1126,1449,o),
(1035,1358,o),
(1035,1242,c),
(1035,1358,o),
(944,1449,o),
(828,1449,cs),
(621,1449,l),
(414,1449,ls),
(298,1449,o),
(207,1358,o),
(207,1242,c),
(207,1358,o),
(116,1449,o),
(0,1449,c),
(0,1242,ls),
(0,1126,o),
(91,1035,o),
(207,1035,cs)
);
}
);
width = 1449;
}
);
note = hyphen;
unicode = 45;
}
{
glyphname = period;
layers = (
{
layerId = m01;
shapes = (
{
closed = 1;
nodes = (
(414,0,ls),
(530,0,o),
(621,91,o),
(621,207,cs),
(621,414,ls),
(621,530,o),
(530,621,o),
(414,621,cs),
(207,621,ls),
(91,621,o),
(0,530,o),
(0,414,cs),
(0,207,ls),
(0,91,o),
(91,0,o),
(207,0,cs)
);
},
{
closed = 1;
nodes = (
(207,207,l),
(207,414,l),
(414,414,l),
(414,207,l)
);
}
);
width = 828;
},
{
layerId = m002;
shapes = (
{
closed = 1;
nodes = (
(414,0,ls),
(530,0,o),
(621,91,o),
(621,207,cs),
(621,414,ls),
(621,530,o),
(530,621,o),
(414,621,cs),
(207,621,ls),
(91,621,o),
(0,530,o),
(0,414,cs),
(0,207,ls),
(0,91,o),
(91,0,o),
(207,0,cs)
);
}
);
width = 828;
}
);
note = period;
unicode = 46;
}
{
glyphname = slash;
layers = (
{
layerId = m01;
shapes = (
{
closed = 1;
nodes = (
(323,0,o),
(414,91,o),
(414,207,c),
(621,207,ls),
(737,207,o),
(828,298,o),
(828,414,cs),
(828,828,l),
(828,1035,l),
(1035,1035,ls),
(1151,1035,o),
(1242,1126,o),
(1242,1242,cs),
(1242,1449,l),
(1242,1656,l),
(1449,1656,ls),
(1565,1656,o),
(1656,1747,o),
(1656,1863,cs),
(1656,2070,l),
(1656,2484,l),
(1863,2484,l),
(2070,2484,ls),
(2186,2484,o),
(2277,2575,o),
(2277,2691,cs),
(2277,2807,o),
(2186,2898,o),
(2070,2898,cs),
(1954,2898,o),
(1863,2807,o),
(1863,2691,c),
(1656,2691,ls),
(1540,2691,o),
(1449,2600,o),
(1449,2484,cs),
(1449,2070,l),
(1449,1863,l),
(1242,1863,ls),
(1126,1863,o),
(1035,1772,o),
(1035,1656,cs),
(1035,1449,l),
(1035,1242,l),
(828,1242,ls),
(712,1242,o),
(621,1151,o),
(621,1035,cs),
(621,828,l),
(621,414,l),
(414,414,l),
(207,414,ls),
(91,414,o),
(0,323,o),
(0,207,cs),
(0,91,o),
(91,0,o),
(207,0,cs)
);
}
);
width = 2484;
},
{
layerId = m002;
shapes = (
{
closed = 1;
nodes = (
(323,0,o),
(414,91,o),
(414,207,c),
(621,207,ls),
(737,207,o),
(828,298,o),
(828,414,cs),
(828,828,l),
(828,1035,l),
(1035,1035,ls),
(1151,1035,o),
(1242,1126,o),
(1242,1242,cs),
(1242,1449,l),
(1242,1656,l),
(1449,1656,ls),
(1565,1656,o),
(1656,1747,o),
(1656,1863,cs),
(1656,2070,l),
(1656,2484,l),
(1863,2484,l),
(2070,2484,ls),
(2186,2484,o),
(2277,2575,o),
(2277,2691,cs),
(2277,2807,o),
(2186,2898,o),
(2070,2898,cs),
(1954,2898,o),
(1863,2807,o),
(1863,2691,c),
(1656,2691,ls),
(1540,2691,o),
(1449,2600,o),
(1449,2484,cs),
(1449,2070,l),
(1449,1863,l),
(1242,1863,ls),
(1126,1863,o),
(1035,1772,o),
(1035,1656,cs),
(1035,1449,l),
(1035,1242,l),
(828,1242,ls),
(712,1242,o),
(621,1151,o),
(621,1035,cs),
(621,828,l),
(621,414,l),
(414,414,l),
(207,414,ls),
(91,414,o),
(0,323,o),
(0,207,cs),
(0,91,o),
(91,0,o),
(207,0,cs)
);
}
);
width = 2484;
}
);
note = slash;
unicode = 47;
}
{
glyphname = four;
layers = (
{
layerId = m01;
shapes = (
{
closed = 1;
nodes = (
(1242,414,l),
(1242,621,l),
(1242,1035,l),
(1242,1242,l),
(1242,1449,l),
(1242,1863,l),
(1242,2070,l),
(1242,2277,l),
(1242,2484,l),
(1242,2691,l),
(1449,2691,l),
(1656,2691,l),
(1656,2575,o),
(1747,2484,o),
(1863,2484,cs),
(1979,2484,o),
(2070,2575,o),
(2070,2691,cs),
(2070,2807,o),
(1979,2898,o),
(1863,2898,cs),
(1656,2898,l),
(1449,2898,l),
(1242,2898,l),
(1035,2898,l),
(1035,2691,l),
(1035,2484,l),
(1035,2277,l),
(1035,2070,l),
(1035,1863,l),
(1035,1449,l),
(1035,1242,l),
(828,1242,l),
(621,1242,l),
(414,1242,l),
(207,1242,l),
(207,1449,l),
(207,1863,l),
(323,1863,o),
(414,1954,o),
(414,2070,c),
(530,2070,o),
(621,2161,o),
(621,2277,cs),
(621,2393,o),
(530,2484,o),
(414,2484,c),
(414,2600,o),
(323,2691,o),
(207,2691,c),
(207,2807,o),
(116,2898,o),
(0,2898,c),
(0,2691,ls),
(0,2575,o),
(91,2484,o),
(207,2484,c),
(207,2368,o),
(298,2277,o),
(414,2277,c),
(298,2277,o),
(207,2186,o),
(207,2070,c),
(91,2070,o),
(0,1979,o),
(0,1863,cs),
(0,1449,l),
(0,1242,ls),
(0,1126,o),
(91,1035,o),
(207,1035,cs),
(414,1035,l),
(621,1035,l),
(828,1035,l),
(1035,1035,l),
(1035,621,l),
(1035,414,l),
(1035,207,l),
(1035,0,l),
(1242,0,l),
(1449,0,l),
(1656,0,l),
(1863,0,ls),
(1979,0,o),
(2070,91,o),
(2070,207,cs),
(2070,323,o),
(1979,414,o),
(1863,414,cs),
(1747,414,o),
(1656,323,o),
(1656,207,c),
(1449,207,l),
(1242,207,l)
);
},
{
closed = 1;
nodes = (
(1979,414,o),
(2070,505,o),
(2070,621,cs),
(2070,737,o),
(1979,828,o),
(1863,828,c),
(1863,1035,l),
(1863,1242,l),
(1863,1863,l),
(1863,2070,l),
(1979,2070,o),
(2070,2161,o),
(2070,2277,cs),
(2070,2393,o),
(1979,2484,o),
(1863,2484,cs),
(1747,2484,o),
(1656,2393,o),
(1656,2277,cs),
(1656,2070,l),
(1656,1863,l),
(1656,1242,l),
(1656,1035,l),
(1656,828,l),
(1656,621,ls),
(1656,505,o),
(1747,414,o),
(1863,414,cs)
);
}
);
width = 2277;
},
{
layerId = m002;
shapes = (
{
closed = 1;
nodes = (
(1979,414,o),
(2070,505,o),
(2070,621,cs),
(2070,737,o),
(1979,828,o),
(1863,828,c),
(1863,1035,l),
(1863,1242,l),
(1863,1863,l),
(1863,2070,l),
(1979,2070,o),
(2070,2161,o),
(2070,2277,cs),
(2070,2393,o),
(1979,2484,o),
(1863,2484,c),
(1979,2484,o),
(2070,2575,o),
(2070,2691,cs),
(2070,2807,o),
(1979,2898,o),
(1863,2898,cs),
(1656,2898,l),
(1449,2898,l),
(1242,2898,l),
(1035,2898,l),
(1035,2691,l),
(1035,2484,l),
(1035,2277,l),
(1035,2070,l),
(1035,1863,l),
(1035,1449,l),
(1035,1242,l),
(828,1242,l),
(621,1242,l),
(414,1242,l),
(207,1242,l),
(207,1449,l),
(207,1863,l),
(323,1863,o),
(414,1954,o),
(414,2070,c),
(530,2070,o),
(621,2161,o),
(621,2277,cs),
(621,2393,o),
(530,2484,o),
(414,2484,c),
(414,2600,o),
(323,2691,o),
(207,2691,c),
(207,2807,o),
(116,2898,o),
(0,2898,c),
(0,2691,ls),
(0,2575,o),
(91,2484,o),
(207,2484,c),
(207,2368,o),
(298,2277,o),
(414,2277,c),
(298,2277,o),
(207,2186,o),
(207,2070,c),
(91,2070,o),
(0,1979,o),
(0,1863,cs),
(0,1449,l),
(0,1242,ls),
(0,1126,o),
(91,1035,o),
(207,1035,cs),
(414,1035,l),
(621,1035,l),
(828,1035,l),
(1035,1035,l),
(1035,621,l),
(1035,414,l),
(1035,207,l),
(1035,0,l),
(1242,0,l),
(1449,0,l),
(1656,0,l),
(1863,0,ls),
(1979,0,o),
(2070,91,o),
(2070,207,cs),
(2070,323,o),
(1979,414,o),
(1863,414,c)
);
}
);
width = 2277;
}
);
note = four;
unicode = 52;
}
{
glyphname = five;
layers = (
{
layerId = m01;
shapes = (
{
closed = 1;
nodes = (
(414,207,l),
(207,207,l),
(207,91,o),
(298,0,o),
(414,0,c)
);
},
{
closed = 1;
nodes = (
(414,207,l),
(414,0,l),
(621,0,l),
(621,207,l)
);
},
{
closed = 1;
nodes = (
(621,0,l),
(737,0,o),
(828,91,o),
(828,207,c),
(621,207,l)
);
},
{
closed = 1;
nodes = (
(1035,207,l),
(828,207,l),
(828,91,o),
(919,0,o),
(1035,0,c)
);
},
{
closed = 1;
nodes = (
(1035,0,l),
(1151,0,o),
(1242,91,o),
(1242,207,c),
(1035,207,l)
);
},
{
closed = 1;
nodes = (
(1449,207,l),
(1242,207,l),
(1242,91,o),
(1333,0,o),
(1449,0,c)
);
},
{
closed = 1;
nodes = (
(1449,207,l),
(1449,0,l),
(1656,0,l),
(1656,207,l)
);
},
{
closed = 1;
nodes = (
(1656,207,l),
(1656,0,l),
(1863,0,l),
(1863,207,l)
);
},
{
closed = 1;
nodes = (
(1863,0,l),
(1979,0,o),
(2070,91,o),
(2070,207,c),
(1863,207,l)
);
},
{
closed = 1;
nodes = (
(207,414,l),
(0,414,l),
(0,298,o),
(91,207,o),
(207,207,c)
);
},
{
closed = 1;
nodes = (
(207,207,l),
(414,207,l),
(414,323,o),
(323,414,o),
(207,414,c)
);
},
{
closed = 1;
nodes = (
(828,414,l),
(712,414,o),
(621,323,o),
(621,207,c),
(828,207,l)
);
},
{
closed = 1;
nodes = (
(828,207,l),
(1035,207,l),
(1035,323,o),
(944,414,o),
(828,414,c)
);
},
{
closed = 1;
nodes = (
(1242,414,l),
(1126,414,o),
(1035,323,o),
(1035,207,c),
(1242,207,l)
);
},
{
closed = 1;
nodes = (
(1242,414,l),
(1242,207,l),
(1449,207,l),
(1449,414,l)
);
},
{
closed = 1;
nodes = (
(1863,414,l),
(1863,207,l),
(2070,207,l),
(2070,414,l)
);
},
{
closed = 1;
nodes = (
(0,621,l),
(0,414,l),
(207,414,l),
(207,621,l)
);
},
{
closed = 1;
nodes = (
(207,414,l),
(323,414,o),
(414,505,o),
(414,621,c),
(207,621,l)
);
},
{
closed = 1;
nodes = (
(1242,621,l),
(1242,414,l),
(1449,414,l),
(1449,621,l)
);
},
{
closed = 1;
nodes = (
(1863,621,l),
(1863,414,l),
(2070,414,l),
(2070,621,l)
);
},
{
closed = 1;
nodes = (
(207,828,l),
(91,828,o),
(0,737,o),
(0,621,c),
(207,621,l)
);
},
{
closed = 1;
nodes = (
(207,621,l),
(414,621,l),
(414,737,o),
(323,828,o),
(207,828,c)
);
},
{
closed = 1;
nodes = (
(1242,828,l),
(1242,621,l),
(1449,621,l),
(1449,828,l)
);
},
{
closed = 1;
nodes = (
(1863,828,l),
(1863,621,l),
(2070,621,l),
(2070,828,l)
);
},
{
closed = 1;
nodes = (
(1449,1656,l),
(1449,1863,l),
(1656,1863,l),
(1863,1863,l),
(1863,1656,l),
(1863,1449,l),
(1863,828,l),
(2070,828,l),
(2070,1449,l),
(2070,1656,l),
(2070,1863,ls),
(2070,1979,o),
(1979,2070,o),
(1863,2070,cs),
(1656,2070,l),
(1449,2070,ls),
(1333,2070,o),
(1242,1979,o),
(1242,1863,c),
(1242,1979,o),
(1151,2070,o),
(1035,2070,c),
(1035,2277,l),
(1035,2484,l),
(1035,2691,l),
(1242,2691,l),
(1242,2575,o),
(1333,2484,o),
(1449,2484,cs),
(1565,2484,o),
(1656,2575,o),
(1656,2691,c),
(1863,2691,l),
(1747,2691,o),
(1656,2600,o),
(1656,2484,cs),
(1656,2368,o),
(1747,2277,o),
(1863,2277,cs),
(1979,2277,o),
(2070,2368,o),
(2070,2484,cs),
(2070,2691,ls),
(2070,2807,o),
(1979,2898,o),
(1863,2898,cs),
(1656,2898,ls),
(1540,2898,o),
(1449,2807,o),
(1449,2691,c),
(1449,2807,o),
(1358,2898,o),
(1242,2898,cs),
(1035,2898,ls),
(919,2898,o),
(828,2807,o),
(828,2691,c),
(828,2807,o),
(737,2898,o),
(621,2898,cs),
(414,2898,l),
(207,2898,ls),
(91,2898,o),
(0,2807,o),
(0,2691,cs),
(0,2575,o),
(91,2484,o),
(207,2484,cs),
(323,2484,o),
(414,2575,o),
(414,2691,c),
(621,2691,l),
(621,2575,o),
(712,2484,o),
(828,2484,c),
(828,2277,l),
(828,2070,l),
(828,1863,l),
(828,1979,o),
(737,2070,o),
(621,2070,cs),
(505,2070,o),
(414,1979,o),
(414,1863,c),
(414,2070,l),
(414,2277,ls),
(414,2393,o),
(323,2484,o),
(207,2484,cs),
(91,2484,o),
(0,2393,o),
(0,2277,cs),
(0,2161,o),
(91,2070,o),
(207,2070,c),
(207,1863,ls),
(207,1747,o),
(298,1656,o),
(414,1656,cs),
(530,1656,o),
(621,1747,o),
(621,1863,c),
(621,1747,o),
(712,1656,o),
(828,1656,cs),
(944,1656,o),
(1035,1747,o),
(1035,1863,c),
(1035,1747,o),
(1126,1656,o),
(1242,1656,c),
(1242,1449,l),
(1242,828,l),
(1449,828,l),
(1449,1449,l)
);
}
);
width = 2277;
},
{
layerId = m002;
shapes = (
{
closed = 1;
nodes = (
(621,0,ls),
(737,0,o),
(828,91,o),
(828,207,c),
(828,91,o),
(919,0,o),
(1035,0,cs),
(1151,0,o),
(1242,91,o),
(1242,207,c),
(1242,91,o),
(1333,0,o),
(1449,0,cs),
(1656,0,l),
(1863,0,ls),
(1979,0,o),
(2070,91,o),
(2070,207,cs),
(2070,414,l),
(2070,621,l),
(2070,828,l),
(2070,1449,l),
(2070,1656,l),
(2070,1863,ls),
(2070,1979,o),
(1979,2070,o),
(1863,2070,cs),
(1656,2070,l),
(1449,2070,ls),
(1333,2070,o),
(1242,1979,o),
(1242,1863,c),
(1242,1979,o),
(1151,2070,o),
(1035,2070,c),
(1035,2277,l),
(1035,2484,l),
(1035,2691,l),
(1242,2691,l),
(1242,2575,o),
(1333,2484,o),
(1449,2484,cs),
(1565,2484,o),
(1656,2575,o),
(1656,2691,c),
(1863,2691,l),
(1747,2691,o),
(1656,2600,o),
(1656,2484,cs),
(1656,2368,o),
(1747,2277,o),
(1863,2277,cs),
(1979,2277,o),
(2070,2368,o),
(2070,2484,cs),
(2070,2691,ls),
(2070,2807,o),
(1979,2898,o),
(1863,2898,cs),
(1656,2898,ls),
(1540,2898,o),
(1449,2807,o),
(1449,2691,c),
(1449,2807,o),
(1358,2898,o),
(1242,2898,cs),
(1035,2898,ls),
(919,2898,o),
(828,2807,o),
(828,2691,c),
(828,2807,o),
(737,2898,o),
(621,2898,cs),
(414,2898,l),
(207,2898,ls),
(91,2898,o),
(0,2807,o),
(0,2691,cs),
(0,2575,o),
(91,2484,o),
(207,2484,c),
(91,2484,o),
(0,2393,o),
(0,2277,cs),
(0,2161,o),
(91,2070,o),
(207,2070,c),
(207,1863,ls),
(207,1747,o),
(298,1656,o),
(414,1656,cs),
(530,1656,o),
(621,1747,o),
(621,1863,c),
(621,1747,o),
(712,1656,o),
(828,1656,cs),
(944,1656,o),
(1035,1747,o),
(1035,1863,c),
(1035,1747,o),
(1126,1656,o),
(1242,1656,c),
(1242,1449,l),
(1242,828,l),
(1242,621,l),
(1242,414,l),
(1126,414,o),
(1035,323,o),
(1035,207,c),
(1035,323,o),
(944,414,o),
(828,414,cs),
(712,414,o),
(621,323,o),
(621,207,c),
(414,207,l),
(414,323,o),
(323,414,o),
(207,414,c),
(323,414,o),
(414,505,o),
(414,621,cs),
(414,737,o),
(323,828,o),
(207,828,cs),
(91,828,o),
(0,737,o),
(0,621,cs),
(0,414,ls),
(0,298,o),
(91,207,o),
(207,207,c),
(207,91,o),
(298,0,o),
(414,0,cs)
);
}
);
width = 2277;
}
);
note = five;
unicode = 53;
}
{
glyphname = six;
layers = (
{
layerId = m01;
shapes = (
{
closed = 1;
nodes = (
(414,0,l),
(621,0,ls),
(737,0,o),
(828,91,o),
(828,207,c),
(828,91,o),
(919,0,o),
(1035,0,cs),
(1151,0,o),
(1242,91,o),
(1242,207,c),
(1242,91,o),
(1333,0,o),
(1449,0,cs),
(1656,0,l),
(1863,0,l),
(2070,0,ls),
(2186,0,o),
(2277,91,o),
(2277,207,cs),
(2277,414,l),
(2277,621,l),
(2277,828,l),
(2277,1242,l),
(2277,1449,ls),
(2277,1565,o),
(2186,1656,o),
(2070,1656,cs),
(1863,1656,l),
(1656,1656,l),
(1449,1656,l),
(1242,1656,l),
(1035,1656,ls),
(919,1656,o),
(828,1565,o),
(828,1449,cs),
(828,1333,o),
(919,1242,o),
(1035,1242,cs),
(1151,1242,o),
(1242,1333,o),
(1242,1449,c),
(1449,1449,l),
(1449,1242,l),
(1449,828,l),
(1449,621,l),
(1449,414,l),
(1449,207,l),
(1449,323,o),
(1358,414,o),
(1242,414,cs),
(1126,414,o),
(1035,323,o),
(1035,207,c),
(1035,323,o),
(944,414,o),
(828,414,c),
(828,621,l),
(828,828,l),
(828,1242,l),
(828,1449,l),
(828,1656,l),
(828,2070,l),
(828,2277,l),
(828,2484,l),
(828,2691,l),
(828,2575,o),
(919,2484,o),
(1035,2484,cs),
(1151,2484,o),
(1242,2575,o),
(1242,2691,c),
(1449,2691,l),
(1449,2484,l),
(1449,2070,ls),
(1449,1954,o),
(1540,1863,o),
(1656,1863,cs),
(1863,1863,l),
(2070,1863,ls),
(2186,1863,o),
(2277,1954,o),
(2277,2070,cs),
(2277,2484,l),
(2277,2691,ls),
(2277,2807,o),
(2186,2898,o),
(2070,2898,cs),
(1863,2898,l),
(1656,2898,l),
(1449,2898,l),
(1242,2898,ls),
(1126,2898,o),
(1035,2807,o),
(1035,2691,c),
(1035,2807,o),
(944,2898,o),
(828,2898,cs),
(621,2898,l),
(414,2898,l),
(207,2898,ls),
(91,2898,o),
(0,2807,o),
(0,2691,cs),
(0,2575,o),
(91,2484,o),
(207,2484,cs),
(323,2484,o),
(414,2575,o),
(414,2691,c),
(621,2691,l),
(621,2484,l),
(621,2277,l),
(621,2070,l),
(621,1656,l),
(621,1449,l),
(621,1242,l),
(621,828,l),
(621,621,l),
(621,414,l),
(621,207,l),
(414,207,l),
(414,323,o),
(323,414,o),
(207,414,cs),
(91,414,o),
(0,323,o),
(0,207,cs),
(0,91,o),
(91,0,o),
(207,0,cs)
);
},
{
closed = 1;
nodes = (
(1656,414,l),
(1656,621,l),
(1656,828,l),
(1656,1242,l),
(1656,1449,l),
(1863,1449,l),
(2070,1449,l),
(2070,1242,l),
(2070,828,l),
(2070,621,l),
(2070,414,l),
(2070,207,l),
(1863,207,l),
(1656,207,l)
);
},
{
closed = 1;
nodes = (
(323,414,o),
(414,505,o),
(414,621,cs),
(414,828,l),
(414,1242,l),
(414,1449,l),
(414,1656,l),
(414,2070,l),
(414,2277,ls),
(414,2393,o),
(323,2484,o),
(207,2484,cs),
(91,2484,o),
(0,2393,o),
(0,2277,cs),
(0,2161,o),
(91,2070,o),
(207,2070,c),
(207,1656,l),
(207,1449,l),
(207,1242,l),
(207,828,l),
(91,828,o),
(0,737,o),
(0,621,cs),
(0,505,o),
(91,414,o),
(207,414,cs)
);
},
{
closed = 1;
nodes = (
(1656,2070,l),
(1656,2484,l),
(1656,2691,l),
(1863,2691,l),
(2070,2691,l),
(2070,2484,l),
(2070,2070,l),
(1863,2070,l)
);
}
);
width = 2484;
},
{
layerId = m002;
shapes = (
{
closed = 1;
nodes = (
(414,0,l),
(621,0,ls),
(737,0,o),
(828,91,o),
(828,207,c),
(828,91,o),
(919,0,o),
(1035,0,cs),
(1151,0,o),
(1242,91,o),
(1242,207,c),
(1242,91,o),
(1333,0,o),
(1449,0,cs),
(1656,0,l),
(1863,0,l),
(2070,0,ls),
(2186,0,o),
(2277,91,o),
(2277,207,cs),
(2277,414,l),
(2277,621,l),
(2277,828,l),
(2277,1242,l),
(2277,1449,ls),
(2277,1565,o),
(2186,1656,o),
(2070,1656,cs),
(1863,1656,l),
(1656,1656,l),
(1449,1656,l),
(1242,1656,l),
(1035,1656,ls),
(919,1656,o),
(828,1565,o),
(828,1449,cs),
(828,1333,o),
(919,1242,o),
(1035,1242,cs),
(1151,1242,o),
(1242,1333,o),
(1242,1449,c),
(1449,1449,l),
(1449,1242,l),
(1449,828,l),
(1449,621,l),
(1449,414,l),
(1449,207,l),
(1449,323,o),
(1358,414,o),
(1242,414,cs),
(1126,414,o),
(1035,323,o),
(1035,207,c),
(1035,323,o),
(944,414,o),
(828,414,c),
(828,621,l),
(828,828,l),
(828,1242,l),
(828,1449,l),
(828,1656,l),
(828,2070,l),
(828,2277,l),
(828,2484,l),
(828,2691,l),
(828,2575,o),
(919,2484,o),
(1035,2484,cs),
(1151,2484,o),
(1242,2575,o),
(1242,2691,c),
(1449,2691,l),
(1449,2484,l),
(1449,2070,ls),
(1449,1954,o),
(1540,1863,o),
(1656,1863,cs),
(1863,1863,l),
(2070,1863,ls),
(2186,1863,o),
(2277,1954,o),
(2277,2070,cs),
(2277,2484,l),
(2277,2691,ls),
(2277,2807,o),
(2186,2898,o),
(2070,2898,cs),
(1863,2898,l),
(1656,2898,l),
(1449,2898,l),
(1242,2898,ls),
(1126,2898,o),
(1035,2807,o),
(1035,2691,c),
(1035,2807,o),
(944,2898,o),
(828,2898,cs),
(621,2898,l),
(414,2898,l),
(207,2898,ls),
(91,2898,o),
(0,2807,o),
(0,2691,cs),
(0,2575,o),
(91,2484,o),
(207,2484,c),
(91,2484,o),
(0,2393,o),
(0,2277,cs),
(0,2161,o),
(91,2070,o),
(207,2070,c),
(207,1656,l),
(207,1449,l),
(207,1242,l),
(207,828,l),
(91,828,o),
(0,737,o),
(0,621,cs),
(0,505,o),
(91,414,o),
(207,414,c),
(91,414,o),
(0,323,o),
(0,207,cs),
(0,91,o),
(91,0,o),
(207,0,cs)
);
}
);
width = 2484;
}
);
note = six;
unicode = 54;
}
{
glyphname = seven;
layers = (
{
layerId = m01;
shapes = (
{
closed = 1;
nodes = (
(1035,207,l),
(1035,0,l),
(1242,0,l),
(1242,207,l)
);
},
{
closed = 1;
nodes = (
(1242,207,l),
(1242,0,l),
(1449,0,l),
(1449,207,l)
);
},
{
closed = 1;
nodes = (
(1449,207,l),
(1449,0,l),
(1656,0,l),
(1656,207,l)
);
},
{
closed = 1;
nodes = (
(1656,0,l),
(1772,0,o),
(1863,91,o),
(1863,207,c),
(1656,207,l)
);
},
{
closed = 1;
nodes = (
(1035,414,l),
(1035,207,l),
(1242,207,l),
(1242,414,l)
);
},
{
closed = 1;
nodes = (
(1656,414,l),
(1540,414,o),
(1449,323,o),
(1449,207,c),
(1656,207,l)
);
},
{
closed = 1;
nodes = (
(1656,207,l),
(1863,207,l),
(1863,323,o),
(1772,414,o),
(1656,414,c)
);
},
{
closed = 1;
nodes = (
(1035,1035,l),
(1035,414,l),
(1242,414,l),
(1242,1035,l)
);
},
{
closed = 1;
nodes = (
(1863,621,l),
(1656,621,l),
(1656,505,o),
(1747,414,o),
(1863,414,c)
);
},
{
closed = 1;
nodes = (
(1863,414,l),
(1979,414,o),
(2070,505,o),
(2070,621,c),
(1863,621,l)
);
},
{
closed = 1;
nodes = (
(1242,1242,l),
(1242,1449,l),
(1242,1656,l),
(1242,2070,l),
(1035,2070,l),
(1035,1656,l),
(828,1656,ls),
(712,1656,o),
(621,1565,o),
(621,1449,cs),
(621,1333,o),
(712,1242,o),
(828,1242,cs),
(944,1242,o),
(1035,1333,o),
(1035,1449,c),
(1035,1242,l),
(1035,1035,l),
(1035,1035,l),
(1242,1035,l)
);
},
{
closed = 1;
nodes = (
(1863,1358,o),
(1772,1449,o),
(1656,1449,c),
(1772,1449,o),
(1863,1540,o),
(1863,1656,c),
(1863,1540,o),
(1954,1449,o),
(2070,1449,c),
(1954,1449,o),
(1863,1358,o),
(1863,1242,c)
);
},
{
closed = 1;
nodes = (
(2070,1242,ls),
(2186,1242,o),
(2277,1333,o),
(2277,1449,cs),
(2277,1565,o),
(2186,1656,o),
(2070,1656,cs),
(1863,1656,l),
(1863,2070,l),
(1656,2070,l),
(1656,1656,l),
(1540,1656,o),
(1449,1565,o),
(1449,1449,cs),
(1449,1333,o),
(1540,1242,o),
(1656,1242,c),
(1656,828,l),
(1863,828,l),
(1863,1242,l)
);
},
{
closed = 1;
nodes = (
(1656,828,l),
(1656,621,l),
(1863,621,l),
(1863,828,l)
);
},
{
closed = 1;
nodes = (
(1863,621,l),
(2070,621,l),
(2070,737,o),
(1979,828,o),
(1863,828,c)
);
},
{
closed = 1;
nodes = (
(207,2277,l),
(0,2277,l),
(0,2161,o),
(91,2070,o),
(207,2070,c)
);
},
{
closed = 1;
nodes = (
(207,2277,l),
(207,2070,l),
(414,2070,l),
(414,2277,l)
);
},
{
closed = 1;
nodes = (
(414,2070,l),
(530,2070,o),
(621,2161,o),
(621,2277,c),
(414,2277,l)
);
},
{
closed = 1;
nodes = (
(1035,2277,l),
(1035,2070,l),
(1242,2070,l),
(1242,2277,l)
);
},
{
closed = 1;
nodes = (
(1656,2277,l),
(1656,2070,l),
(1863,2070,l),
(1863,2277,l)
);
},
{
closed = 1;
nodes = (
(1863,2070,l),
(1979,2070,o),
(2070,2161,o),
(2070,2277,c),
(1863,2277,l)
);
},
{
closed = 1;
nodes = (
(0,2484,l),
(0,2277,l),
(207,2277,l),
(207,2484,l)
);
},
{
closed = 1;
nodes = (
(414,2484,l),
(414,2277,l),
(621,2277,l),
(621,2484,l)
);
},
{
closed = 1;
nodes = (
(1035,2484,l),
(1035,2277,l),
(1242,2277,l),
(1242,2484,l)
);
},
{
closed = 1;
nodes = (
(1863,2484,l),
(1747,2484,o),
(1656,2393,o),
(1656,2277,c),
(1863,2277,l)
);
},
{
closed = 1;
nodes = (
(1863,2277,l),
(2070,2277,l),
(2070,2393,o),
(1979,2484,o),
(1863,2484,c)
);
},
{
closed = 1;
nodes = (
(207,2691,l),
(91,2691,o),
(0,2600,o),
(0,2484,c),
(207,2484,l)
);
},
{
closed = 1;
nodes = (
(207,2691,l),
(207,2484,l),
(414,2484,l),
(414,2691,l)
);
},
{
closed = 1;
nodes = (
(414,2691,l),
(414,2484,l),
(621,2484,l),
(621,2691,l)
);
},
{
closed = 1;
nodes = (
(1035,2691,l),
(828,2691,l),
(828,2575,o),
(919,2484,o),
(1035,2484,c)
);
},
{
closed = 1;
nodes = (
(1035,2691,l),
(1035,2484,l),
(1242,2484,l),
(1242,2691,l)
);
},
{
closed = 1;
nodes = (
(1656,2691,l),
(1449,2691,l),
(1449,2575,o),
(1540,2484,o),
(1656,2484,c)
);
},
{
closed = 1;
nodes = (
(1656,2484,l),
(1772,2484,o),
(1863,2575,o),
(1863,2691,c),
(1656,2691,l)
);
},
{
closed = 1;
nodes = (
(621,2898,l),
(505,2898,o),
(414,2807,o),
(414,2691,c),
(621,2691,l)
);
},
{
closed = 1;
nodes = (
(621,2898,l),
(621,2691,l),
(828,2691,l),
(828,2898,l)
);
},
{
closed = 1;
nodes = (
(828,2691,l),
(1035,2691,l),
(1035,2807,o),
(944,2898,o),
(828,2898,c)
);
},
{
closed = 1;
nodes = (
(1242,2898,l),
(1126,2898,o),
(1035,2807,o),
(1035,2691,c),
(1242,2691,l)
);
},
{
closed = 1;
nodes = (
(1242,2898,l),
(1242,2691,l),
(1449,2691,l),
(1449,2898,l)
);
},
{
closed = 1;
nodes = (
(1449,2898,l),
(1449,2691,l),
(1656,2691,l),
(1656,2898,l)
);
},
{
closed = 1;
nodes = (
(1656,2691,l),
(1863,2691,l),
(1863,2807,o),
(1772,2898,o),
(1656,2898,c)
);
}
);
width = 2484;
},
{
layerId = m002;
shapes = (
{
closed = 1;
nodes = (
(1979,414,o),
(2070,505,o),
(2070,621,cs),
(2070,737,o),
(1979,828,o),
(1863,828,c),
(1863,1242,l),
(2070,1242,ls),
(2186,1242,o),
(2277,1333,o),
(2277,1449,cs),
(2277,1565,o),
(2186,1656,o),
(2070,1656,cs),
(1863,1656,l),
(1863,2070,l),
(1979,2070,o),
(2070,2161,o),
(2070,2277,cs),
(2070,2393,o),
(1979,2484,o),
(1863,2484,cs),
(1851,2484,o),
(1840,2483,o),
(1828,2481,c),
(1851,2621,l),
(1859,2644,o),
(1863,2666,o),
(1863,2691,cs),
(1863,2807,o),
(1772,2898,o),
(1656,2898,cs),
(1449,2898,l),
(1242,2898,ls),
(1126,2898,o),
(1035,2807,o),
(1035,2691,c),
(1035,2807,o),
(944,2898,o),
(828,2898,cs),
(621,2898,ls),
(505,2898,o),
(414,2807,o),
(414,2691,c),
(207,2691,ls),
(91,2691,o),
(0,2600,o),
(0,2484,cs),
(0,2277,ls),
(0,2161,o),
(91,2070,o),
(207,2070,cs),
(414,2070,ls),
(530,2070,o),
(621,2161,o),
(621,2277,cs),
(621,2484,l),
(621,2691,l),
(828,2691,l),
(828,2575,o),
(919,2484,o),
(1035,2484,c),
(1035,2277,l),
(1035,2070,l),
(1035,1656,l),
(828,1656,ls),
(712,1656,o),
(621,1565,o),
(621,1449,cs),
(621,1333,o),
(712,1242,o),
(828,1242,cs),
(944,1242,o),
(1035,1333,o),
(1035,1449,c),
(1035,1242,l),
(1035,1035,l),
(1035,1035,l),
(1035,414,l),
(1035,207,l),
(1035,0,l),
(1242,0,l),
(1449,0,l),
(1656,0,ls),
(1772,0,o),
(1863,91,o),
(1863,207,cs),
(1863,232,o),
(1859,254,o),
(1851,277,c),
(1828,417,l),
(1840,415,o),
(1851,414,o),
(1863,414,cs)
);
},
{
closed = 1;
nodes = (
(1863,1358,o),
(1772,1449,o),
(1656,1449,c),
(1772,1449,o),
(1863,1540,o),
(1863,1656,c),
(1863,1540,o),
(1954,1449,o),
(2070,1449,c),
(1954,1449,o),
(1863,1358,o),
(1863,1242,c)
);
}
);
width = 2484;
}
);
note = seven;
unicode = 55;
}
{
glyphname = eight;
layers = (
{
layerId = m01;
shapes = (
{
closed = 1;
nodes = (
(828,0,ls),
(944,0,o),
(1035,91,o),
(1035,207,c),
(1035,91,o),
(1126,0,o),
(1242,0,cs),
(1358,0,o),
(1449,91,o),
(1449,207,c),
(1449,91,o),
(1540,0,o),
(1656,0,cs),
(1772,0,o),
(1863,91,o),
(1863,207,c),
(2070,207,ls),
(2186,207,o),
(2277,298,o),
(2277,414,cs),
(2277,621,l),
(2277,1035,l),
(2277,1242,ls),
(2277,1358,o),
(2186,1449,o),
(2070,1449,cs),
(1863,1449,ls),
(1747,1449,o),
(1656,1358,o),
(1656,1242,cs),
(1656,1035,l),
(1656,621,l),
(1656,414,l),
(1656,207,l),
(1656,323,o),
(1565,414,o),
(1449,414,cs),
(1333,414,o),
(1242,323,o),
(1242,207,c),
(1242,323,o),
(1151,414,o),
(1035,414,cs),
(919,414,o),
(828,323,o),
(828,207,c),
(621,207,l),
(621,414,l),
(621,621,l),
(621,1035,l),
(621,1242,l),
(737,1242,o),
(828,1333,o),
(828,1449,c),
(828,1333,o),
(919,1242,o),
(1035,1242,cs),
(1151,1242,o),
(1242,1333,o),
(1242,1449,c),
(1242,1333,o),
(1333,1242,o),
(1449,1242,cs),
(1565,1242,o),
(1656,1333,o),
(1656,1449,c),
(1772,1449,o),
(1863,1540,o),
(1863,1656,c),
(2070,1656,ls),
(2186,1656,o),
(2277,1747,o),
(2277,1863,cs),
(2277,2277,l),
(2277,2484,ls),
(2277,2600,o),
(2186,2691,o),
(2070,2691,cs),
(1863,2691,l),
(1863,2807,o),
(1772,2898,o),
(1656,2898,cs),
(1449,2898,ls),
(1333,2898,o),
(1242,2807,o),
(1242,2691,c),
(1242,2807,o),
(1151,2898,o),
(1035,2898,cs),
(919,2898,o),
(828,2807,o),
(828,2691,c),
(828,2807,o),
(737,2898,o),
(621,2898,cs),
(505,2898,o),
(414,2807,o),
(414,2691,c),
(207,2691,ls),
(91,2691,o),
(0,2600,o),
(0,2484,cs),
(0,2277,l),
(0,1863,ls),
(0,1747,o),
(91,1656,o),
(207,1656,cs),
(414,1656,l),
(414,1449,l),
(207,1449,ls),
(91,1449,o),
(0,1358,o),
(0,1242,cs),
(0,1035,l),
(0,621,l),
(0,414,ls),
(0,298,o),
(91,207,o),
(207,207,cs),
(414,207,l),
(414,91,o),
(505,0,o),
(621,0,cs)
);
},
{
closed = 1;
nodes = (
(207,414,l),
(207,621,l),
(207,1035,l),
(207,1242,l),
(414,1242,l),
(414,1035,l),
(414,621,l),
(414,414,l)
);
},
{
closed = 1;
nodes = (
(1863,621,l),
(1863,1035,l),
(1863,1242,l),
(2070,1242,l),
(2070,1035,l),
(2070,621,l),
(2070,414,l),
(1863,414,l)
);
},
{
closed = 1;
nodes = (
(621,1656,l),
(621,1863,l),
(621,2277,l),
(621,2484,l),
(621,2691,l),
(621,2575,o),
(712,2484,o),
(828,2484,cs),
(944,2484,o),
(1035,2575,o),
(1035,2691,c),
(1035,2575,o),
(1126,2484,o),
(1242,2484,cs),
(1358,2484,o),
(1449,2575,o),
(1449,2691,c),
(1656,2691,l),
(1656,2484,l),
(1656,2277,l),
(1656,1863,l),
(1656,1656,l),
(1540,1656,o),
(1449,1565,o),
(1449,1449,c),
(1449,1565,o),
(1358,1656,o),
(1242,1656,cs),
(1126,1656,o),
(1035,1565,o),
(1035,1449,c),
(1035,1565,o),
(944,1656,o),
(828,1656,cs),
(712,1656,o),
(621,1565,o),
(621,1449,c)
);
},
{
closed = 1;
nodes = (
(207,1863,l),
(207,2277,l),
(207,2484,l),
(414,2484,l),
(414,2277,l),
(414,1863,l)
);
},
{
closed = 1;
nodes = (
(1863,2277,l),
(1863,2484,l),
(2070,2484,l),
(2070,2277,l),
(2070,1863,l),
(1863,1863,l)
);
}
);
width = 2484;
},
{
layerId = m002;
shapes = (
{
closed = 1;
nodes = (
(828,0,ls),
(944,0,o),
(1035,91,o),
(1035,207,c),
(1035,91,o),
(1126,0,o),
(1242,0,cs),
(1358,0,o),
(1449,91,o),
(1449,207,c),
(1449,91,o),
(1540,0,o),
(1656,0,cs),
(1772,0,o),
(1863,91,o),
(1863,207,c),
(2070,207,ls),
(2186,207,o),
(2277,298,o),
(2277,414,cs),
(2277,621,l),
(2277,1035,l),
(2277,1242,ls),
(2277,1358,o),
(2186,1449,o),
(2070,1449,cs),
(1863,1449,ls),
(1747,1449,o),
(1656,1358,o),
(1656,1242,cs),
(1656,1035,l),
(1656,621,l),
(1656,414,l),
(1656,413,l),
(1656,207,l),
(1656,323,o),
(1565,414,o),
(1449,414,cs),
(1333,414,o),
(1242,323,o),
(1242,207,c),
(1242,323,o),
(1151,414,o),
(1035,414,cs),
(919,414,o),
(828,323,o),
(828,207,c),
(621,207,l),
(621,414,l),
(621,621,l),
(621,1035,l),
(621,1242,l),
(737,1242,o),
(828,1333,o),
(828,1449,c),
(828,1333,o),
(919,1242,o),
(1035,1242,cs),
(1151,1242,o),
(1242,1333,o),
(1242,1449,c),
(1242,1333,o),
(1333,1242,o),
(1449,1242,cs),
(1565,1242,o),
(1656,1333,o),
(1656,1449,c),
(1772,1449,o),
(1863,1540,o),
(1863,1656,c),
(2070,1656,ls),
(2186,1656,o),
(2277,1747,o),
(2277,1863,cs),
(2277,2277,l),
(2277,2484,ls),
(2277,2600,o),
(2186,2691,o),
(2070,2691,cs),
(1863,2691,l),
(1863,2807,o),
(1772,2898,o),
(1656,2898,cs),
(1449,2898,ls),
(1333,2898,o),
(1242,2807,o),
(1242,2691,c),
(1242,2807,o),
(1151,2898,o),
(1035,2898,cs),
(919,2898,o),
(828,2807,o),
(828,2691,c),
(828,2807,o),
(737,2898,o),
(621,2898,cs),
(505,2898,o),
(415,2808,o),
(414,2692,c),
(207,2692,l),
(207,2691,l),
(91,2691,o),
(0,2600,o),
(0,2484,cs),
(0,2277,l),
(0,1863,ls),
(0,1747,o),
(91,1656,o),
(207,1656,cs),
(414,1656,l),
(414,1449,l),
(207,1449,ls),
(91,1449,o),
(0,1358,o),
(0,1242,cs),
(0,1035,l),
(0,621,l),
(0,414,ls),
(0,298,o),
(91,207,o),
(207,207,cs),
(414,207,l),
(414,91,o),
(505,0,o),
(621,0,cs)
);
},
{
closed = 1;
nodes = (
(621,1656,l),
(621,1863,l),
(621,2277,l),
(621,2484,l),
(621,2691,l),
(621,2575,o),
(712,2484,o),
(828,2484,cs),
(944,2484,o),
(1035,2575,o),
(1035,2691,c),
(1035,2575,o),
(1126,2484,o),
(1242,2484,cs),
(1358,2484,o),
(1449,2575,o),
(1449,2691,c),
(1656,2691,l),
(1656,2484,l),
(1656,2277,l),
(1656,1863,l),
(1656,1862,l),
(1656,1656,l),
(1540,1656,o),
(1449,1565,o),
(1449,1449,c),
(1449,1565,o),
(1358,1656,o),
(1242,1656,cs),
(1126,1656,o),
(1035,1565,o),
(1035,1449,c),
(1035,1565,o),
(944,1656,o),
(828,1656,cs),
(712,1656,o),
(621,1565,o),
(621,1449,c)
);
}
);
width = 2484;
}
);
note = eight;
unicode = 56;
}
{
glyphname = nine;
layers = (
{
layerId = m01;
shapes = (
{
closed = 1;
nodes = (
(1863,2899,l),
(1656,2899,ls),
(1540,2899,o),
(1449,2808,o),
(1449,2692,c),
(1449,2808,o),
(1358,2899,o),
(1242,2899,cs),
(1126,2899,o),
(1035,2808,o),
(1035,2692,c),
(1035,2808,o),
(944,2899,o),
(828,2899,cs),
(621,2899,l),
(414,2899,l),
(207,2899,ls),
(91,2899,o),
(0,2808,o),
(0,2692,cs),
(0,2485,l),
(0,2278,l),
(0,2071,l),
(0,1657,l),
(0,1450,ls),
(0,1334,o),
(91,1243,o),
(207,1243,cs),
(414,1243,l),
(621,1243,l),
(828,1243,l),
(1035,1243,l),
(1242,1243,ls),
(1358,1243,o),
(1449,1334,o),
(1449,1450,cs),
(1449,1566,o),
(1358,1657,o),
(1242,1657,cs),
(1126,1657,o),
(1035,1566,o),
(1035,1450,c),
(828,1450,l),
(828,1657,l),
(828,2071,l),
(828,2278,l),
(828,2485,l),
(828,2692,l),
(828,2576,o),
(919,2485,o),
(1035,2485,cs),
(1151,2485,o),
(1242,2576,o),
(1242,2692,c),
(1242,2576,o),
(1333,2485,o),
(1449,2485,c),
(1449,2278,l),
(1449,2071,l),
(1449,1657,l),
(1449,1450,l),
(1449,1243,l),
(1449,829,l),
(1449,622,l),
(1449,415,l),
(1449,208,l),
(1449,324,o),
(1358,415,o),
(1242,415,cs),
(1126,415,o),
(1035,324,o),
(1035,208,c),
(828,208,l),
(828,415,l),
(828,829,ls),
(828,945,o),
(737,1036,o),
(621,1036,cs),
(414,1036,l),
(207,1036,ls),
(91,1036,o),
(0,945,o),
(0,829,cs),
(0,415,l),
(0,208,ls),
(0,92,o),
(91,1,o),
(207,1,cs),
(414,1,l),
(621,1,l),
(828,1,l),
(1035,1,ls),
(1151,1,o),
(1242,92,o),
(1242,208,c),
(1242,92,o),
(1333,1,o),
(1449,1,cs),
(1656,1,l),
(1863,1,l),
(2070,1,ls),
(2186,1,o),
(2277,92,o),
(2277,208,cs),
(2277,324,o),
(2186,415,o),
(2070,415,cs),
(1954,415,o),
(1863,324,o),
(1863,208,c),
(1656,208,l),
(1656,415,l),
(1656,622,l),
(1656,829,l),
(1656,1243,l),
(1656,1450,l),
(1656,1657,l),
(1656,2071,l),
(1656,2278,l),
(1656,2485,l),
(1656,2692,l),
(1863,2692,l),
(1863,2576,o),
(1954,2485,o),
(2070,2485,cs),
(2186,2485,o),
(2277,2576,o),
(2277,2692,cs),
(2277,2808,o),
(2186,2899,o),
(2070,2899,cs)
);
},
{
closed = 1;
nodes = (
(621,2485,l),
(621,2278,l),
(621,2071,l),
(621,1657,l),
(621,1450,l),
(414,1450,l),
(207,1450,l),
(207,1657,l),
(207,2071,l),
(207,2278,l),
(207,2485,l),
(207,2692,l),
(414,2692,l),
(621,2692,l)
);
},
{
closed = 1;
nodes = (
(1954,2485,o),
(1863,2394,o),
(1863,2278,cs),
(1863,2071,l),
(1863,1657,l),
(1863,1450,l),
(1863,1243,l),
(1863,829,l),
(1863,622,ls),
(1863,506,o),
(1954,415,o),
(2070,415,cs),
(2186,415,o),
(2277,506,o),
(2277,622,cs),
(2277,738,o),
(2186,829,o),
(2070,829,c),
(2070,1243,l),
(2070,1450,l),
(2070,1657,l),
(2070,2071,l),
(2186,2071,o),
(2277,2162,o),
(2277,2278,cs),
(2277,2394,o),
(2186,2485,o),
(2070,2485,cs)
);
},
{
closed = 1;
nodes = (
(621,829,l),
(621,415,l),
(621,208,l),
(414,208,l),
(207,208,l),
(207,415,l),
(207,829,l),
(414,829,l)
);
}
);
width = 2484;
},
{
layerId = m002;
shapes = (
{
closed = 1;
nodes = (
(1863,2899,l),
(1656,2899,ls),
(1540,2899,o),
(1449,2808,o),
(1449,2692,c),
(1449,2808,o),
(1358,2899,o),
(1242,2899,cs),
(1126,2899,o),
(1035,2808,o),
(1035,2692,c),
(1035,2808,o),
(944,2899,o),
(828,2899,cs),
(621,2899,l),
(414,2899,l),
(207,2899,ls),
(91,2899,o),
(0,2808,o),
(0,2692,cs),
(0,2485,l),
(0,2278,l),
(0,2071,l),
(0,1657,l),
(0,1450,ls),
(0,1334,o),
(91,1243,o),
(207,1243,cs),
(414,1243,l),
(621,1243,l),
(828,1243,l),
(1035,1243,l),
(1242,1243,ls),
(1358,1243,o),
(1449,1334,o),
(1449,1450,cs),
(1449,1566,o),
(1358,1657,o),
(1242,1657,cs),
(1126,1657,o),
(1035,1566,o),
(1035,1450,c),
(828,1450,l),
(828,1657,l),
(828,2071,l),
(828,2278,l),
(828,2485,l),
(828,2692,l),
(828,2576,o),
(919,2485,o),
(1035,2485,cs),
(1151,2485,o),
(1242,2576,o),
(1242,2692,c),
(1242,2576,o),
(1333,2485,o),
(1449,2485,c),
(1449,2278,l),
(1449,2071,l),
(1449,1657,l),
(1449,1450,l),
(1449,1243,l),
(1449,829,l),
(1449,622,l),
(1449,415,l),
(1449,208,l),
(1449,324,o),
(1358,415,o),
(1242,415,cs),
(1126,415,o),
(1035,324,o),
(1035,208,c),
(828,208,l),
(828,415,l),
(828,829,ls),
(828,945,o),
(737,1036,o),
(621,1036,cs),
(414,1036,l),
(207,1036,ls),
(91,1036,o),
(0,945,o),
(0,829,cs),
(0,415,l),
(0,208,ls),
(0,92,o),
(91,1,o),
(207,1,cs),
(414,1,l),
(621,1,l),
(828,1,l),
(1035,1,ls),
(1151,1,o),
(1242,92,o),
(1242,208,c),
(1242,92,o),
(1333,1,o),
(1449,1,cs),
(1656,1,l),
(1863,1,l),
(2070,1,ls),
(2186,1,o),
(2277,92,o),
(2277,208,cs),
(2277,324,o),
(2186,415,o),
(2070,415,c),
(2186,415,o),
(2277,506,o),
(2277,622,cs),
(2277,738,o),
(2186,829,o),
(2070,829,c),
(2070,1243,l),
(2070,1450,l),
(2070,1657,l),
(2070,2071,l),
(2186,2071,o),
(2277,2162,o),
(2277,2278,cs),
(2277,2394,o),
(2186,2485,o),
(2070,2485,c),
(2186,2485,o),
(2277,2576,o),
(2277,2692,cs),
(2277,2808,o),
(2186,2899,o),
(2070,2899,cs)
);
}
);
width = 2484;
}
);
note = nine;
unicode = 57;
}
{
glyphname = colon;
layers = (
{
layerId = m01;
shapes = (
{
closed = 1;
nodes = (
(414,0,ls),
(530,0,o),
(621,91,o),
(621,207,cs),
(621,414,ls),
(621,530,o),
(530,621,o),
(414,621,cs),
(207,621,ls),
(91,621,o),
(0,530,o),
(0,414,cs),
(0,207,ls),
(0,91,o),
(91,0,o),
(207,0,cs)
);
},
{
closed = 1;
nodes = (
(207,207,l),
(207,414,l),
(414,414,l),
(414,207,l)
);
},
{
closed = 1;
nodes = (
(414,1242,ls),
(530,1242,o),
(621,1333,o),
(621,1449,cs),
(621,1656,ls),
(621,1772,o),
(530,1863,o),
(414,1863,cs),
(207,1863,ls),
(91,1863,o),
(0,1772,o),
(0,1656,cs),
(0,1449,ls),
(0,1333,o),
(91,1242,o),
(207,1242,cs)
);
},
{
closed = 1;
nodes = (
(207,1449,l),
(207,1656,l),
(414,1656,l),
(414,1449,l)
);
}
);
width = 828;
},
{
layerId = m002;
shapes = (
{
closed = 1;
nodes = (
(414,0,ls),
(530,0,o),
(621,91,o),
(621,207,cs),
(621,414,ls),
(621,530,o),
(530,621,o),
(414,621,cs),
(207,621,ls),
(91,621,o),
(0,530,o),
(0,414,cs),
(0,207,ls),
(0,91,o),
(91,0,o),
(207,0,cs)
);
},
{
closed = 1;
nodes = (
(414,1242,ls),
(530,1242,o),
(621,1333,o),
(621,1449,cs),
(621,1656,ls),
(621,1772,o),
(530,1863,o),
(414,1863,cs),
(207,1863,ls),
(91,1863,o),
(0,1772,o),
(0,1656,cs),
(0,1449,ls),
(0,1333,o),
(91,1242,o),
(207,1242,cs)
);
}
);
width = 828;
}
);
note = colon;
unicode = 58;
}
{
glyphname = semicolon;
layers = (
{
layerId = m01;
shapes = (
{
closed = 1;
nodes = (
(530,-414,o),
(621,-323,o),
(621,-207,cs),
(621,-91,o),
(530,0,o),
(414,0,c),
(530,0,o),
(621,91,o),
(621,207,cs),
(621,414,ls),
(621,530,o),
(530,621,o),
(414,621,cs),
(207,621,ls),
(91,621,o),
(0,530,o),
(0,414,cs),
(0,207,ls),
(0,91,o),
(91,0,o),
(207,0,c),
(207,-116,o),
(298,-207,o),
(414,-207,c),
(298,-207,o),
(207,-298,o),
(207,-414,c),
(414,-414,ls)
);
},
{
closed = 1;
nodes = (
(207,207,l),
(207,414,l),
(414,414,l),
(414,207,l)
);
},
{
closed = 1;
nodes = (
(414,1242,ls),
(530,1242,o),
(621,1333,o),
(621,1449,cs),
(621,1656,ls),
(621,1772,o),
(530,1863,o),
(414,1863,cs),
(207,1863,ls),
(91,1863,o),
(0,1772,o),
(0,1656,cs),
(0,1449,ls),
(0,1333,o),
(91,1242,o),
(207,1242,cs)
);
},
{
closed = 1;
nodes = (
(207,1449,l),
(207,1656,l),
(414,1656,l),
(414,1449,l)
);
}
);
width = 828;
},
{
layerId = m002;
shapes = (
{
closed = 1;
nodes = (
(530,-414,o),
(621,-323,o),
(621,-207,cs),
(621,-91,o),
(530,0,o),
(414,0,c),
(530,0,o),
(621,91,o),
(621,207,cs),
(621,414,ls),
(621,530,o),
(530,621,o),
(414,621,cs),
(207,621,ls),
(91,621,o),
(0,530,o),
(0,414,cs),
(0,207,ls),
(0,91,o),
(91,0,o),
(207,0,c),
(207,-116,o),
(298,-207,o),
(414,-207,c),
(298,-207,o),
(207,-298,o),
(207,-414,c),
(414,-414,ls)
);
},
{
closed = 1;
nodes = (
(414,1242,ls),
(530,1242,o),
(621,1333,o),
(621,1449,cs),
(621,1656,ls),
(621,1772,o),
(530,1863,o),
(414,1863,cs),
(207,1863,ls),
(91,1863,o),
(0,1772,o),
(0,1656,cs),
(0,1449,ls),
(0,1333,o),
(91,1242,o),
(207,1242,cs)
);
}
);
width = 828;
}
);
note = semicolon;
unicode = 59;
}
{
glyphname = equal;
layers = (
{
layerId = m01;
shapes = (
{
closed = 1;
nodes = (
(323,621,o),
(414,712,o),
(414,828,c),
(621,828,l),
(828,828,l),
(1035,828,l),
(1242,828,l),
(1242,712,o),
(1333,621,o),
(1449,621,cs),
(1565,621,o),
(1656,712,o),
(1656,828,cs),
(1656,944,o),
(1565,1035,o),
(1449,1035,cs),
(1242,1035,l),
(1035,1035,l),
(828,1035,l),
(621,1035,l),
(414,1035,l),
(207,1035,ls),
(91,1035,o),
(0,944,o),
(0,828,cs),
(0,712,o),
(91,621,o),
(207,621,cs)
);
},
{
closed = 1;
nodes = (
(414,1449,l),
(621,1449,l),
(828,1449,l),
(1035,1449,l),
(1242,1449,l),
(1449,1449,ls),
(1565,1449,o),
(1656,1540,o),
(1656,1656,cs),
(1656,1772,o),
(1565,1863,o),
(1449,1863,cs),
(1333,1863,o),
(1242,1772,o),
(1242,1656,c),
(1035,1656,l),
(828,1656,l),
(621,1656,l),
(414,1656,l),
(414,1772,o),
(323,1863,o),
(207,1863,cs),
(91,1863,o),
(0,1772,o),
(0,1656,cs),
(0,1540,o),
(91,1449,o),
(207,1449,cs)
);
}
);
width = 1863;
},
{
layerId = m002;
shapes = (
{
closed = 1;
nodes = (
(323,621,o),
(414,712,o),
(414,828,c),
(621,828,l),
(828,828,l),
(1035,828,l),
(1242,828,l),
(1242,712,o),
(1333,621,o),
(1449,621,cs),
(1565,621,o),
(1656,712,o),
(1656,828,cs),
(1656,944,o),
(1565,1035,o),
(1449,1035,cs),
(1242,1035,l),
(1035,1035,l),
(828,1035,l),
(621,1035,l),
(414,1035,l),
(207,1035,ls),
(91,1035,o),
(0,944,o),
(0,828,cs),
(0,712,o),
(91,621,o),
(207,621,cs)
);
},
{
closed = 1;
nodes = (
(414,1449,l),
(621,1449,l),
(828,1449,l),
(1035,1449,l),
(1242,1449,l),
(1449,1449,ls),
(1565,1449,o),
(1656,1540,o),
(1656,1656,cs),
(1656,1772,o),
(1565,1863,o),
(1449,1863,cs),
(1333,1863,o),
(1242,1772,o),
(1242,1656,c),
(1035,1656,l),
(828,1656,l),
(621,1656,l),
(414,1656,l),
(414,1772,o),
(323,1863,o),
(207,1863,cs),
(91,1863,o),
(0,1772,o),
(0,1656,cs),
(0,1540,o),
(91,1449,o),
(207,1449,cs)
);
}
);
width = 1863;
}
);
note = equal;
unicode = 61;
}
{
glyphname = question;
layers = (
{
layerId = m01;
shapes = (
{
closed = 1;
nodes = (
(1035,207,l),
(828,207,l),
(828,91,o),
(919,0,o),
(1035,0,c)
);
},
{
closed = 1;
nodes = (
(1035,207,l),
(1035,0,l),
(1242,0,l),
(1242,207,l)
);
},
{
closed = 1;
nodes = (
(1242,0,l),
(1358,0,o),
(1449,91,o),
(1449,207,c),
(1242,207,l)
);
},
{
closed = 1;
nodes = (
(828,414,l),
(828,207,l),
(1035,207,l),
(1035,414,l)
);
},
{
closed = 1;
nodes = (
(1242,414,l),
(1242,207,l),
(1449,207,l),
(1449,414,l)
);
},
{
closed = 1;
nodes = (
(1035,621,l),
(919,621,o),
(828,530,o),
(828,414,c),
(1035,414,l)
);
},
{
closed = 1;
nodes = (
(1035,621,l),
(1035,414,l),
(1242,414,l),
(1242,621,l)
);
},
{
closed = 1;
nodes = (
(1242,414,l),
(1449,414,l),
(1449,530,o),
(1358,621,o),
(1242,621,c)
);
},
{
closed = 1;
nodes = (
(1035,1035,l),
(828,1035,l),
(828,919,o),
(919,828,o),
(1035,828,c)
);
},
{
closed = 1;
nodes = (
(1035,1035,l),
(1035,828,l),
(1242,828,l),
(1242,1035,l)
);
},
{
closed = 1;
nodes = (
(1242,828,l),
(1358,828,o),
(1449,919,o),
(1449,1035,c),
(1242,1035,l)
);
},
{
closed = 1;
nodes = (
(828,1242,l),
(828,1035,l),
(1035,1035,l),
(1035,1242,l)
);
},
{
closed = 1;
nodes = (
(1242,1242,l),
(1126,1242,o),
(1035,1151,o),
(1035,1035,c),
(1242,1035,l)
);
},
{
closed = 1;
nodes = (
(1242,1035,l),
(1449,1035,l),
(1449,1151,o),
(1358,1242,o),
(1242,1242,c)
);
},
{
closed = 1;
nodes = (
(1035,1449,l),
(919,1449,o),
(828,1358,o),
(828,1242,c),
(1035,1242,l)
);
},
{
closed = 1;
nodes = (
(1035,1449,l),
(1035,1242,l),
(1242,1242,l),
(1242,1449,l)
);
},
{
closed = 1;
nodes = (
(1242,1242,l),
(1358,1242,o),
(1449,1333,o),
(1449,1449,c),
(1242,1449,l)
);
},
{
closed = 1;
nodes = (
(1656,1449,l),
(1449,1449,l),
(1449,1333,o),
(1540,1242,o),
(1656,1242,c)
);
},
{
closed = 1;
nodes = (
(1656,1242,l),
(1772,1242,o),
(1863,1333,o),
(1863,1449,c),
(1656,1449,l)
);
},
{
closed = 1;
nodes = (
(1449,1656,l),
(1333,1656,o),
(1242,1565,o),
(1242,1449,c),
(1449,1449,l)
);
},
{
closed = 1;
nodes = (
(1449,1449,l),
(1656,1449,l),
(1656,1565,o),
(1565,1656,o),
(1449,1656,c)
);
},
{
closed = 1;
nodes = (
(1656,1656,l),
(1656,1449,l),
(1863,1449,l),
(1863,1656,l)
);
},
{
closed = 1;
nodes = (
(1863,1656,l),
(1863,1449,l),
(2070,1449,l),
(2070,1656,l)
);
},
{
closed = 1;
nodes = (
(2070,1449,l),
(2186,1449,o),
(2277,1540,o),
(2277,1656,c),
(2070,1656,l)
);
},
{
closed = 1;
nodes = (
(207,1863,l),
(0,1863,l),
(0,1747,o),
(91,1656,o),
(207,1656,c)
);
},
{
closed = 1;
nodes = (
(207,1863,l),
(207,1656,l),
(414,1656,l),
(414,1863,l)
);
},
{
closed = 1;
nodes = (
(414,1656,l),
(530,1656,o),
(621,1747,o),
(621,1863,c),
(414,1863,l)
);
},
{
closed = 1;
nodes = (
(1656,1863,l),
(1656,1656,l),
(1863,1656,l),
(1863,1863,l)
);
},
{
closed = 1;
nodes = (
(2070,1863,l),
(2070,1656,l),
(2277,1656,l),
(2277,1863,l)
);
},
{
closed = 1;
nodes = (
(414,2484,l),
(414,1863,l),
(621,1863,l),
(621,2484,l),
(621,2691,l),
(828,2691,l),
(828,2575,o),
(919,2484,o),
(1035,2484,cs),
(1151,2484,o),
(1242,2575,o),
(1242,2691,c),
(1242,2575,o),
(1333,2484,o),
(1449,2484,cs),
(1565,2484,o),
(1656,2575,o),
(1656,2691,c),
(1656,2484,l),
(1656,1863,l),
(1863,1863,l),
(1863,2484,l),
(2070,2484,l),
(2070,1863,l),
(2277,1863,l),
(2277,2484,ls),
(2277,2600,o),
(2186,2691,o),
(2070,2691,cs),
(1863,2691,l),
(1863,2807,o),
(1772,2898,o),
(1656,2898,cs),
(1540,2898,o),
(1449,2807,o),
(1449,2691,c),
(1449,2807,o),
(1358,2898,o),
(1242,2898,cs),
(1126,2898,o),
(1035,2807,o),
(1035,2691,c),
(1035,2807,o),
(944,2898,o),
(828,2898,cs),
(621,2898,ls),
(505,2898,o),
(414,2807,o),
(414,2691,c),
(207,2691,ls),
(91,2691,o),
(0,2600,o),
(0,2484,cs),
(0,1863,l),
(207,1863,l),
(207,2484,l)
);
}
);
width = 2484;
},
{
layerId = m002;
shapes = (
{
closed = 1;
nodes = (
(1242,0,ls),
(1358,0,o),
(1449,91,o),
(1449,207,cs),
(1449,414,ls),
(1449,530,o),
(1358,621,o),
(1242,621,cs),
(1035,621,ls),
(919,621,o),
(828,530,o),
(828,414,cs),
(828,207,ls),
(828,91,o),
(919,0,o),
(1035,0,cs)
);
},
{
closed = 1;
nodes = (
(1242,828,ls),
(1358,828,o),
(1449,919,o),
(1449,1035,cs),
(1449,1151,o),
(1358,1242,o),
(1242,1242,c),
(1358,1242,o),
(1449,1333,o),
(1449,1449,c),
(1449,1333,o),
(1540,1242,o),
(1656,1242,cs),
(1772,1242,o),
(1863,1333,o),
(1863,1449,c),
(2070,1449,ls),
(2186,1449,o),
(2277,1540,o),
(2277,1656,cs),
(2277,1863,l),
(2277,2484,ls),
(2277,2600,o),
(2186,2691,o),
(2070,2691,cs),
(1863,2691,l),
(1863,2807,o),
(1772,2898,o),
(1656,2898,cs),
(1540,2898,o),
(1449,2807,o),
(1449,2691,c),
(1449,2807,o),
(1358,2898,o),
(1242,2898,cs),
(1126,2898,o),
(1035,2807,o),
(1035,2691,c),
(1035,2807,o),
(944,2898,o),
(828,2898,cs),
(621,2898,ls),
(505,2898,o),
(414,2807,o),
(414,2691,c),
(207,2691,ls),
(91,2691,o),
(0,2600,o),
(0,2484,cs),
(0,1863,ls),
(0,1747,o),
(91,1656,o),
(207,1656,c),
(207,1655,l),
(414,1655,l),
(414,1656,l),
(530,1656,o),
(621,1747,o),
(621,1863,cs),
(621,2484,l),
(621,2691,l),
(828,2691,l),
(828,2575,o),
(919,2484,o),
(1035,2484,cs),
(1151,2484,o),
(1242,2575,o),
(1242,2691,c),
(1242,2575,o),
(1333,2484,o),
(1449,2484,cs),
(1565,2484,o),
(1656,2575,o),
(1656,2691,c),
(1656,2484,l),
(1656,1863,l),
(1656,1656,l),
(1656,1449,l),
(1656,1565,o),
(1565,1656,o),
(1449,1656,cs),
(1333,1656,o),
(1242,1565,o),
(1242,1449,c),
(1035,1449,ls),
(919,1449,o),
(828,1358,o),
(828,1242,cs),
(828,1035,ls),
(828,919,o),
(919,828,o),
(1035,828,cs)
);
}
);
width = 2484;
}
);
note = question;
unicode = 63;
}
{
glyphname = A;
layers = (
{
anchors = (
{
name = bottom;
pos = (1242,0);
},
{
name = ogonek;
pos = (2236,10);
},
{
name = top;
pos = (828,3105);
}
);
layerId = m01;
shapes = (
{
closed = 1;
nodes = (
(414,0,l),
(621,0,l),
(828,0,ls),
(944,0,o),
(1035,91,o),
(1035,207,cs),
(1035,414,l),
(1151,414,o),
(1242,505,o),
(1242,621,c),
(1242,505,o),
(1333,414,o),
(1449,414,cs),
(1565,414,o),
(1656,505,o),
(1656,621,c),
(1656,414,l),
(1656,207,l),
(1656,0,l),
(1863,0,l),
(2070,0,ls),
(2186,0,o),
(2277,91,o),
(2277,207,cs),
(2277,414,l),
(2277,621,l),
(2277,828,l),
(2277,1035,l),
(2277,1242,l),
(2277,1863,l),
(2277,2070,ls),
(2277,2186,o),
(2186,2277,o),
(2070,2277,cs),
(1954,2277,o),
(1863,2186,o),
(1863,2070,cs),
(1863,1954,o),
(1954,1863,o),
(2070,1863,c),
(2070,1242,l),
(2070,1035,l),
(2070,828,l),
(2070,621,l),
(2070,414,l),
(2070,207,l),
(1863,207,l),
(1863,414,l),
(1863,621,l),
(1863,828,l),
(1863,1035,l),
(1863,1242,l),
(1863,1863,l),
(1863,2070,l),
(1863,2277,ls),
(1863,2393,o),
(1772,2484,o),
(1656,2484,c),
(1656,2600,o),
(1565,2691,o),
(1449,2691,c),
(1449,2807,o),
(1358,2898,o),
(1242,2898,cs),
(1035,2898,l),
(828,2898,l),
(621,2898,l),
(414,2898,l),
(207,2898,ls),
(91,2898,o),
(0,2807,o),
(0,2691,cs),
(0,2575,o),
(91,2484,o),
(207,2484,cs),
(323,2484,o),
(414,2575,o),
(414,2691,c),
(621,2691,l),
(828,2691,l),
(828,2484,l),
(828,2277,l),
(828,2070,l),
(828,1863,l),
(828,1242,l),
(828,1035,l),
(828,828,l),
(828,621,l),
(828,414,l),
(828,207,l),
(621,207,l),
(414,207,l),
(414,323,o),
(323,414,o),
(207,414,cs),
(91,414,o),
(0,323,o),
(0,207,cs),
(0,91,o),
(91,0,o),
(207,0,cs)
);
},
{
closed = 1;
nodes = (
(323,414,o),
(414,505,o),
(414,621,cs),
(414,828,l),
(414,1035,l),
(414,1242,l),
(414,1863,l),
(414,2070,l),
(414,2277,ls),
(414,2393,o),
(323,2484,o),
(207,2484,cs),
(91,2484,o),
(0,2393,o),
(0,2277,cs),
(0,2161,o),
(91,2070,o),
(207,2070,c),
(207,1863,l),
(207,1242,l),
(207,1035,l),
(207,828,l),
(91,828,o),
(0,737,o),
(0,621,cs),
(0,505,o),
(91,414,o),
(207,414,cs)
);
},
{
closed = 1;
nodes = (
(1035,828,l),
(1035,1035,l),
(1035,1242,l),
(1035,1863,l),
(1035,2070,l),
(1035,2277,l),
(1035,2484,l),
(1035,2691,l),
(1242,2691,l),
(1242,2575,o),
(1333,2484,o),
(1449,2484,c),
(1449,2368,o),
(1540,2277,o),
(1656,2277,c),
(1656,2070,l),
(1656,1863,l),
(1656,1242,l),
(1656,1035,l),
(1656,828,l),
(1540,828,o),
(1449,737,o),
(1449,621,c),
(1449,737,o),
(1358,828,o),
(1242,828,cs),
(1126,828,o),
(1035,737,o),
(1035,621,c)
);
}
);
width = 2484;
},
{
anchors = (
{
name = bottom;
pos = (1242,0);
},
{
name = ogonek;
pos = (2236,10);
},
{
name = top;
pos = (828,3105);
}
);
layerId = m002;
shapes = (
{
closed = 1;
nodes = (
(414,0,l),
(621,0,l),
(828,0,ls),
(944,0,o),
(1035,91,o),
(1035,207,cs),
(1035,414,l),
(1151,414,o),
(1242,505,o),
(1242,621,c),
(1242,505,o),
(1333,414,o),
(1449,414,cs),
(1565,414,o),
(1656,505,o),
(1656,621,c),
(1656,414,l),
(1656,207,l),
(1656,0,l),
(1863,0,l),
(2070,0,ls),
(2186,0,o),
(2277,91,o),
(2277,207,cs),
(2277,414,l),
(2277,621,l),
(2277,828,l),
(2277,1035,l),
(2277,1242,l),
(2277,1863,l),
(2277,2070,ls),
(2277,2186,o),
(2186,2277,o),
(2070,2277,cs),
(1863,2277,l),
(1863,2393,o),
(1772,2484,o),
(1656,2484,c),
(1656,2600,o),
(1565,2691,o),
(1449,2691,c),
(1449,2807,o),
(1358,2898,o),
(1242,2898,cs),
(1035,2898,l),
(828,2898,l),
(621,2898,l),
(414,2898,l),
(207,2898,ls),
(91,2898,o),
(0,2807,o),
(0,2691,cs),
(0,2575,o),
(91,2484,o),
(207,2484,c),
(91,2484,o),
(0,2393,o),
(0,2277,cs),
(0,2161,o),
(91,2070,o),
(207,2070,c),
(207,1863,l),
(207,1242,l),
(207,1035,l),
(207,828,l),
(91,828,o),
(0,737,o),
(0,621,cs),
(0,505,o),
(91,414,o),
(207,414,c),
(91,414,o),
(0,323,o),
(0,207,cs),
(0,91,o),
(91,0,o),
(207,0,cs)
);
},
{
closed = 1;
nodes = (
(1035,828,l),
(1035,1035,l),
(1035,1242,l),
(1035,1863,l),
(1035,2070,l),
(1035,2277,l),
(1035,2484,l),
(1035,2691,l),
(1242,2691,l),
(1242,2575,o),
(1333,2484,o),
(1449,2484,c),
(1449,2368,o),
(1540,2277,o),
(1656,2277,c),
(1656,2070,l),
(1656,1863,l),
(1656,1242,l),
(1656,1035,l),
(1656,828,l),
(1540,828,o),
(1449,737,o),
(1449,621,c),
(1449,737,o),
(1358,828,o),
(1242,828,cs),
(1126,828,o),
(1035,737,o),
(1035,621,c)
);
}
);
width = 2484;
}
);
note = A;
unicode = (65,97);
}
{
glyphname = D;
layers = (
{
layerId = m01;
shapes = (
{
closed = 1;
nodes = (
(414,0,l),
(621,0,l),
(828,0,ls),
(944,0,o),
(1035,91,o),
(1035,207,c),
(1035,91,o),
(1126,0,o),
(1242,0,cs),
(1358,0,o),
(1449,91,o),
(1449,207,c),
(1449,91,o),
(1540,0,o),
(1656,0,cs),
(1863,0,ls),
(1979,0,o),
(2070,91,o),
(2070,207,c),
(2277,207,ls),
(2393,207,o),
(2484,298,o),
(2484,414,cs),
(2484,621,l),
(2484,828,l),
(2484,1035,l),
(2484,1656,l),
(2484,1863,l),
(2484,2070,l),
(2484,2277,l),
(2484,2484,ls),
(2484,2600,o),
(2393,2691,o),
(2277,2691,cs),
(2070,2691,l),
(2070,2807,o),
(1979,2898,o),
(1863,2898,cs),
(1656,2898,l),
(1449,2898,ls),
(1333,2898,o),
(1242,2807,o),
(1242,2691,c),
(1242,2807,o),
(1151,2898,o),
(1035,2898,cs),
(828,2898,l),
(621,2898,l),
(414,2898,l),
(207,2898,ls),
(91,2898,o),
(0,2807,o),
(0,2691,cs),
(0,2575,o),
(91,2484,o),
(207,2484,cs),
(323,2484,o),
(414,2575,o),
(414,2691,c),
(621,2691,l),
(828,2691,l),
(828,2484,l),
(828,2277,l),
(828,2070,l),
(828,1863,l),
(828,1656,l),
(828,1035,l),
(828,828,l),
(828,621,l),
(828,414,l),
(828,207,l),
(621,207,l),
(414,207,l),
(414,323,o),
(323,414,o),
(207,414,cs),
(91,414,o),
(0,323,o),
(0,207,cs),
(0,91,o),
(91,0,o),
(207,0,cs)
);
},
{
closed = 1;
nodes = (
(1242,323,o),
(1151,414,o),
(1035,414,c),
(1035,621,l),
(1035,828,l),
(1035,1035,l),
(1035,1656,l),
(1035,1863,l),
(1035,2070,l),
(1035,2277,l),
(1035,2484,l),
(1035,2691,l),
(1035,2575,o),
(1126,2484,o),
(1242,2484,cs),
(1358,2484,o),
(1449,2575,o),
(1449,2691,c),
(1656,2691,ls),
(1772,2691,o),
(1863,2600,o),
(1863,2484,cs),
(1863,2277,l),
(1863,2070,l),
(1863,1863,l),
(1863,1656,l),
(1863,1035,l),
(1863,828,l),
(1863,621,l),
(1863,414,ls),
(1863,298,o),
(1772,207,o),
(1656,207,c),
(1656,323,o),
(1565,414,o),
(1449,414,cs),
(1333,414,o),
(1242,323,o),
(1242,207,c)
);
},
{
closed = 1;
nodes = (
(323,414,o),
(414,505,o),
(414,621,cs),
(414,828,l),
(414,1035,l),
(414,1656,l),
(414,1863,l),
(414,2070,l),
(414,2277,ls),
(414,2393,o),
(323,2484,o),
(207,2484,cs),
(91,2484,o),
(0,2393,o),
(0,2277,cs),
(0,2161,o),
(91,2070,o),
(207,2070,c),
(207,1863,l),
(207,1656,l),
(207,1035,l),
(207,828,l),
(91,828,o),
(0,737,o),
(0,621,cs),
(0,505,o),
(91,414,o),
(207,414,cs)
);
},
{
closed = 1;
nodes = (
(2070,621,l),
(2070,828,l),
(2070,1035,l),
(2070,1656,l),
(2070,1863,l),
(2070,2070,l),
(2070,2277,l),
(2070,2484,l),
(2277,2484,l),
(2277,2277,l),
(2277,2070,l),
(2277,1863,l),
(2277,1656,l),
(2277,1035,l),
(2277,828,l),
(2277,621,l),
(2277,414,l),
(2070,414,l)
);
}
);
width = 2691;
},
{
anchors = (
{
name = bottom;
pos = (1346,0);
},
{
name = center;
pos = (673,1139);
},
{
name = top;
pos = (1346,2277);
}
);
layerId = m002;
shapes = (
{
closed = 1;
nodes = (
(414,0,l),
(621,0,l),
(828,0,ls),
(944,0,o),
(1035,91,o),
(1035,207,c),
(1035,91,o),
(1126,0,o),
(1242,0,cs),
(1358,0,o),
(1449,91,o),
(1449,207,c),
(1449,91,o),
(1540,0,o),
(1656,0,cs),
(1863,0,ls),
(1979,0,o),
(2070,91,o),
(2070,207,c),
(2277,207,ls),
(2393,207,o),
(2484,298,o),
(2484,414,cs),
(2484,621,l),
(2484,828,l),
(2484,1035,l),
(2484,1656,l),
(2484,1863,l),
(2484,2070,l),
(2484,2277,l),
(2484,2484,ls),
(2484,2600,o),
(2393,2691,o),
(2277,2691,cs),
(2070,2691,l),
(2070,2807,o),
(1979,2898,o),
(1863,2898,cs),
(1656,2898,l),
(1449,2898,ls),
(1333,2898,o),
(1242,2807,o),
(1242,2691,c),
(1242,2807,o),
(1151,2898,o),
(1035,2898,cs),
(828,2898,l),
(621,2898,l),
(414,2898,l),
(207,2898,ls),
(91,2898,o),
(0,2807,o),
(0,2691,cs),
(0,2575,o),
(91,2484,o),
(207,2484,c),
(91,2484,o),
(0,2393,o),
(0,2277,cs),
(0,2161,o),
(91,2070,o),
(207,2070,c),
(207,1863,l),
(207,1656,l),
(207,1035,l),
(207,828,l),
(91,828,o),
(0,737,o),
(0,621,cs),
(0,505,o),
(91,414,o),
(207,414,c),
(91,414,o),
(0,323,o),
(0,207,cs),
(0,91,o),
(91,0,o),
(207,0,cs)
);
},
{
closed = 1;
nodes = (
(1242,323,o),
(1151,414,o),
(1035,414,c),
(1035,621,l),
(1035,828,l),
(1035,1035,l),
(1035,1656,l),
(1035,1863,l),
(1035,2070,l),
(1035,2277,l),
(1035,2484,l),
(1035,2691,l),
(1035,2575,o),
(1126,2484,o),
(1242,2484,cs),
(1358,2484,o),
(1449,2575,o),
(1449,2691,c),
(1656,2691,ls),
(1772,2691,o),
(1863,2600,o),
(1863,2484,cs),
(1863,2277,l),
(1863,2070,l),
(1863,1863,l),
(1863,1656,l),
(1863,1035,l),
(1863,828,l),
(1863,621,l),
(1863,414,ls),
(1863,298,o),
(1772,207,o),
(1656,207,c),
(1656,323,o),
(1565,414,o),
(1449,414,cs),
(1333,414,o),
(1242,323,o),
(1242,207,c)
);
}
);
width = 2691;
}
);
note = D;
unicode = (68,100);
}
{
glyphname = F;
layers = (
{
layerId = m01;
shapes = (
{
closed = 1;
nodes = (
(207,207,l),
(0,207,l),
(0,91,o),
(91,0,o),
(207,0,c)
);
},
{
closed = 1;
nodes = (
(207,207,l),
(207,0,l),
(414,0,l),
(414,207,l)
);
},
{
closed = 1;
nodes = (
(414,207,l),
(414,0,l),
(621,0,l),
(621,207,l)
);
},
{
closed = 1;
nodes = (
(621,207,l),
(621,0,l),
(828,0,l),
(828,207,l)
);
},
{
closed = 1;
nodes = (
(828,0,l),
(944,0,o),
(1035,91,o),
(1035,207,c),
(828,207,l)
);
},
{
closed = 1;
nodes = (
(207,414,l),
(91,414,o),
(0,323,o),
(0,207,c),
(207,207,l)
);
},
{
closed = 1;
nodes = (
(207,207,l),
(414,207,l),
(414,323,o),
(323,414,o),
(207,414,c)
);
},
{
closed = 1;
nodes = (
(828,414,l),
(828,207,l),
(1035,207,l),
(1035,414,l)
);
},
{
closed = 1;
nodes = (
(207,621,l),
(0,621,l),
(0,505,o),
(91,414,o),
(207,414,c)
);
},
{
closed = 1;
nodes = (
(207,414,l),
(323,414,o),
(414,505,o),
(414,621,c),
(207,621,l)
);
},
{
closed = 1;
nodes = (
(828,621,l),
(828,414,l),
(1035,414,l),
(1035,621,l)
);
},
{
closed = 1;
nodes = (
(207,828,l),
(91,828,o),
(0,737,o),
(0,621,c),
(207,621,l)
);
},
{
closed = 1;
nodes = (
(207,828,l),
(207,621,l),
(414,621,l),
(414,828,l)
);
},
{
closed = 1;
nodes = (
(828,828,l),
(828,621,l),
(1035,621,l),
(1035,828,l)
);
},
{
closed = 1;
nodes = (
(414,1449,l),
(414,1656,l),
(414,2070,l),
(207,2070,l),
(207,1656,l),
(207,1449,l),
(207,1242,l),
(207,828,l),
(414,828,l),
(414,1242,l)
);
},
{
closed = 1;
nodes = (
(1035,1449,l),
(1242,1449,l),
(1242,1333,o),
(1333,1242,o),
(1449,1242,cs),
(1565,1242,o),
(1656,1333,o),
(1656,1449,cs),
(1656,1565,o),
(1565,1656,o),
(1449,1656,cs),
(1242,1656,l),
(1035,1656,l),
(1035,2070,l),
(828,2070,l),
(828,1656,l),
(828,1449,l),
(828,1242,l),
(828,828,l),
(1035,828,l),
(1035,1242,l)
);
},
{
closed = 1;
nodes = (
(207,2277,l),
(0,2277,l),
(0,2161,o),
(91,2070,o),
(207,2070,c)
);
},
{
closed = 1;
nodes = (
(207,2277,l),
(207,2070,l),
(414,2070,l),
(414,2277,l)
);
},
{
closed = 1;
nodes = (
(828,2277,l),
(828,2070,l),
(1035,2070,l),
(1035,2277,l)
);
},
{
closed = 1;
nodes = (
(1863,2277,l),
(1656,2277,l),
(1656,2161,o),
(1747,2070,o),
(1863,2070,c)
);
},
{
closed = 1;
nodes = (
(1863,2277,l),
(1863,2070,l),
(2070,2070,l),
(2070,2277,l)
);
},
{
closed = 1;
nodes = (
(2070,2070,l),
(2186,2070,o),
(2277,2161,o),
(2277,2277,c),
(2070,2277,l)
);
},
{
closed = 1;
nodes = (
(207,2484,l),
(91,2484,o),
(0,2393,o),
(0,2277,c),
(207,2277,l)
);
},
{
closed = 1;
nodes = (
(207,2277,l),
(414,2277,l),
(414,2393,o),
(323,2484,o),
(207,2484,c)
);
},
{
closed = 1;
nodes = (
(828,2484,l),
(828,2277,l),
(1035,2277,l),
(1035,2484,l)
);
},
{
closed = 1;
nodes = (
(1656,2484,l),
(1656,2277,l),
(1863,2277,l),
(1863,2484,l)
);
},
{
closed = 1;
nodes = (
(2070,2484,l),
(2070,2277,l),
(2277,2277,l),
(2277,2484,l)
);
},
{
closed = 1;
nodes = (
(207,2691,l),
(0,2691,l),
(0,2575,o),
(91,2484,o),
(207,2484,c)
);
},
{
closed = 1;
nodes = (
(207,2484,l),
(323,2484,o),
(414,2575,o),
(414,2691,c),
(207,2691,l)
);
},
{
closed = 1;
nodes = (
(828,2691,l),
(828,2484,l),
(1035,2484,l),
(1035,2691,l)
);
},
{
closed = 1;
nodes = (
(1242,2691,l),
(1035,2691,l),
(1035,2575,o),
(1126,2484,o),
(1242,2484,c)
);
},
{
closed = 1;
nodes = (
(1242,2484,l),
(1358,2484,o),
(1449,2575,o),
(1449,2691,c),
(1242,2691,l)
);
},
{
closed = 1;
nodes = (
(1449,2691,l),
(1565,2691,o),
(1656,2600,o),
(1656,2484,c),
(1656,2691,l)
);
},
{
closed = 1;
nodes = (
(1656,2691,l),
(1656,2484,l),
(1863,2484,l),
(1863,2691,l)
);
},
{
closed = 1;
nodes = (
(2070,2691,l),
(2070,2484,l),
(2277,2484,l),
(2277,2691,l)
);
},
{
closed = 1;
nodes = (
(207,2898,l),
(91,2898,o),
(0,2807,o),
(0,2691,c),
(207,2691,l)
);
},
{
closed = 1;
nodes = (
(207,2898,l),
(207,2691,l),
(414,2691,l),
(414,2898,l)
);
},
{
closed = 1;
nodes = (
(414,2898,l),
(414,2691,l),
(621,2691,l),
(621,2898,l)
);
},
{
closed = 1;
nodes = (
(621,2898,l),
(621,2691,l),
(828,2691,l),
(828,2898,l)
);
},
{
closed = 1;
nodes = (
(828,2898,l),
(828,2691,l),
(1035,2691,l),
(1035,2898,l)
);
},
{
closed = 1;
nodes = (
(1035,2691,l),
(1242,2691,l),
(1242,2807,o),
(1151,2898,o),
(1035,2898,c)
);
},
{
closed = 1;
nodes = (
(1449,2898,l),
(1333,2898,o),
(1242,2807,o),
(1242,2691,c),
(1449,2691,l)
);
},
{
closed = 1;
nodes = (
(1449,2898,l),
(1449,2691,l),
(1656,2691,l),
(1656,2898,l)
);
},
{
closed = 1;
nodes = (
(1656,2898,l),
(1656,2691,l),
(1863,2691,l),
(1863,2898,l)
);
},
{
closed = 1;
nodes = (
(1863,2898,l),
(1863,2691,l),
(2070,2691,l),
(2070,2898,l)
);
},
{
closed = 1;
nodes = (
(2070,2691,l),
(2277,2691,l),
(2277,2807,o),
(2186,2898,o),
(2070,2898,c)
);
}
);
width = 2484;
},
{
anchors = (
{
name = bottom;
pos = (1242,0);
},
{
name = top;
pos = (1242,2277);
}
);
layerId = m002;
shapes = (
{
closed = 1;
nodes = (
(414,0,l),
(621,0,l),
(828,0,ls),
(944,0,o),
(1035,91,o),
(1035,207,cs),
(1035,414,l),
(1035,621,l),
(1035,828,l),
(1035,1242,l),
(1035,1449,l),
(1242,1449,l),
(1242,1333,o),
(1333,1242,o),
(1449,1242,cs),
(1565,1242,o),
(1656,1333,o),
(1656,1449,cs),
(1656,1565,o),
(1565,1656,o),
(1449,1656,cs),
(1242,1656,l),
(1035,1656,l),
(1035,2070,l),
(1035,2277,l),
(1035,2484,l),
(1035,2691,l),
(1035,2575,o),
(1126,2484,o),
(1242,2484,cs),
(1358,2484,o),
(1449,2575,o),
(1449,2691,c),
(1565,2691,o),
(1656,2600,o),
(1656,2484,cs),
(1656,2277,ls),
(1656,2161,o),
(1747,2070,o),
(1863,2070,cs),
(2070,2070,ls),
(2186,2070,o),
(2277,2161,o),
(2277,2277,cs),
(2277,2484,l),
(2277,2691,ls),
(2277,2807,o),
(2186,2898,o),
(2070,2898,cs),
(1863,2898,l),
(1656,2898,l),
(1449,2898,ls),
(1333,2898,o),
(1242,2807,o),
(1242,2691,c),
(1242,2807,o),
(1151,2898,o),
(1035,2898,cs),
(828,2898,l),
(621,2898,l),
(414,2898,l),
(207,2898,ls),
(91,2898,o),
(0,2807,o),
(0,2691,cs),
(0,2575,o),
(91,2484,o),
(207,2484,c),
(91,2484,o),
(0,2393,o),
(0,2277,cs),
(0,2161,o),
(91,2070,o),
(207,2070,c),
(207,1656,l),
(207,1449,l),
(207,1242,l),
(207,828,l),
(91,828,o),
(0,737,o),
(0,621,cs),
(0,505,o),
(91,414,o),
(207,414,c),
(91,414,o),
(0,323,o),
(0,207,cs),
(0,91,o),
(91,0,o),
(207,0,cs)
);
}
);
width = 2484;
}
);
note = F;
unicode = (70,102);
}
{
glyphname = G;
layers = (
{
layerId = m01;
shapes = (
{
closed = 1;
nodes = (
(621,0,l),
(828,0,ls),
(944,0,o),
(1035,91,o),
(1035,207,c),
(1035,91,o),
(1126,0,o),
(1242,0,cs),
(1358,0,o),
(1449,91,o),
(1449,207,c),
(1449,91,o),
(1540,0,o),
(1656,0,cs),
(1863,0,l),
(2070,0,ls),
(2186,0,o),
(2277,91,o),
(2277,207,cs),
(2277,414,l),
(2277,621,l),
(2277,1242,l),
(2277,1449,ls),
(2277,1565,o),
(2186,1656,o),
(2070,1656,cs),
(1863,1656,l),
(1656,1656,l),
(1449,1656,ls),
(1333,1656,o),
(1242,1565,o),
(1242,1449,cs),
(1242,1333,o),
(1333,1242,o),
(1449,1242,cs),
(1565,1242,o),
(1656,1333,o),
(1656,1449,c),
(1656,1242,l),
(1656,621,l),
(1656,414,l),
(1656,207,l),
(1656,323,o),
(1565,414,o),
(1449,414,cs),
(1333,414,o),
(1242,323,o),
(1242,207,c),
(1242,323,o),
(1151,414,o),
(1035,414,c),
(1035,621,l),
(1035,828,l),
(1035,1035,l),
(1035,1242,l),
(1035,1863,l),
(1035,2070,l),
(1035,2277,l),
(1035,2484,l),
(1035,2691,l),
(1035,2575,o),
(1126,2484,o),
(1242,2484,cs),
(1358,2484,o),
(1449,2575,o),
(1449,2691,c),
(1565,2691,o),
(1656,2600,o),
(1656,2484,cs),
(1656,2277,ls),
(1656,2161,o),
(1747,2070,o),
(1863,2070,cs),
(2070,2070,ls),
(2186,2070,o),
(2277,2161,o),
(2277,2277,cs),
(2277,2484,l),
(2277,2691,ls),
(2277,2807,o),
(2186,2898,o),
(2070,2898,cs),
(1863,2898,l),
(1656,2898,l),
(1449,2898,ls),
(1333,2898,o),
(1242,2807,o),
(1242,2691,c),
(1242,2807,o),
(1151,2898,o),
(1035,2898,cs),
(828,2898,l),
(621,2898,l),
(414,2898,ls),
(298,2898,o),
(207,2807,o),
(207,2691,cs),
(207,2575,o),
(298,2484,o),
(414,2484,cs),
(530,2484,o),
(621,2575,o),
(621,2691,c),
(828,2691,l),
(828,2484,l),
(828,2277,l),
(828,2070,l),
(828,1863,l),
(828,1242,l),
(828,1035,l),
(828,828,l),
(828,621,l),
(828,414,l),
(828,207,l),
(621,207,l),
(621,323,o),
(530,414,o),
(414,414,cs),
(298,414,o),
(207,323,o),
(207,207,cs),
(207,91,o),
(298,0,o),
(414,0,cs)
);
},
{
closed = 1;
nodes = (
(1863,414,l),
(1863,621,l),
(1863,1242,l),
(1863,1449,l),
(2070,1449,l),
(2070,1242,l),
(2070,621,l),
(2070,414,l),
(2070,207,l),
(1863,207,l)
);
},
{
closed = 1;
nodes = (
(323,414,o),
(414,505,o),
(414,621,cs),
(414,828,l),
(414,1035,l),
(414,1242,l),
(414,1863,l),
(414,2070,l),
(414,2277,ls),
(414,2393,o),
(323,2484,o),
(207,2484,cs),
(91,2484,o),
(0,2393,o),
(0,2277,cs),
(0,2161,o),
(91,2070,o),
(207,2070,c),
(207,1863,l),
(207,1242,l),
(207,1035,l),
(207,828,l),
(91,828,o),
(0,737,o),
(0,621,cs),
(0,505,o),
(91,414,o),
(207,414,cs)
);
},
{
closed = 1;
nodes = (
(1863,2277,l),
(1863,2484,l),
(1863,2691,l),
(2070,2691,l),
(2070,2484,l),
(2070,2277,l)
);
}
);
width = 2484;
},
{
anchors = (
{
name = bottom;
pos = (1242,0);
},
{
name = top;
pos = (1242,2277);
}
);
layerId = m002;
shapes = (
{
closed = 1;
nodes = (
(621,0,l),
(828,0,ls),
(944,0,o),
(1035,91,o),
(1035,207,c),
(1035,91,o),
(1126,0,o),
(1242,0,cs),
(1358,0,o),
(1449,91,o),
(1449,207,c),
(1449,91,o),
(1540,0,o),
(1656,0,cs),
(1863,0,l),
(2070,0,ls),
(2186,0,o),
(2277,91,o),
(2277,207,cs),
(2277,414,l),
(2277,621,l),
(2277,1242,l),
(2277,1449,ls),
(2277,1565,o),
(2186,1656,o),
(2070,1656,cs),
(1863,1656,l),
(1656,1656,l),
(1449,1656,ls),
(1333,1656,o),
(1242,1565,o),
(1242,1449,cs),
(1242,1333,o),
(1333,1242,o),
(1449,1242,cs),
(1565,1242,o),
(1656,1333,o),
(1656,1449,c),
(1656,1242,l),
(1656,621,l),
(1656,414,l),
(1656,207,l),
(1656,323,o),
(1565,414,o),
(1449,414,cs),
(1333,414,o),
(1242,323,o),
(1242,207,c),
(1242,323,o),
(1151,414,o),
(1035,414,c),
(1035,621,l),
(1035,828,l),
(1035,1035,l),
(1035,1242,l),
(1035,1863,l),
(1035,2070,l),
(1035,2277,l),
(1035,2484,l),
(1035,2691,l),
(1035,2575,o),
(1126,2484,o),
(1242,2484,cs),
(1358,2484,o),
(1449,2575,o),
(1449,2691,c),
(1565,2691,o),
(1656,2600,o),
(1656,2484,cs),
(1656,2277,ls),
(1656,2161,o),
(1747,2070,o),
(1863,2070,cs),
(2070,2070,ls),
(2186,2070,o),
(2277,2161,o),
(2277,2277,cs),
(2277,2484,l),
(2277,2691,ls),
(2277,2807,o),
(2186,2898,o),
(2070,2898,cs),
(1863,2898,l),
(1656,2898,l),
(1449,2898,ls),
(1333,2898,o),
(1242,2807,o),
(1242,2691,c),
(1242,2807,o),
(1151,2898,o),
(1035,2898,cs),
(828,2898,l),
(621,2898,l),
(414,2898,ls),
(298,2898,o),
(207,2807,o),
(207,2691,cs),
(207,2484,l),
(91,2484,o),
(0,2393,o),
(0,2277,cs),
(0,2161,o),
(91,2070,o),
(207,2070,c),
(207,1863,l),
(207,1242,l),
(207,1035,l),
(207,828,l),
(91,828,o),
(0,737,o),
(0,621,cs),
(0,505,o),
(91,414,o),
(207,414,c),
(207,207,ls),
(207,91,o),
(298,0,o),
(414,0,cs)
);
}
);
width = 2484;
}
);
note = G;
unicode = (71,103);
}
{
glyphname = I;
layers = (
{
anchors = (
{
name = bottom;
pos = (725,0);
},
{
name = ogonek;
pos = (1304,10);
},
{
name = top;
pos = (621,3105);
},
{
name = topleft;
pos = (20,2277);
}
);
layerId = m01;
shapes = (
{
closed = 1;
nodes = (
(414,0,l),
(621,0,l),
(828,0,l),
(1035,0,ls),
(1151,0,o),
(1242,91,o),
(1242,207,cs),
(1242,414,ls),
(1242,530,o),
(1151,621,o),
(1035,621,cs),
(828,621,l),
(828,505,o),
(919,414,o),
(1035,414,c),
(1035,207,l),
(828,207,l),
(621,207,l),
(414,207,l),
(207,207,l),
(207,414,l),
(323,414,o),
(414,505,o),
(414,621,c),
(207,621,ls),
(91,621,o),
(0,530,o),
(0,414,cs),
(0,207,ls),
(0,91,o),
(91,0,o),
(207,0,cs)
);
},
{
closed = 1;
nodes = (
(737,414,o),
(828,505,o),
(828,621,cs),
(828,737,o),
(737,828,o),
(621,828,cs),
(505,828,o),
(414,737,o),
(414,621,cs),
(414,505,o),
(505,414,o),
(621,414,cs)
);
},
{
closed = 1;
nodes = (
(737,828,o),
(828,919,o),
(828,1035,cs),
(828,1242,l),
(828,1449,l),
(712,1449,o),
(621,1358,o),
(621,1242,c),
(621,1358,o),
(530,1449,o),
(414,1449,c),
(414,1242,l),
(414,1035,ls),
(414,919,o),
(505,828,o),
(621,828,cs)
);
},
{
closed = 1;
nodes = (
(530,1449,o),
(621,1540,o),
(621,1656,c),
(621,1540,o),
(712,1449,o),
(828,1449,c),
(828,1656,l),
(828,1863,ls),
(828,1979,o),
(737,2070,o),
(621,2070,cs),
(505,2070,o),
(414,1979,o),
(414,1863,cs),
(414,1656,l),
(414,1449,l)
);
},
{
closed = 1;
nodes = (
(737,2070,o),
(828,2161,o),
(828,2277,cs),
(828,2393,o),
(737,2484,o),
(621,2484,cs),
(505,2484,o),
(414,2393,o),
(414,2277,cs),
(414,2161,o),
(505,2070,o),
(621,2070,cs)
);
},
{
closed = 1;
nodes = (
(414,2277,l),
(414,2393,o),
(323,2484,o),
(207,2484,c),
(207,2691,l),
(414,2691,l),
(621,2691,l),
(828,2691,l),
(1035,2691,l),
(1035,2484,l),
(919,2484,o),
(828,2393,o),
(828,2277,c),
(1035,2277,ls),
(1151,2277,o),
(1242,2368,o),
(1242,2484,cs),
(1242,2691,ls),
(1242,2807,o),
(1151,2898,o),
(1035,2898,cs),
(828,2898,l),
(621,2898,l),
(414,2898,l),
(207,2898,ls),
(91,2898,o),
(0,2807,o),
(0,2691,cs),
(0,2484,ls),
(0,2368,o),
(91,2277,o),
(207,2277,cs)
);
}
);
width = 1449;
},
{
anchors = (
{
name = bottom;
pos = (725,0);
},
{
name = ogonek;
pos = (1304,10);
},
{
name = top;
pos = (621,3105);
},
{
name = topleft;
pos = (20,2277);
}
);
layerId = m002;
shapes = (
{
closed = 1;
nodes = (
(414,0,l),
(621,0,l),
(828,0,l),
(1035,0,ls),
(1151,0,o),
(1242,91,o),
(1242,207,cs),
(1242,414,ls),
(1242,530,o),
(1151,621,o),
(1035,621,cs),
(828,621,l),
(828,737,o),
(737,828,o),
(621,828,cs),
(505,828,o),
(414,737,o),
(414,621,c),
(207,621,ls),
(91,621,o),
(0,530,o),
(0,414,cs),
(0,207,ls),
(0,91,o),
(91,0,o),
(207,0,cs)
);
},
{
closed = 1;
nodes = (
(737,828,o),
(828,919,o),
(828,1035,cs),
(828,1242,l),
(828,1449,l),
(712,1449,o),
(621,1358,o),
(621,1242,c),
(621,1358,o),
(530,1449,o),
(414,1449,c),
(414,1242,l),
(414,1035,ls),
(414,919,o),
(505,828,o),
(621,828,cs)
);
},
{
closed = 1;
nodes = (
(530,1449,o),
(621,1540,o),
(621,1656,c),
(621,1540,o),
(712,1449,o),
(828,1449,c),
(828,1656,l),
(828,1863,ls),
(828,1979,o),
(737,2070,o),
(621,2070,cs),
(505,2070,o),
(414,1979,o),
(414,1863,cs),
(414,1656,l),
(414,1449,l)
);
},
{
closed = 1;
nodes = (
(737,2070,o),
(828,2161,o),
(828,2277,c),
(1035,2277,ls),
(1151,2277,o),
(1242,2368,o),
(1242,2484,cs),
(1242,2691,ls),
(1242,2807,o),
(1151,2898,o),
(1035,2898,cs),
(828,2898,l),
(621,2898,l),
(414,2898,l),
(207,2898,ls),
(91,2898,o),
(0,2807,o),
(0,2691,cs),
(0,2484,ls),
(0,2368,o),
(91,2277,o),
(207,2277,cs),
(414,2277,l),
(414,2161,o),
(505,2070,o),
(621,2070,cs)
);
}
);
width = 1449;
}
);
note = I;
unicode = (73,105);
}
{
glyphname = L;
layers = (
{
layerId = m01;
shapes = (
{
closed = 1;
nodes = (
(414,0,l),
(621,0,l),
(828,0,ls),
(944,0,o),
(1035,91,o),
(1035,207,c),
(1035,91,o),
(1126,0,o),
(1242,0,cs),
(1358,0,o),
(1449,91,o),
(1449,207,c),
(1449,91,o),
(1540,0,o),
(1656,0,cs),
(1772,0,o),
(1863,91,o),
(1863,207,c),
(1979,207,o),
(2070,298,o),
(2070,414,cs),
(2070,621,ls),
(2070,737,o),
(1979,828,o),
(1863,828,cs),
(1747,828,o),
(1656,737,o),
(1656,621,cs),
(1656,505,o),
(1747,414,o),
(1863,414,c),
(1747,414,o),
(1656,323,o),
(1656,207,c),
(1656,323,o),
(1565,414,o),
(1449,414,cs),
(1333,414,o),
(1242,323,o),
(1242,207,c),
(1242,323,o),
(1151,414,o),
(1035,414,c),
(1035,621,l),
(1035,828,l),
(1035,1035,l),
(1035,1242,l),
(1035,1863,l),
(1035,2070,l),
(1151,2070,o),
(1242,2161,o),
(1242,2277,cs),
(1242,2393,o),
(1151,2484,o),
(1035,2484,cs),
(919,2484,o),
(828,2393,o),
(828,2277,cs),
(828,2070,l),
(828,1863,l),
(828,1242,l),
(828,1035,l),
(828,828,l),
(828,621,l),
(828,414,l),
(828,207,l),
(621,207,l),
(414,207,l),
(414,323,o),
(323,414,o),
(207,414,cs),
(91,414,o),
(0,323,o),
(0,207,cs),
(0,91,o),
(91,0,o),
(207,0,cs)
);
},
{
closed = 1;
nodes = (
(323,414,o),
(414,505,o),
(414,621,cs),
(414,828,l),
(414,1035,l),
(414,1242,l),
(414,1863,l),
(414,2070,l),
(414,2277,ls),
(414,2393,o),
(323,2484,o),
(207,2484,cs),
(91,2484,o),
(0,2393,o),
(0,2277,cs),
(0,2161,o),
(91,2070,o),
(207,2070,c),
(207,1863,l),
(207,1242,l),
(207,1035,l),
(207,828,l),
(91,828,o),
(0,737,o),
(0,621,cs),
(0,505,o),
(91,414,o),
(207,414,cs)
);
},
{
closed = 1;
nodes = (
(323,2484,o),
(414,2575,o),
(414,2691,c),
(621,2691,l),
(828,2691,l),
(828,2575,o),
(919,2484,o),
(1035,2484,cs),
(1151,2484,o),
(1242,2575,o),
(1242,2691,cs),
(1242,2807,o),
(1151,2898,o),
(1035,2898,cs),
(828,2898,l),
(621,2898,l),
(414,2898,l),
(207,2898,ls),
(91,2898,o),
(0,2807,o),
(0,2691,cs),
(0,2575,o),
(91,2484,o),
(207,2484,cs)
);
}
);
width = 2277;
},
{
anchors = (
{
name = bottom;
pos = (1139,0);
},
{
name = center;
pos = (1139,1139);
},
{
name = top;
pos = (1139,2277);
},
{
name = topright;
pos = (2257,2277);
}
);
layerId = m002;
shapes = (
{
closed = 1;
nodes = (
(414,0,l),
(621,0,l),
(828,0,ls),
(944,0,o),
(1035,91,o),
(1035,207,c),
(1035,91,o),
(1126,0,o),
(1242,0,cs),
(1358,0,o),
(1449,91,o),
(1449,207,c),
(1449,91,o),
(1540,0,o),
(1656,0,cs),
(1772,0,o),
(1863,91,o),
(1863,207,c),
(1979,207,o),
(2070,298,o),
(2070,414,cs),
(2070,621,ls),
(2070,737,o),
(1979,828,o),
(1863,828,cs),
(1747,828,o),
(1656,737,o),
(1656,621,cs),
(1656,505,o),
(1747,414,o),
(1863,414,c),
(1747,414,o),
(1656,323,o),
(1656,207,c),
(1656,323,o),
(1565,414,o),
(1449,414,cs),
(1333,414,o),
(1242,323,o),
(1242,207,c),
(1242,323,o),
(1151,414,o),
(1035,414,c),
(1035,621,l),
(1035,828,l),
(1035,1035,l),
(1035,1242,l),
(1035,1863,l),
(1035,2070,l),
(1151,2070,o),
(1242,2161,o),
(1242,2277,cs),
(1242,2393,o),
(1151,2484,o),
(1035,2484,c),
(1151,2484,o),
(1242,2575,o),
(1242,2691,cs),
(1242,2807,o),
(1151,2898,o),
(1035,2898,cs),
(828,2898,l),
(621,2898,l),
(414,2898,l),
(207,2898,ls),
(91,2898,o),
(0,2807,o),
(0,2691,cs),
(0,2575,o),
(91,2484,o),
(207,2484,c),
(91,2484,o),
(0,2393,o),
(0,2277,cs),
(0,2161,o),
(91,2070,o),
(207,2070,c),
(207,1863,l),
(207,1242,l),
(207,1035,l),
(207,828,l),
(91,828,o),
(0,737,o),
(0,621,cs),
(0,505,o),
(91,414,o),
(207,414,c),
(91,414,o),
(0,323,o),
(0,207,cs),
(0,91,o),
(91,0,o),
(207,0,cs)
);
}
);
width = 2277;
}
);
note = L;
unicode = (76,108);
}
{
glyphname = O;
layers = (
{
anchors = (
{
name = bottom;
pos = (1553,0);
},
{
name = center;
pos = (1553,1139);
},
{
name = ogonek;
pos = (2795,10);
},
{
name = top;
pos = (1449,3105);
},
{
name = topleft;
pos = (20,2277);
}
);
layerId = m01;
shapes = (
{
closed = 1;
nodes = (
(621,0,l),
(828,0,l),
(1035,0,ls),
(1151,0,o),
(1242,91,o),
(1242,207,c),
(1242,91,o),
(1333,0,o),
(1449,0,cs),
(1565,0,o),
(1656,91,o),
(1656,207,c),
(1656,91,o),
(1747,0,o),
(1863,0,cs),
(2070,0,l),
(2277,0,l),
(2484,0,ls),
(2600,0,o),
(2691,91,o),
(2691,207,cs),
(2691,323,o),
(2600,414,o),
(2484,414,cs),
(2368,414,o),
(2277,323,o),
(2277,207,c),
(2070,207,l),
(2070,414,l),
(2070,621,l),
(2070,828,l),
(2070,1449,l),
(2070,1656,l),
(2070,1863,l),
(2070,2070,l),
(2070,2277,l),
(2070,2484,l),
(2070,2691,l),
(2277,2691,l),
(2277,2575,o),
(2368,2484,o),
(2484,2484,cs),
(2600,2484,o),
(2691,2575,o),
(2691,2691,cs),
(2691,2807,o),
(2600,2898,o),
(2484,2898,cs),
(2277,2898,l),
(2070,2898,l),
(1863,2898,ls),
(1747,2898,o),
(1656,2807,o),
(1656,2691,c),
(1656,2807,o),
(1565,2898,o),
(1449,2898,cs),
(1333,2898,o),
(1242,2807,o),
(1242,2691,c),
(1242,2807,o),
(1151,2898,o),
(1035,2898,cs),
(828,2898,l),
(621,2898,l),
(414,2898,ls),
(298,2898,o),
(207,2807,o),
(207,2691,cs),
(207,2575,o),
(298,2484,o),
(414,2484,cs),
(530,2484,o),
(621,2575,o),
(621,2691,c),
(828,2691,l),
(828,2484,l),
(828,2277,l),
(828,2070,l),
(828,1863,l),
(828,1656,l),
(828,1449,l),
(828,828,l),
(828,621,l),
(828,414,l),
(828,207,l),
(621,207,l),
(621,323,o),
(530,414,o),
(414,414,cs),
(298,414,o),
(207,323,o),
(207,207,cs),
(207,91,o),
(298,0,o),
(414,0,cs)
);
},
{
closed = 1;
nodes = (
(1035,414,l),
(1035,621,l),
(1035,828,l),
(1035,1449,l),
(1035,1656,l),
(1035,1863,l),
(1035,2070,l),
(1035,2277,l),
(1035,2484,l),
(1035,2691,l),
(1035,2575,o),
(1126,2484,o),
(1242,2484,cs),
(1358,2484,o),
(1449,2575,o),
(1449,2691,c),
(1449,2575,o),
(1540,2484,o),
(1656,2484,cs),
(1772,2484,o),
(1863,2575,o),
(1863,2691,c),
(1863,2484,l),
(1863,2277,l),
(1863,2070,l),
(1863,1863,l),
(1863,1656,l),
(1863,1449,l),
(1863,828,l),
(1863,621,l),
(1863,414,l),
(1863,207,l),
(1863,323,o),
(1772,414,o),
(1656,414,cs),
(1540,414,o),
(1449,323,o),
(1449,207,c),
(1449,323,o),
(1358,414,o),
(1242,414,cs),
(1126,414,o),
(1035,323,o),
(1035,207,c)
);
},
{
closed = 1;
nodes = (
(323,414,o),
(414,505,o),
(414,621,cs),
(414,828,l),
(414,1449,l),
(414,1656,l),
(414,1863,l),
(414,2070,l),
(414,2277,ls),
(414,2393,o),
(323,2484,o),
(207,2484,cs),
(91,2484,o),
(0,2393,o),
(0,2277,cs),
(0,2161,o),
(91,2070,o),
(207,2070,c),
(207,1863,l),
(207,1656,l),
(207,1449,l),
(207,828,l),
(91,828,o),
(0,737,o),
(0,621,cs),
(0,505,o),
(91,414,o),
(207,414,cs)
);
},
{
closed = 1;
nodes = (
(2807,414,o),
(2898,505,o),
(2898,621,cs),
(2898,737,o),
(2807,828,o),
(2691,828,c),
(2691,1449,l),
(2691,1656,l),
(2691,1863,l),
(2691,2070,l),
(2807,2070,o),
(2898,2161,o),
(2898,2277,cs),
(2898,2393,o),
(2807,2484,o),
(2691,2484,cs),
(2575,2484,o),
(2484,2393,o),
(2484,2277,cs),
(2484,2070,l),
(2484,1863,l),
(2484,1656,l),
(2484,1449,l),
(2484,828,l),
(2484,621,ls),
(2484,505,o),
(2575,414,o),
(2691,414,cs)
);
}
);
width = 3105;
},
{
anchors = (
{
name = bottom;
pos = (1553,0);
},
{
name = center;
pos = (1553,1139);
},
{
name = ogonek;
pos = (2795,10);
},
{
name = top;
pos = (1449,3105);
},
{
name = topleft;
pos = (20,2277);
},
{
name = topright;
pos = (3085,2277);
}
);
layerId = m002;
shapes = (
{
closed = 1;
nodes = (
(621,0,l),
(828,0,l),
(1035,0,ls),
(1151,0,o),
(1242,91,o),
(1242,207,c),
(1242,91,o),
(1333,0,o),
(1449,0,cs),
(1565,0,o),
(1656,91,o),
(1656,207,c),
(1656,91,o),
(1747,0,o),
(1863,0,cs),
(2070,0,l),
(2277,0,l),
(2484,0,ls),
(2600,0,o),
(2691,91,o),
(2691,207,cs),
(2691,414,l),
(2807,414,o),
(2898,505,o),
(2898,621,cs),
(2898,737,o),
(2807,828,o),
(2691,828,c),
(2691,1449,l),
(2691,1656,l),
(2691,1863,l),
(2691,2070,l),
(2807,2070,o),
(2898,2161,o),
(2898,2277,cs),
(2898,2393,o),
(2807,2484,o),
(2691,2484,c),
(2691,2691,ls),
(2691,2807,o),
(2600,2898,o),
(2484,2898,cs),
(2277,2898,l),
(2070,2898,l),
(1863,2898,ls),
(1747,2898,o),
(1656,2807,o),
(1656,2691,c),
(1656,2807,o),
(1565,2898,o),
(1449,2898,cs),
(1333,2898,o),
(1242,2807,o),
(1242,2691,c),
(1242,2807,o),
(1151,2898,o),
(1035,2898,cs),
(828,2898,l),
(621,2898,l),
(414,2898,ls),
(298,2898,o),
(207,2807,o),
(207,2691,cs),
(207,2484,l),
(91,2484,o),
(0,2393,o),
(0,2277,cs),
(0,2161,o),
(91,2070,o),
(207,2070,c),
(207,1863,l),
(207,1656,l),
(207,1449,l),
(207,828,l),
(91,828,o),
(0,737,o),
(0,621,cs),
(0,505,o),
(91,414,o),
(207,414,c),
(207,207,ls),
(207,91,o),
(298,0,o),
(414,0,cs)
);
},
{
closed = 1;
nodes = (
(1035,414,l),
(1035,621,l),
(1035,828,l),
(1035,1449,l),
(1035,1656,l),
(1035,1863,l),
(1035,2070,l),
(1035,2277,l),
(1035,2484,l),
(1035,2691,l),
(1035,2575,o),
(1126,2484,o),
(1242,2484,cs),
(1358,2484,o),
(1449,2575,o),
(1449,2691,c),
(1449,2575,o),
(1540,2484,o),
(1656,2484,cs),
(1772,2484,o),
(1863,2575,o),
(1863,2691,c),
(1863,2484,l),
(1863,2277,l),
(1863,2070,l),
(1863,1863,l),
(1863,1656,l),
(1863,1449,l),
(1863,828,l),
(1863,621,l),
(1863,414,l),
(1863,207,l),
(1863,323,o),
(1772,414,o),
(1656,414,cs),
(1540,414,o),
(1449,323,o),
(1449,207,c),
(1449,323,o),
(1358,414,o),
(1242,414,cs),
(1126,414,o),
(1035,323,o),
(1035,207,c)
);
}
);
width = 3105;
}
);
note = O;
unicode = (79,111);
}
{
glyphname = Q;
layers = (
{
layerId = m01;
shapes = (
{
closed = 1;
nodes = (
(414,207,l),
(207,207,l),
(207,91,o),
(298,0,o),
(414,0,c)
);
},
{
closed = 1;
nodes = (
(414,207,l),
(414,0,l),
(621,0,l),
(621,207,l)
);
},
{
closed = 1;
nodes = (
(621,207,l),
(621,0,l),
(828,0,l),
(828,207,l)
);
},
{
closed = 1;
nodes = (
(828,207,l),
(828,0,l),
(1035,0,l),
(1035,207,l)
);
},
{
closed = 1;
nodes = (
(1035,207,l),
(1035,0,l),
(1242,0,l),
(1242,207,l)
);
},
{
closed = 1;
nodes = (
(1242,0,l),
(1358,0,o),
(1449,91,o),
(1449,207,c),
(1242,207,l)
);
},
{
closed = 1;
nodes = (
(1863,207,l),
(1656,207,l),
(1656,91,o),
(1747,0,o),
(1863,0,c)
);
},
{
closed = 1;
nodes = (
(1863,207,l),
(1863,0,l),
(2070,0,l),
(2070,207,l)
);
},
{
closed = 1;
nodes = (
(2070,207,l),
(2070,0,l),
(2277,0,l),
(2277,207,l)
);
},
{
closed = 1;
nodes = (
(2277,207,l),
(2277,0,l),
(2484,0,l),
(2484,207,l)
);
},
{
closed = 1;
nodes = (
(2484,207,l),
(2484,0,l),
(2691,0,l),
(2691,207,l)
);
},
{
closed = 1;
nodes = (
(2691,0,l),
(2807,0,o),
(2898,91,o),
(2898,207,c),
(2691,207,l)
);
},
{
closed = 1;
nodes = (
(414,414,l),
(298,414,o),
(207,323,o),
(207,207,c),
(414,207,l)
);
},
{
closed = 1;
nodes = (
(414,207,l),
(621,207,l),
(621,323,o),
(530,414,o),
(414,414,c)
);
},
{
closed = 1;
nodes = (
(828,414,l),
(828,207,l),
(1035,207,l),
(1035,414,l)
);
},
{
closed = 1;
nodes = (
(1242,414,l),
(1126,414,o),
(1035,323,o),
(1035,207,c),
(1242,207,l)
);
},
{
closed = 1;
nodes = (
(1242,207,l),
(1449,207,l),
(1449,323,o),
(1358,414,o),
(1242,414,c)
);
},
{
closed = 1;
nodes = (
(1656,414,l),
(1449,414,l),
(1449,298,o),
(1540,207,o),
(1656,207,c)
);
},
{
closed = 1;
nodes = (
(1656,207,l),
(1863,207,l),
(1863,323,o),
(1772,414,o),
(1656,414,c)
);
},
{
closed = 1;
nodes = (
(2691,414,l),
(2575,414,o),
(2484,323,o),
(2484,207,c),
(2691,207,l)
);
},
{
closed = 1;
nodes = (
(2691,207,l),
(2898,207,l),
(2898,323,o),
(2807,414,o),
(2691,414,c)
);
},
{
closed = 1;
nodes = (
(207,621,l),
(0,621,l),
(0,505,o),
(91,414,o),
(207,414,c)
);
},
{
closed = 1;
nodes = (
(207,414,l),
(323,414,o),
(414,505,o),
(414,621,c),
(207,621,l)
);
},
{
closed = 1;
nodes = (
(828,621,l),
(828,414,l),
(1035,414,l),
(1035,621,l)
);
},
{
closed = 1;
nodes = (
(1449,621,l),
(1242,621,l),
(1242,505,o),
(1333,414,o),
(1449,414,c)
);
},
{
closed = 1;
nodes = (
(1449,621,l),
(1449,414,l),
(1656,414,l),
(1656,621,l)
);
},
{
closed = 1;
nodes = (
(2070,621,l),
(1863,621,l),
(1863,505,o),
(1954,414,o),
(2070,414,c)
);
},
{
closed = 1;
nodes = (
(2070,621,l),
(2070,414,l),
(2277,414,l),
(2277,621,l)
);
},
{
closed = 1;
nodes = (
(2277,414,l),
(2393,414,o),
(2484,505,o),
(2484,621,c),
(2277,621,l)
);
},
{
closed = 1;
nodes = (
(207,828,l),
(91,828,o),
(0,737,o),
(0,621,c),
(207,621,l)
);
},
{
closed = 1;
nodes = (
(207,828,l),
(207,621,l),
(414,621,l),
(414,828,l)
);
},
{
closed = 1;
nodes = (
(828,828,l),
(828,621,l),
(1035,621,l),
(1035,828,l)
);
},
{
closed = 1;
nodes = (
(1449,828,l),
(1333,828,o),
(1242,737,o),
(1242,621,c),
(1449,621,l)
);
},
{
closed = 1;
nodes = (
(1449,621,l),
(1656,621,l),
(1656,737,o),
(1565,828,o),
(1449,828,c)
);
},
{
closed = 1;
nodes = (
(1863,828,l),
(1863,621,l),
(2070,621,l),
(2070,828,l)
);
},
{
closed = 1;
nodes = (
(2484,828,l),
(2368,828,o),
(2277,737,o),
(2277,621,c),
(2484,621,l)
);
},
{
closed = 1;
nodes = (
(2484,621,l),
(2600,621,o),
(2691,712,o),
(2691,828,c),
(2484,828,l)
);
},
{
closed = 1;
nodes = (
(207,1035,l),
(207,828,l),
(414,828,l),
(414,1035,l)
);
},
{
closed = 1;
nodes = (
(828,1035,l),
(828,828,l),
(1035,828,l),
(1035,1035,l)
);
},
{
closed = 1;
nodes = (
(1863,1035,l),
(1863,828,l),
(2070,828,l),
(2070,1035,l)
);
},
{
closed = 1;
nodes = (
(2484,1035,l),
(2484,828,l),
(2691,828,l),
(2691,1035,l)
);
},
{
closed = 1;
nodes = (
(207,1242,l),
(207,1035,l),
(414,1035,l),
(414,1242,l)
);
},
{
closed = 1;
nodes = (
(828,1242,l),
(828,1035,l),
(1035,1035,l),
(1035,1242,l)
);
},
{
closed = 1;
nodes = (
(1863,1242,l),
(1863,1035,l),
(2070,1035,l),
(2070,1242,l)
);
},
{
closed = 1;
nodes = (
(2484,1242,l),
(2484,1035,l),
(2691,1035,l),
(2691,1242,l)
);
},
{
closed = 1;
nodes = (
(414,2070,l),
(414,2277,ls),
(414,2393,o),
(323,2484,o),
(207,2484,cs),
(91,2484,o),
(0,2393,o),
(0,2277,cs),
(0,2161,o),
(91,2070,o),
(207,2070,c),
(207,1863,l),
(207,1242,l),
(414,1242,l),
(414,1863,l)
);
},
{
closed = 1;
nodes = (
(1035,2070,l),
(1035,2277,l),
(1035,2484,l),
(1035,2691,l),
(1035,2575,o),
(1126,2484,o),
(1242,2484,cs),
(1358,2484,o),
(1449,2575,o),
(1449,2691,c),
(1449,2575,o),
(1540,2484,o),
(1656,2484,cs),
(1772,2484,o),
(1863,2575,o),
(1863,2691,c),
(1863,2484,l),
(1863,2277,l),
(1863,2070,l),
(1863,1863,l),
(1863,1242,l),
(2070,1242,l),
(2070,1863,l),
(2070,2070,l),
(2070,2277,l),
(2070,2484,l),
(2070,2691,l),
(2277,2691,l),
(2277,2575,o),
(2368,2484,o),
(2484,2484,cs),
(2600,2484,o),
(2691,2575,o),
(2691,2691,cs),
(2691,2807,o),
(2600,2898,o),
(2484,2898,cs),
(2277,2898,l),
(2070,2898,l),
(1863,2898,ls),
(1747,2898,o),
(1656,2807,o),
(1656,2691,c),
(1656,2807,o),
(1565,2898,o),
(1449,2898,cs),
(1333,2898,o),
(1242,2807,o),
(1242,2691,c),
(1242,2807,o),
(1151,2898,o),
(1035,2898,cs),
(828,2898,l),
(621,2898,l),
(414,2898,ls),
(298,2898,o),
(207,2807,o),
(207,2691,cs),
(207,2575,o),
(298,2484,o),
(414,2484,cs),
(530,2484,o),
(621,2575,o),
(621,2691,c),
(828,2691,l),
(828,2484,l),
(828,2277,l),
(828,2070,l),
(828,1863,l),
(828,1242,l),
(1035,1242,l),
(1035,1863,l)
);
},
{
closed = 1;
nodes = (
(2691,2070,l),
(2807,2070,o),
(2898,2161,o),
(2898,2277,cs),
(2898,2393,o),
(2807,2484,o),
(2691,2484,cs),
(2575,2484,o),
(2484,2393,o),
(2484,2277,cs),
(2484,2070,l),
(2484,1863,l),
(2484,1242,l),
(2691,1242,l),
(2691,1863,l)
);
}
);
width = 3105;
},
{
anchors = (
{
name = bottom;
pos = (1553,0);
},
{
name = top;
pos = (1553,2277);
}
);
layerId = m002;
shapes = (
{
closed = 1;
nodes = (
(621,0,l),
(828,0,l),
(1035,0,l),
(1242,0,ls),
(1358,0,o),
(1449,91,o),
(1449,207,cs),
(1449,323,o),
(1358,414,o),
(1242,414,cs),
(1126,414,o),
(1035,323,o),
(1035,207,c),
(1035,414,l),
(1035,621,l),
(1035,828,l),
(1035,1035,l),
(1035,1242,l),
(1035,1863,l),
(1035,2070,l),
(1035,2277,l),
(1035,2484,l),
(1035,2691,l),
(1035,2575,o),
(1126,2484,o),
(1242,2484,cs),
(1358,2484,o),
(1449,2575,o),
(1449,2691,c),
(1449,2575,o),
(1540,2484,o),
(1656,2484,cs),
(1772,2484,o),
(1863,2575,o),
(1863,2691,c),
(1863,2484,l),
(1863,2277,l),
(1863,2070,l),
(1863,1863,l),
(1863,1242,l),
(1863,1035,l),
(1863,828,l),
(1863,621,ls),
(1863,505,o),
(1954,414,o),
(2070,414,cs),
(2277,414,ls),
(2393,414,o),
(2484,505,o),
(2484,621,c),
(2600,621,o),
(2691,712,o),
(2691,828,cs),
(2691,1035,l),
(2691,1242,l),
(2691,1863,l),
(2691,2070,l),
(2807,2070,o),
(2898,2161,o),
(2898,2277,cs),
(2898,2393,o),
(2807,2484,o),
(2691,2484,c),
(2691,2691,ls),
(2691,2807,o),
(2600,2898,o),
(2484,2898,cs),
(2277,2898,l),
(2070,2898,l),
(1863,2898,ls),
(1747,2898,o),
(1656,2807,o),
(1656,2691,c),
(1656,2807,o),
(1565,2898,o),
(1449,2898,cs),
(1333,2898,o),
(1242,2807,o),
(1242,2691,c),
(1242,2807,o),
(1151,2898,o),
(1035,2898,cs),
(828,2898,l),
(621,2898,l),
(414,2898,ls),
(298,2898,o),
(207,2807,o),
(207,2691,cs),
(207,2484,l),
(91,2484,o),
(0,2393,o),
(0,2277,cs),
(0,2161,o),
(91,2070,o),
(207,2070,c),
(207,1863,l),
(207,1242,l),
(207,1035,l),
(207,828,l),
(91,828,o),
(0,737,o),
(0,621,cs),
(0,505,o),
(91,414,o),
(207,414,c),
(207,207,ls),
(207,91,o),
(298,0,o),
(414,0,cs)
);
},
{
closed = 1;
nodes = (
(2070,0,l),
(2277,0,l),
(2484,0,l),
(2691,0,ls),
(2807,0,o),
(2898,91,o),
(2898,207,cs),
(2898,323,o),
(2807,414,o),
(2691,414,cs),
(2575,414,o),
(2484,323,o),
(2484,207,c),
(2277,207,l),
(2070,207,l),
(1863,207,l),
(1863,323,o),
(1772,414,o),
(1656,414,c),
(1656,621,ls),
(1656,737,o),
(1565,828,o),
(1449,828,cs),
(1333,828,o),
(1242,737,o),
(1242,621,cs),
(1242,505,o),
(1333,414,o),
(1449,414,c),
(1449,298,o),
(1540,207,o),
(1656,207,c),
(1656,91,o),
(1747,0,o),
(1863,0,cs)
);
}
);
width = 3105;
}
);
note = Q;
unicode = (81,113);
}
{
glyphname = R;
layers = (
{
layerId = m01;
shapes = (
{
closed = 1;
nodes = (
(414,0,l),
(621,0,l),
(828,0,ls),
(944,0,o),
(1035,91,o),
(1035,207,cs),
(1035,414,l),
(1035,621,l),
(1035,828,l),
(1035,1035,l),
(1035,919,o),
(1126,828,o),
(1242,828,cs),
(1358,828,o),
(1449,919,o),
(1449,1035,c),
(1656,1035,l),
(1656,828,l),
(1656,621,l),
(1656,414,l),
(1656,207,ls),
(1656,91,o),
(1747,0,o),
(1863,0,cs),
(2070,0,l),
(2277,0,ls),
(2393,0,o),
(2484,91,o),
(2484,207,cs),
(2484,414,ls),
(2484,530,o),
(2393,621,o),
(2277,621,cs),
(2070,621,ls),
(1954,621,o),
(1863,712,o),
(1863,828,cs),
(1863,1035,ls),
(1863,1151,o),
(1772,1242,o),
(1656,1242,c),
(1863,1242,ls),
(1979,1242,o),
(2070,1333,o),
(2070,1449,c),
(2277,1449,ls),
(2393,1449,o),
(2484,1540,o),
(2484,1656,cs),
(2484,2277,l),
(2484,2484,ls),
(2484,2600,o),
(2393,2691,o),
(2277,2691,cs),
(2070,2691,l),
(1863,2691,l),
(1863,2807,o),
(1772,2898,o),
(1656,2898,cs),
(1540,2898,o),
(1449,2807,o),
(1449,2691,c),
(1449,2807,o),
(1358,2898,o),
(1242,2898,cs),
(1126,2898,o),
(1035,2807,o),
(1035,2691,c),
(1035,2807,o),
(944,2898,o),
(828,2898,cs),
(621,2898,l),
(414,2898,l),
(207,2898,ls),
(91,2898,o),
(0,2807,o),
(0,2691,cs),
(0,2575,o),
(91,2484,o),
(207,2484,cs),
(323,2484,o),
(414,2575,o),
(414,2691,c),
(621,2691,l),
(828,2691,l),
(828,2484,l),
(828,2277,l),
(828,1656,l),
(828,1449,l),
(828,1242,l),
(828,1035,l),
(828,828,l),
(828,621,l),
(828,414,l),
(828,207,l),
(621,207,l),
(414,207,l),
(414,323,o),
(323,414,o),
(207,414,cs),
(91,414,o),
(0,323,o),
(0,207,cs),
(0,91,o),
(91,0,o),
(207,0,cs)
);
},
{
closed = 1;
nodes = (
(1863,207,l),
(1863,414,l),
(2070,414,l),
(2277,414,l),
(2277,207,l),
(2070,207,l)
);
},
{
closed = 1;
nodes = (
(323,414,o),
(414,505,o),
(414,621,cs),
(414,828,l),
(414,1449,l),
(414,1656,l),
(414,1863,l),
(414,2070,l),
(414,2277,ls),
(414,2393,o),
(323,2484,o),
(207,2484,cs),
(91,2484,o),
(0,2393,o),
(0,2277,cs),
(0,2161,o),
(91,2070,o),
(207,2070,c),
(207,1863,l),
(207,1656,l),
(207,1449,l),
(207,828,l),
(91,828,o),
(0,737,o),
(0,621,cs),
(0,505,o),
(91,414,o),
(207,414,cs)
);
},
{
closed = 1;
nodes = (
(1242,1151,o),
(1151,1242,o),
(1035,1242,c),
(1151,1242,o),
(1242,1333,o),
(1242,1449,c),
(1242,1333,o),
(1333,1242,o),
(1449,1242,c),
(1333,1242,o),
(1242,1151,o),
(1242,1035,c)
);
},
{
closed = 1;
nodes = (
(1035,1656,l),
(1035,2277,l),
(1035,2484,l),
(1151,2484,o),
(1242,2575,o),
(1242,2691,c),
(1242,2575,o),
(1333,2484,o),
(1449,2484,cs),
(1565,2484,o),
(1656,2575,o),
(1656,2691,c),
(1656,2575,o),
(1747,2484,o),
(1863,2484,c),
(1863,2277,l),
(1863,1656,l),
(1863,1449,l),
(1656,1449,l),
(1449,1449,l),
(1449,1565,o),
(1358,1656,o),
(1242,1656,cs),
(1126,1656,o),
(1035,1565,o),
(1035,1449,c)
);
},
{
closed = 1;
nodes = (
(2070,2277,l),
(2070,2484,l),
(2277,2484,l),
(2277,2277,l),
(2277,1656,l),
(2070,1656,l)
);
}
);
width = 2691;
},
{
anchors = (
{
name = bottom;
pos = (1346,0);
},
{
name = top;
pos = (1346,2277);
}
);
layerId = m002;
shapes = (
{
closed = 1;
nodes = (
(414,0,l),
(621,0,l),
(828,0,ls),
(944,0,o),
(1035,91,o),
(1035,207,cs),
(1035,414,l),
(1035,621,l),
(1035,828,l),
(1035,1035,l),
(1035,919,o),
(1126,828,o),
(1242,828,cs),
(1358,828,o),
(1449,919,o),
(1449,1035,c),
(1656,1035,l),
(1656,828,l),
(1656,621,l),
(1656,414,l),
(1656,207,ls),
(1656,91,o),
(1747,0,o),
(1863,0,cs),
(2070,0,l),
(2277,0,ls),
(2393,0,o),
(2484,91,o),
(2484,207,cs),
(2484,414,ls),
(2484,530,o),
(2393,621,o),
(2277,621,cs),
(2070,621,ls),
(1954,621,o),
(1863,712,o),
(1863,828,cs),
(1863,1035,ls),
(1863,1151,o),
(1772,1242,o),
(1656,1242,c),
(1863,1242,ls),
(1979,1242,o),
(2070,1333,o),
(2070,1449,c),
(2277,1449,ls),
(2393,1449,o),
(2484,1540,o),
(2484,1656,cs),
(2484,2277,l),
(2484,2484,ls),
(2484,2600,o),
(2393,2691,o),
(2277,2691,cs),
(2070,2691,l),
(1863,2691,l),
(1863,2807,o),
(1772,2898,o),
(1656,2898,cs),
(1540,2898,o),
(1449,2807,o),
(1449,2691,c),
(1449,2807,o),
(1358,2898,o),
(1242,2898,cs),
(1126,2898,o),
(1035,2807,o),
(1035,2691,c),
(1035,2807,o),
(944,2898,o),
(828,2898,cs),
(621,2898,l),
(414,2898,l),
(207,2898,ls),
(91,2898,o),
(0,2807,o),
(0,2691,cs),
(0,2575,o),
(91,2484,o),
(207,2484,c),
(91,2484,o),
(0,2393,o),
(0,2277,cs),
(0,2161,o),
(91,2070,o),
(207,2070,c),
(207,1863,l),
(207,1656,l),
(207,1449,l),
(207,828,l),
(91,828,o),
(0,737,o),
(0,621,cs),
(0,505,o),
(91,414,o),
(207,414,c),
(91,414,o),
(0,323,o),
(0,207,cs),
(0,91,o),
(91,0,o),
(207,0,cs)
);
},
{
closed = 1;
nodes = (
(1242,1151,o),
(1151,1242,o),
(1035,1242,c),
(1151,1242,o),
(1242,1333,o),
(1242,1449,c),
(1242,1333,o),
(1333,1242,o),
(1449,1242,c),
(1333,1242,o),
(1242,1151,o),
(1242,1035,c)
);
},
{
closed = 1;
nodes = (
(1035,1656,l),
(1035,2277,l),
(1035,2484,l),
(1151,2484,o),
(1242,2575,o),
(1242,2691,c),
(1242,2575,o),
(1333,2484,o),
(1449,2484,cs),
(1565,2484,o),
(1656,2575,o),
(1656,2691,c),
(1656,2575,o),
(1747,2484,o),
(1863,2484,c),
(1863,2277,l),
(1863,1656,l),
(1863,1639,l),
(1863,1449,l),
(1656,1449,l),
(1449,1449,l),
(1449,1565,o),
(1358,1656,o),
(1242,1656,cs),
(1126,1656,o),
(1035,1565,o),
(1035,1449,c)
);
}
);
width = 2691;
}
);
note = R;
unicode = (82,114);
}
{
glyphname = S;
layers = (
{
layerId = m01;
shapes = (
{
closed = 1;
nodes = (
(737,0,o),
(828,91,o),
(828,207,c),
(828,91,o),
(919,0,o),
(1035,0,cs),
(1151,0,o),
(1242,91,o),
(1242,207,c),
(1242,91,o),
(1333,0,o),
(1449,0,cs),
(1565,0,o),
(1656,91,o),
(1656,207,c),
(1656,91,o),
(1747,0,o),
(1863,0,cs),
(1979,0,o),
(2070,91,o),
(2070,207,c),
(2484,207,ls),
(2600,207,o),
(2691,298,o),
(2691,414,cs),
(2691,621,l),
(2691,1035,l),
(2691,1242,ls),
(2691,1358,o),
(2600,1449,o),
(2484,1449,cs),
(2070,1449,l),
(2070,1565,o),
(1979,1656,o),
(1863,1656,cs),
(1747,1656,o),
(1656,1565,o),
(1656,1449,c),
(1656,1565,o),
(1565,1656,o),
(1449,1656,cs),
(1333,1656,o),
(1242,1565,o),
(1242,1449,c),
(1242,1565,o),
(1151,1656,o),
(1035,1656,cs),
(919,1656,o),
(828,1565,o),
(828,1449,c),
(828,1656,l),
(828,2070,l),
(828,2277,l),
(828,2484,l),
(828,2691,l),
(828,2575,o),
(919,2484,o),
(1035,2484,cs),
(1151,2484,o),
(1242,2575,o),
(1242,2691,c),
(1242,2575,o),
(1333,2484,o),
(1449,2484,cs),
(1565,2484,o),
(1656,2575,o),
(1656,2691,c),
(1863,2691,l),
(1863,2484,l),
(1863,2277,ls),
(1863,2161,o),
(1954,2070,o),
(2070,2070,cs),
(2277,2070,ls),
(2393,2070,o),
(2484,2161,o),
(2484,2277,cs),
(2484,2484,ls),
(2484,2600,o),
(2393,2691,o),
(2277,2691,cs),
(2070,2691,l),
(2070,2807,o),
(1979,2898,o),
(1863,2898,cs),
(1656,2898,ls),
(1540,2898,o),
(1449,2807,o),
(1449,2691,c),
(1449,2807,o),
(1358,2898,o),
(1242,2898,cs),
(1126,2898,o),
(1035,2807,o),
(1035,2691,c),
(1035,2807,o),
(944,2898,o),
(828,2898,cs),
(712,2898,o),
(621,2807,o),
(621,2691,c),
(207,2691,ls),
(91,2691,o),
(0,2600,o),
(0,2484,cs),
(0,2277,l),
(0,2070,l),
(0,1656,ls),
(0,1540,o),
(91,1449,o),
(207,1449,cs),
(621,1449,l),
(621,1333,o),
(712,1242,o),
(828,1242,cs),
(944,1242,o),
(1035,1333,o),
(1035,1449,c),
(1035,1333,o),
(1126,1242,o),
(1242,1242,cs),
(1358,1242,o),
(1449,1333,o),
(1449,1449,c),
(1449,1333,o),
(1540,1242,o),
(1656,1242,cs),
(1772,1242,o),
(1863,1333,o),
(1863,1449,c),
(1863,1242,l),
(1863,1035,l),
(1863,621,l),
(1863,414,l),
(1863,207,l),
(1863,323,o),
(1772,414,o),
(1656,414,cs),
(1540,414,o),
(1449,323,o),
(1449,207,c),
(1449,323,o),
(1358,414,o),
(1242,414,cs),
(1126,414,o),
(1035,323,o),
(1035,207,c),
(1035,323,o),
(944,414,o),
(828,414,cs),
(712,414,o),
(621,323,o),
(621,207,c),
(621,414,l),
(621,828,ls),
(621,944,o),
(530,1035,o),
(414,1035,cs),
(207,1035,ls),
(91,1035,o),
(0,944,o),
(0,828,cs),
(0,414,ls),
(0,298,o),
(91,207,o),
(207,207,cs),
(414,207,l),
(414,91,o),
(505,0,o),
(621,0,cs)
);
},
{
closed = 1;
nodes = (
(207,414,l),
(207,828,l),
(414,828,l),
(414,414,l)
);
},
{
closed = 1;
nodes = (
(2070,621,l),
(2070,1035,l),
(2070,1242,l),
(2484,1242,l),
(2484,1035,l),
(2484,621,l),
(2484,414,l),
(2070,414,l)
);
},
{
closed = 1;
nodes = (
(207,1656,l),
(207,2070,l),
(207,2277,l),
(207,2484,l),
(621,2484,l),
(621,2277,l),
(621,2070,l),
(621,1656,l)
);
},
{
closed = 1;
nodes = (
(2070,2277,l),
(2070,2484,l),
(2277,2484,l),
(2277,2277,l)
);
}
);
width = 2898;
},
{
layerId = m002;
shapes = (
{
closed = 1;
nodes = (
(737,0,o),
(828,91,o),
(828,207,c),
(828,91,o),
(919,0,o),
(1035,0,cs),
(1151,0,o),
(1242,91,o),
(1242,207,c),
(1242,91,o),
(1333,0,o),
(1449,0,cs),
(1565,0,o),
(1656,91,o),
(1656,207,c),
(1656,91,o),
(1747,0,o),
(1863,0,cs),
(1979,0,o),
(2070,91,o),
(2070,207,c),
(2484,207,ls),
(2600,207,o),
(2691,298,o),
(2691,414,cs),
(2691,621,l),
(2691,1035,l),
(2691,1242,ls),
(2691,1358,o),
(2600,1449,o),
(2484,1449,cs),
(2070,1449,l),
(2070,1565,o),
(1979,1656,o),
(1863,1656,cs),
(1747,1656,o),
(1656,1565,o),
(1656,1449,c),
(1656,1565,o),
(1565,1656,o),
(1449,1656,cs),
(1333,1656,o),
(1242,1565,o),
(1242,1449,c),
(1242,1565,o),
(1151,1656,o),
(1035,1656,cs),
(919,1656,o),
(828,1565,o),
(828,1449,c),
(828,1656,l),
(828,2070,l),
(828,2277,l),
(828,2484,l),
(828,2691,l),
(828,2575,o),
(919,2484,o),
(1035,2484,cs),
(1151,2484,o),
(1242,2575,o),
(1242,2691,c),
(1242,2575,o),
(1333,2484,o),
(1449,2484,cs),
(1565,2484,o),
(1656,2575,o),
(1656,2691,c),
(1863,2691,l),
(1863,2484,l),
(1863,2277,ls),
(1863,2161,o),
(1954,2070,o),
(2070,2070,cs),
(2277,2070,ls),
(2393,2070,o),
(2484,2161,o),
(2484,2277,cs),
(2484,2484,ls),
(2484,2600,o),
(2393,2691,o),
(2277,2691,cs),
(2070,2691,l),
(2070,2807,o),
(1979,2898,o),
(1863,2898,cs),
(1656,2898,ls),
(1540,2898,o),
(1449,2807,o),
(1449,2691,c),
(1449,2807,o),
(1358,2898,o),
(1242,2898,cs),
(1126,2898,o),
(1035,2807,o),
(1035,2691,c),
(1035,2807,o),
(944,2898,o),
(828,2898,cs),
(712,2898,o),
(621,2807,o),
(621,2691,c),
(207,2691,ls),
(91,2691,o),
(0,2600,o),
(0,2484,cs),
(0,2277,l),
(0,2070,l),
(0,1656,ls),
(0,1540,o),
(91,1449,o),
(207,1449,cs),
(621,1449,l),
(621,1333,o),
(712,1242,o),
(828,1242,cs),
(944,1242,o),
(1035,1333,o),
(1035,1449,c),
(1035,1333,o),
(1126,1242,o),
(1242,1242,cs),
(1358,1242,o),
(1449,1333,o),
(1449,1449,c),
(1449,1333,o),
(1540,1242,o),
(1656,1242,cs),
(1772,1242,o),
(1863,1333,o),
(1863,1449,c),
(1863,1242,l),
(1863,1035,l),
(1863,621,l),
(1863,414,l),
(1863,207,l),
(1863,323,o),
(1772,414,o),
(1656,414,cs),
(1540,414,o),
(1449,323,o),
(1449,207,c),
(1449,323,o),
(1358,414,o),
(1242,414,cs),
(1126,414,o),
(1035,323,o),
(1035,207,c),
(1035,323,o),
(944,414,o),
(828,414,cs),
(712,414,o),
(621,323,o),
(621,207,c),
(621,414,l),
(621,828,ls),
(621,944,o),
(530,1035,o),
(414,1035,cs),
(207,1035,ls),
(91,1035,o),
(0,944,o),
(0,828,cs),
(0,414,ls),
(0,298,o),
(91,207,o),
(207,207,cs),
(414,207,l),
(414,91,o),
(505,0,o),
(621,0,cs)
);
}
);
width = 2898;
}
);
note = S;
unicode = (83,115);
}
{
glyphname = T;
layers = (
{
layerId = m01;
shapes = (
{
closed = 1;
nodes = (
(1035,0,l),
(1242,0,l),
(1449,0,l),
(1656,0,ls),
(1772,0,o),
(1863,91,o),
(1863,207,cs),
(1863,323,o),
(1772,414,o),
(1656,414,cs),
(1540,414,o),
(1449,323,o),
(1449,207,c),
(1242,207,l),
(1035,207,l),
(1035,323,o),
(944,414,o),
(828,414,cs),
(712,414,o),
(621,323,o),
(621,207,cs),
(621,91,o),
(712,0,o),
(828,0,cs)
);
},
{
closed = 1;
nodes = (
(944,414,o),
(1035,505,o),
(1035,621,cs),
(1035,828,l),
(1035,1035,l),
(1035,1656,l),
(1035,1863,l),
(1035,2070,l),
(1035,2277,ls),
(1035,2393,o),
(944,2484,o),
(828,2484,cs),
(712,2484,o),
(621,2393,o),
(621,2277,cs),
(621,2161,o),
(712,2070,o),
(828,2070,c),
(828,1863,l),
(828,1656,l),
(828,1035,l),
(828,828,l),
(712,828,o),
(621,737,o),
(621,621,cs),
(621,505,o),
(712,414,o),
(828,414,cs)
);
},
{
closed = 1;
nodes = (
(1772,414,o),
(1863,505,o),
(1863,621,cs),
(1863,737,o),
(1772,828,o),
(1656,828,c),
(1656,1035,l),
(1656,1656,l),
(1656,1863,l),
(1656,2070,l),
(1772,2070,o),
(1863,2161,o),
(1863,2277,cs),
(1863,2393,o),
(1772,2484,o),
(1656,2484,cs),
(1540,2484,o),
(1449,2393,o),
(1449,2277,cs),
(1449,2070,l),
(1449,1863,l),
(1449,1656,l),
(1449,1035,l),
(1449,828,l),
(1449,621,ls),
(1449,505,o),
(1540,414,o),
(1656,414,cs)
);
},
{
closed = 1;
nodes = (
(414,2277,ls),
(530,2277,o),
(621,2368,o),
(621,2484,cs),
(621,2691,l),
(621,2575,o),
(712,2484,o),
(828,2484,cs),
(944,2484,o),
(1035,2575,o),
(1035,2691,c),
(1242,2691,l),
(1449,2691,l),
(1449,2575,o),
(1540,2484,o),
(1656,2484,cs),
(1772,2484,o),
(1863,2575,o),
(1863,2691,c),
(1863,2484,ls),
(1863,2368,o),
(1954,2277,o),
(2070,2277,cs),
(2277,2277,ls),
(2393,2277,o),
(2484,2368,o),
(2484,2484,cs),
(2484,2691,ls),
(2484,2807,o),
(2393,2898,o),
(2277,2898,cs),
(2070,2898,l),
(1863,2898,ls),
(1747,2898,o),
(1656,2807,o),
(1656,2691,c),
(1656,2807,o),
(1565,2898,o),
(1449,2898,cs),
(1242,2898,l),
(1035,2898,ls),
(919,2898,o),
(828,2807,o),
(828,2691,c),
(828,2807,o),
(737,2898,o),
(621,2898,cs),
(414,2898,l),
(207,2898,ls),
(91,2898,o),
(0,2807,o),
(0,2691,cs),
(0,2484,ls),
(0,2368,o),
(91,2277,o),
(207,2277,cs)
);
},
{
closed = 1;
nodes = (
(207,2484,l),
(207,2691,l),
(414,2691,l),
(414,2484,l)
);
},
{
closed = 1;
nodes = (
(2070,2484,l),
(2070,2691,l),
(2277,2691,l),
(2277,2484,l)
);
}
);
width = 2691;
},
{
anchors = (
{
name = bottom;
pos = (1346,0);
},
{
name = center;
pos = (1346,1139);
},
{
name = top;
pos = (1346,2277);
}
);
layerId = m002;
shapes = (
{
closed = 1;
nodes = (
(1035,0,l),
(1242,0,l),
(1449,0,l),
(1656,0,ls),
(1772,0,o),
(1863,91,o),
(1863,207,cs),
(1863,323,o),
(1772,414,o),
(1656,414,c),
(1772,414,o),
(1863,505,o),
(1863,621,cs),
(1863,737,o),
(1772,828,o),
(1656,828,c),
(1656,1035,l),
(1656,1656,l),
(1656,1863,l),
(1656,2070,l),
(1772,2070,o),
(1863,2161,o),
(1863,2277,cs),
(1863,2393,o),
(1772,2484,o),
(1656,2484,c),
(1772,2484,o),
(1863,2575,o),
(1863,2691,c),
(1863,2484,ls),
(1863,2368,o),
(1954,2277,o),
(2070,2277,cs),
(2277,2277,ls),
(2393,2277,o),
(2484,2368,o),
(2484,2484,cs),
(2484,2691,ls),
(2484,2807,o),
(2393,2898,o),
(2277,2898,cs),
(2070,2898,l),
(1863,2898,ls),
(1747,2898,o),
(1656,2807,o),
(1656,2691,c),
(1656,2807,o),
(1565,2898,o),
(1449,2898,cs),
(1242,2898,l),
(1035,2898,ls),
(919,2898,o),
(828,2807,o),
(828,2691,c),
(828,2807,o),
(737,2898,o),
(621,2898,cs),
(414,2898,l),
(207,2898,ls),
(91,2898,o),
(0,2807,o),
(0,2691,cs),
(0,2484,ls),
(0,2368,o),
(91,2277,o),
(207,2277,cs),
(414,2277,ls),
(530,2277,o),
(621,2368,o),
(621,2484,cs),
(621,2691,l),
(621,2575,o),
(712,2484,o),
(828,2484,c),
(712,2484,o),
(621,2393,o),
(621,2277,cs),
(621,2161,o),
(712,2070,o),
(828,2070,c),
(828,1863,l),
(828,1656,l),
(828,1035,l),
(828,828,l),
(712,828,o),
(621,737,o),
(621,621,cs),
(621,505,o),
(712,414,o),
(828,414,c),
(712,414,o),
(621,323,o),
(621,207,cs),
(621,91,o),
(712,0,o),
(828,0,cs)
);
}
);
width = 2691;
}
);
note = T;
unicode = (84,116);
}
{
glyphname = V;
layers = (
{
layerId = m01;
shapes = (
{
closed = 1;
nodes = (
(414,0,l),
(621,0,l),
(828,0,l),
(1035,0,l),
(1242,0,ls),
(1358,0,o),
(1449,91,o),
(1449,207,c),
(1565,207,o),
(1656,298,o),
(1656,414,c),
(1772,414,o),
(1863,505,o),
(1863,621,cs),
(1863,828,l),
(1863,1035,l),
(1863,1242,l),
(1863,1863,l),
(1863,2070,l),
(1863,2277,l),
(1863,2484,l),
(1863,2691,l),
(2070,2691,l),
(2070,2484,l),
(2070,2277,l),
(2070,2070,l),
(2070,1863,l),
(2070,1242,l),
(2070,1035,l),
(1954,1035,o),
(1863,944,o),
(1863,828,cs),
(1863,712,o),
(1954,621,o),
(2070,621,cs),
(2186,621,o),
(2277,712,o),
(2277,828,cs),
(2277,1035,l),
(2277,1242,l),
(2277,1863,l),
(2277,2070,l),
(2277,2277,l),
(2277,2484,l),
(2277,2691,ls),
(2277,2807,o),
(2186,2898,o),
(2070,2898,cs),
(1863,2898,ls),
(1747,2898,o),
(1656,2807,o),
(1656,2691,cs),
(1656,2484,l),
(1656,2277,l),
(1656,2070,l),
(1656,1863,l),
(1656,1242,l),
(1656,1035,l),
(1656,828,l),
(1656,621,l),
(1540,621,o),
(1449,530,o),
(1449,414,c),
(1333,414,o),
(1242,323,o),
(1242,207,c),
(1035,207,l),
(1035,414,l),
(1035,621,l),
(1035,828,l),
(1035,1035,l),
(1035,1242,l),
(1035,1863,l),
(1035,2070,l),
(1035,2277,l),
(1035,2484,l),
(1035,2691,l),
(1035,2898,l),
(828,2898,l),
(621,2898,l),
(414,2898,l),
(207,2898,ls),
(91,2898,o),
(0,2807,o),
(0,2691,cs),
(0,2575,o),
(91,2484,o),
(207,2484,cs),
(323,2484,o),
(414,2575,o),
(414,2691,c),
(621,2691,l),
(828,2691,l),
(828,2484,l),
(828,2277,l),
(828,2070,l),
(828,1863,l),
(828,1242,l),
(828,1035,l),
(828,828,l),
(828,621,l),
(828,414,l),
(828,207,l),
(621,207,l),
(414,207,l),
(414,323,o),
(323,414,o),
(207,414,cs),
(91,414,o),
(0,323,o),
(0,207,cs),
(0,91,o),
(91,0,o),
(207,0,cs)
);
},
{
closed = 1;
nodes = (
(323,414,o),
(414,505,o),
(414,621,cs),
(414,828,l),
(414,1035,l),
(414,1242,l),
(414,1863,l),
(414,2070,l),
(414,2277,ls),
(414,2393,o),
(323,2484,o),
(207,2484,cs),
(91,2484,o),
(0,2393,o),
(0,2277,cs),
(0,2161,o),
(91,2070,o),
(207,2070,c),
(207,1863,l),
(207,1242,l),
(207,1035,l),
(207,828,l),
(91,828,o),
(0,737,o),
(0,621,cs),
(0,505,o),
(91,414,o),
(207,414,cs)
);
}
);
width = 2484;
},
{
anchors = (
{
name = bottom;
pos = (1242,0);
},
{
name = top;
pos = (1242,2277);
}
);
layerId = m002;
shapes = (
{
closed = 1;
nodes = (
(414,0,l),
(621,0,l),
(828,0,l),
(1035,0,l),
(1242,0,ls),
(1358,0,o),
(1449,91,o),
(1449,207,c),
(1565,207,o),
(1656,298,o),
(1656,414,c),
(1772,414,o),
(1863,505,o),
(1863,621,c),
(2070,621,ls),
(2186,621,o),
(2277,712,o),
(2277,828,cs),
(2277,1035,l),
(2277,1242,l),
(2277,1863,l),
(2277,2070,l),
(2277,2277,l),
(2277,2484,l),
(2277,2691,ls),
(2277,2807,o),
(2186,2898,o),
(2070,2898,cs),
(1863,2898,ls),
(1747,2898,o),
(1656,2807,o),
(1656,2691,cs),
(1656,2484,l),
(1656,2277,l),
(1656,2070,l),
(1656,1863,l),
(1656,1242,l),
(1656,1035,l),
(1656,828,l),
(1656,621,l),
(1540,621,o),
(1449,530,o),
(1449,414,c),
(1333,414,o),
(1242,323,o),
(1242,207,c),
(1035,207,l),
(1035,414,l),
(1035,621,l),
(1035,828,l),
(1035,1035,l),
(1035,1242,l),
(1035,1863,l),
(1035,2070,l),
(1035,2277,l),
(1035,2484,l),
(1035,2691,l),
(1035,2898,l),
(828,2898,l),
(621,2898,l),
(414,2898,l),
(207,2898,ls),
(91,2898,o),
(0,2807,o),
(0,2691,cs),
(0,2575,o),
(91,2484,o),
(207,2484,c),
(91,2484,o),
(0,2393,o),
(0,2277,cs),
(0,2161,o),
(91,2070,o),
(207,2070,c),
(207,1863,l),
(207,1242,l),
(207,1035,l),
(207,828,l),
(91,828,o),
(0,737,o),
(0,621,cs),
(0,505,o),
(91,414,o),
(207,414,c),
(91,414,o),
(0,323,o),
(0,207,cs),
(0,91,o),
(91,0,o),
(207,0,cs)
);
}
);
width = 2484;
}
);
note = V;
unicode = (86,118);
}
{
glyphname = W;
layers = (
{
layerId = m01;
shapes = (
{
closed = 1;
nodes = (
(737,0,o),
(828,91,o),
(828,207,c),
(944,207,o),
(1035,298,o),
(1035,414,c),
(1151,414,o),
(1242,505,o),
(1242,621,c),
(1242,505,o),
(1333,414,o),
(1449,414,cs),
(1565,414,o),
(1656,505,o),
(1656,621,c),
(1656,505,o),
(1747,414,o),
(1863,414,c),
(1863,298,o),
(1954,207,o),
(2070,207,c),
(2070,91,o),
(2161,0,o),
(2277,0,cs),
(2393,0,o),
(2484,91,o),
(2484,207,c),
(2600,207,o),
(2691,298,o),
(2691,414,cs),
(2691,621,l),
(2691,828,l),
(2691,1035,l),
(2691,1656,l),
(2691,1863,l),
(2691,2070,l),
(2807,2070,o),
(2898,2161,o),
(2898,2277,cs),
(2898,2393,o),
(2807,2484,o),
(2691,2484,cs),
(2575,2484,o),
(2484,2393,o),
(2484,2277,cs),
(2484,2070,l),
(2484,1863,l),
(2484,1656,l),
(2484,1035,l),
(2484,828,l),
(2484,621,l),
(2484,414,l),
(2368,414,o),
(2277,323,o),
(2277,207,c),
(2277,323,o),
(2186,414,o),
(2070,414,c),
(2070,621,l),
(2070,828,l),
(2070,1035,l),
(2070,1656,l),
(2070,1863,l),
(2070,2070,l),
(2070,2277,l),
(2186,2277,o),
(2277,2368,o),
(2277,2484,c),
(2393,2484,o),
(2484,2575,o),
(2484,2691,c),
(2484,2575,o),
(2575,2484,o),
(2691,2484,cs),
(2807,2484,o),
(2898,2575,o),
(2898,2691,cs),
(2898,2807,o),
(2807,2898,o),
(2691,2898,cs),
(2484,2898,ls),
(2368,2898,o),
(2277,2807,o),
(2277,2691,c),
(2161,2691,o),
(2070,2600,o),
(2070,2484,c),
(1954,2484,o),
(1863,2393,o),
(1863,2277,cs),
(1863,2070,l),
(1863,1863,l),
(1863,1656,l),
(1863,1035,l),
(1863,828,l),
(1863,621,l),
(1863,737,o),
(1772,828,o),
(1656,828,cs),
(1540,828,o),
(1449,737,o),
(1449,621,c),
(1449,737,o),
(1358,828,o),
(1242,828,cs),
(1126,828,o),
(1035,737,o),
(1035,621,c),
(1035,828,l),
(1035,1035,l),
(1035,1656,l),
(1035,1863,l),
(1035,2070,l),
(1035,2277,ls),
(1035,2393,o),
(944,2484,o),
(828,2484,c),
(828,2600,o),
(737,2691,o),
(621,2691,c),
(621,2807,o),
(530,2898,o),
(414,2898,cs),
(207,2898,ls),
(91,2898,o),
(0,2807,o),
(0,2691,cs),
(0,2575,o),
(91,2484,o),
(207,2484,cs),
(323,2484,o),
(414,2575,o),
(414,2691,c),
(414,2575,o),
(505,2484,o),
(621,2484,c),
(621,2368,o),
(712,2277,o),
(828,2277,c),
(828,2070,l),
(828,1863,l),
(828,1656,l),
(828,1035,l),
(828,828,l),
(828,621,l),
(828,414,l),
(712,414,o),
(621,323,o),
(621,207,c),
(621,323,o),
(530,414,o),
(414,414,c),
(414,621,l),
(414,828,l),
(414,1035,l),
(414,1656,l),
(414,1863,l),
(414,2070,l),
(414,2277,ls),
(414,2393,o),
(323,2484,o),
(207,2484,cs),
(91,2484,o),
(0,2393,o),
(0,2277,cs),
(0,2161,o),
(91,2070,o),
(207,2070,c),
(207,1863,l),
(207,1656,l),
(207,1035,l),
(207,828,l),
(207,621,l),
(207,414,ls),
(207,298,o),
(298,207,o),
(414,207,c),
(414,91,o),
(505,0,o),
(621,0,cs)
);
},
{
closed = 1;
nodes = (
(1358,828,o),
(1449,919,o),
(1449,1035,c),
(1449,919,o),
(1540,828,o),
(1656,828,c),
(1656,1035,ls),
(1656,1151,o),
(1565,1242,o),
(1449,1242,cs),
(1333,1242,o),
(1242,1151,o),
(1242,1035,cs),
(1242,828,l)
);
},
{
closed = 1;
nodes = (
(1333,1656,o),
(1242,1565,o),
(1242,1449,cs),
(1242,1242,l),
(1358,1242,o),
(1449,1333,o),
(1449,1449,c),
(1449,1333,o),
(1540,1242,o),
(1656,1242,c),
(1656,1449,ls),
(1656,1565,o),
(1565,1656,o),
(1449,1656,cs)
);
},
{
closed = 1;
nodes = (
(1565,1656,o),
(1656,1747,o),
(1656,1863,cs),
(1656,1979,o),
(1565,2070,o),
(1449,2070,cs),
(1333,2070,o),
(1242,1979,o),
(1242,1863,cs),
(1242,1747,o),
(1333,1656,o),
(1449,1656,cs)
);
}
);
width = 3105;
},
{
anchors = (
{
name = bottom;
pos = (1553,0);
},
{
name = top;
pos = (1553,2277);
}
);
layerId = m002;
shapes = (
{
closed = 1;
nodes = (
(737,0,o),
(828,91,o),
(828,207,c),
(944,207,o),
(1035,298,o),
(1035,414,c),
(1151,414,o),
(1242,505,o),
(1242,621,c),
(1242,505,o),
(1333,414,o),
(1449,414,cs),
(1565,414,o),
(1656,505,o),
(1656,621,c),
(1656,505,o),
(1747,414,o),
(1863,414,c),
(1863,298,o),
(1954,207,o),
(2070,207,c),
(2070,91,o),
(2161,0,o),
(2277,0,cs),
(2393,0,o),
(2484,91,o),
(2484,207,c),
(2600,207,o),
(2691,298,o),
(2691,414,cs),
(2691,621,l),
(2691,828,l),
(2691,1035,l),
(2691,1656,l),
(2691,1863,l),
(2691,2070,l),
(2807,2070,o),
(2898,2161,o),
(2898,2277,cs),
(2898,2393,o),
(2807,2484,o),
(2691,2484,c),
(2807,2484,o),
(2898,2575,o),
(2898,2691,cs),
(2898,2807,o),
(2807,2898,o),
(2691,2898,cs),
(2484,2898,ls),
(2368,2898,o),
(2277,2807,o),
(2277,2691,c),
(2161,2691,o),
(2070,2600,o),
(2070,2484,c),
(1954,2484,o),
(1863,2393,o),
(1863,2277,cs),
(1863,2070,l),
(1863,1863,l),
(1863,1656,l),
(1863,1035,l),
(1863,828,l),
(1863,621,l),
(1863,737,o),
(1772,828,o),
(1656,828,cs),
(1540,828,o),
(1449,737,o),
(1449,621,c),
(1449,737,o),
(1358,828,o),
(1242,828,cs),
(1126,828,o),
(1035,737,o),
(1035,621,c),
(1035,828,l),
(1035,1035,l),
(1035,1656,l),
(1035,1863,l),
(1035,2070,l),
(1035,2277,ls),
(1035,2393,o),
(944,2484,o),
(828,2484,c),
(828,2600,o),
(737,2691,o),
(621,2691,c),
(621,2807,o),
(530,2898,o),
(414,2898,cs),
(207,2898,ls),
(91,2898,o),
(0,2807,o),
(0,2691,cs),
(0,2575,o),
(91,2484,o),
(207,2484,c),
(91,2484,o),
(0,2393,o),
(0,2277,cs),
(0,2161,o),
(91,2070,o),
(207,2070,c),
(207,1863,l),
(207,1656,l),
(207,1035,l),
(207,828,l),
(207,621,l),
(207,414,ls),
(207,298,o),
(298,207,o),
(414,207,c),
(414,91,o),
(505,0,o),
(621,0,cs)
);
},
{
closed = 1;
nodes = (
(1358,828,o),
(1449,919,o),
(1449,1035,c),
(1449,919,o),
(1540,828,o),
(1656,828,c),
(1656,1035,ls),
(1656,1151,o),
(1565,1242,o),
(1449,1242,cs),
(1333,1242,o),
(1242,1151,o),
(1242,1035,cs),
(1242,828,l)
);
},
{
closed = 1;
nodes = (
(1333,1656,o),
(1242,1565,o),
(1242,1449,cs),
(1242,1242,l),
(1358,1242,o),
(1449,1333,o),
(1449,1449,c),
(1449,1333,o),
(1540,1242,o),
(1656,1242,c),
(1656,1449,ls),
(1656,1565,o),
(1565,1656,o),
(1449,1656,cs)
);
},
{
closed = 1;
nodes = (
(1565,1656,o),
(1656,1747,o),
(1656,1863,cs),
(1656,1979,o),
(1565,2070,o),
(1449,2070,cs),
(1333,2070,o),
(1242,1979,o),
(1242,1863,cs),
(1242,1747,o),
(1333,1656,o),
(1449,1656,cs)
);
}
);
width = 3105;
}
);
note = W;
unicode = (87,119);
}
{
glyphname = X;
layers = (
{
layerId = m01;
shapes = (
{
closed = 1;
nodes = (
(414,0,l),
(621,0,ls),
(737,0,o),
(828,91,o),
(828,207,cs),
(828,621,ls),
(828,737,o),
(737,828,o),
(621,828,c),
(737,828,o),
(828,919,o),
(828,1035,c),
(944,1035,o),
(1035,1126,o),
(1035,1242,c),
(1035,1126,o),
(1126,1035,o),
(1242,1035,cs),
(1449,1035,l),
(1656,1035,l),
(1656,828,l),
(1656,414,l),
(1656,207,ls),
(1656,91,o),
(1747,0,o),
(1863,0,cs),
(2070,0,l),
(2277,0,ls),
(2393,0,o),
(2484,91,o),
(2484,207,cs),
(2484,323,o),
(2393,414,o),
(2277,414,cs),
(2161,414,o),
(2070,323,o),
(2070,207,c),
(1863,207,l),
(1863,414,l),
(1863,828,l),
(1863,1035,l),
(2070,1035,l),
(2070,621,ls),
(2070,505,o),
(2161,414,o),
(2277,414,cs),
(2393,414,o),
(2484,505,o),
(2484,621,cs),
(2484,737,o),
(2393,828,o),
(2277,828,c),
(2277,1035,ls),
(2277,1151,o),
(2186,1242,o),
(2070,1242,cs),
(1863,1242,l),
(1656,1242,ls),
(1540,1242,o),
(1449,1333,o),
(1449,1449,c),
(1333,1449,o),
(1242,1358,o),
(1242,1242,c),
(1242,1358,o),
(1151,1449,o),
(1035,1449,cs),
(919,1449,o),
(828,1358,o),
(828,1242,c),
(712,1242,o),
(621,1151,o),
(621,1035,c),
(505,1035,o),
(414,944,o),
(414,828,c),
(207,828,ls),
(91,828,o),
(0,737,o),
(0,621,cs),
(0,207,ls),
(0,91,o),
(91,0,o),
(207,0,cs)
);
},
{
closed = 1;
nodes = (
(207,207,l),
(207,621,l),
(414,621,l),
(621,621,l),
(621,207,l),
(414,207,l)
);
},
{
closed = 1;
nodes = (
(1151,1449,o),
(1242,1540,o),
(1242,1656,c),
(1242,1540,o),
(1333,1449,o),
(1449,1449,cs),
(1565,1449,o),
(1656,1540,o),
(1656,1656,c),
(1772,1656,o),
(1863,1747,o),
(1863,1863,c),
(2070,1863,l),
(2277,1863,ls),
(2393,1863,o),
(2484,1954,o),
(2484,2070,cs),
(2484,2484,l),
(2484,2691,ls),
(2484,2807,o),
(2393,2898,o),
(2277,2898,cs),
(2070,2898,ls),
(1954,2898,o),
(1863,2807,o),
(1863,2691,cs),
(1863,2484,l),
(1863,2070,l),
(1747,2070,o),
(1656,1979,o),
(1656,1863,c),
(1540,1863,o),
(1449,1772,o),
(1449,1656,c),
(1449,1772,o),
(1358,1863,o),
(1242,1863,cs),
(1035,1863,l),
(828,1863,l),
(828,2277,l),
(828,2484,l),
(828,2691,ls),
(828,2807,o),
(737,2898,o),
(621,2898,cs),
(414,2898,l),
(207,2898,ls),
(91,2898,o),
(0,2807,o),
(0,2691,cs),
(0,2575,o),
(91,2484,o),
(207,2484,cs),
(323,2484,o),
(414,2575,o),
(414,2691,c),
(621,2691,l),
(621,2484,l),
(621,2277,l),
(621,1863,l),
(414,1863,l),
(414,2277,ls),
(414,2393,o),
(323,2484,o),
(207,2484,cs),
(91,2484,o),
(0,2393,o),
(0,2277,cs),
(0,2161,o),
(91,2070,o),
(207,2070,c),
(207,1863,ls),
(207,1747,o),
(298,1656,o),
(414,1656,cs),
(621,1656,l),
(828,1656,ls),
(944,1656,o),
(1035,1565,o),
(1035,1449,c)
);
},
{
closed = 1;
nodes = (
(2070,2484,l),
(2070,2691,l),
(2277,2691,l),
(2277,2484,l),
(2277,2070,l),
(2070,2070,l)
);
}
);
width = 2691;
},
{
anchors = (
{
name = bottom;
pos = (1346,0);
},
{
name = top;
pos = (1346,2277);
}
);
layerId = m002;
shapes = (
{
closed = 1;
nodes = (
(414,0,l),
(621,0,ls),
(737,0,o),
(828,91,o),
(828,207,cs),
(828,621,ls),
(828,737,o),
(737,828,o),
(621,828,c),
(737,828,o),
(828,919,o),
(828,1035,c),
(944,1035,o),
(1035,1126,o),
(1035,1242,c),
(1035,1126,o),
(1126,1035,o),
(1242,1035,cs),
(1449,1035,l),
(1656,1035,l),
(1656,828,l),
(1656,414,l),
(1656,207,ls),
(1656,91,o),
(1747,0,o),
(1863,0,cs),
(2070,0,l),
(2277,0,ls),
(2393,0,o),
(2484,91,o),
(2484,207,cs),
(2484,323,o),
(2393,414,o),
(2277,414,c),
(2393,414,o),
(2484,505,o),
(2484,621,cs),
(2484,737,o),
(2393,828,o),
(2277,828,c),
(2277,1035,ls),
(2277,1151,o),
(2186,1242,o),
(2070,1242,cs),
(1863,1242,l),
(1656,1242,ls),
(1540,1242,o),
(1449,1333,o),
(1449,1449,c),
(1333,1449,o),
(1242,1358,o),
(1242,1242,c),
(1242,1358,o),
(1151,1449,o),
(1035,1449,cs),
(919,1449,o),
(828,1358,o),
(828,1242,c),
(712,1242,o),
(621,1151,o),
(621,1035,c),
(505,1035,o),
(414,944,o),
(414,828,c),
(207,828,ls),
(91,828,o),
(0,737,o),
(0,621,cs),
(0,207,ls),
(0,91,o),
(91,0,o),
(207,0,cs)
);
},
{
closed = 1;
nodes = (
(1151,1449,o),
(1242,1540,o),
(1242,1656,c),
(1242,1540,o),
(1333,1449,o),
(1449,1449,cs),
(1565,1449,o),
(1656,1540,o),
(1656,1656,c),
(1772,1656,o),
(1863,1747,o),
(1863,1863,c),
(2070,1863,l),
(2277,1863,ls),
(2393,1863,o),
(2484,1954,o),
(2484,2070,cs),
(2484,2484,l),
(2484,2691,ls),
(2484,2807,o),
(2393,2898,o),
(2277,2898,cs),
(2070,2898,ls),
(1954,2898,o),
(1863,2807,o),
(1863,2691,cs),
(1863,2484,l),
(1863,2070,l),
(1747,2070,o),
(1656,1979,o),
(1656,1863,c),
(1540,1863,o),
(1449,1772,o),
(1449,1656,c),
(1449,1772,o),
(1358,1863,o),
(1242,1863,cs),
(1035,1863,l),
(828,1863,l),
(828,2277,l),
(828,2484,l),
(828,2691,ls),
(828,2807,o),
(737,2898,o),
(621,2898,cs),
(414,2898,l),
(207,2898,ls),
(91,2898,o),
(0,2807,o),
(0,2691,cs),
(0,2575,o),
(91,2484,o),
(207,2484,c),
(91,2484,o),
(0,2393,o),
(0,2277,cs),
(0,2161,o),
(91,2070,o),
(207,2070,c),
(207,1863,ls),
(207,1747,o),
(298,1656,o),
(414,1656,cs),
(621,1656,l),
(828,1656,ls),
(944,1656,o),
(1035,1565,o),
(1035,1449,c)
);
}
);
width = 2691;
}
);
note = X;
unicode = (88,120);
}
{
glyphname = Z;
layers = (
{
layerId = m01;
shapes = (
{
closed = 1;
nodes = (
(414,0,l),
(621,0,l),
(828,0,l),
(1035,0,l),
(1242,0,l),
(1449,0,l),
(1656,0,l),
(1863,0,l),
(2070,0,l),
(2277,0,ls),
(2393,0,o),
(2484,91,o),
(2484,207,cs),
(2484,323,o),
(2393,414,o),
(2277,414,cs),
(2161,414,o),
(2070,323,o),
(2070,207,c),
(1863,207,l),
(1656,207,l),
(1449,207,l),
(1242,207,l),
(1035,207,l),
(828,207,l),
(621,207,l),
(414,207,l),
(414,323,o),
(323,414,o),
(207,414,cs),
(91,414,o),
(0,323,o),
(0,207,cs),
(0,91,o),
(91,0,o),
(207,0,cs)
);
},
{
closed = 1;
nodes = (
(323,414,o),
(414,505,o),
(414,621,cs),
(414,828,l),
(207,828,ls),
(91,828,o),
(0,737,o),
(0,621,cs),
(0,505,o),
(91,414,o),
(207,414,cs)
);
},
{
closed = 1;
nodes = (
(2393,414,o),
(2484,505,o),
(2484,621,cs),
(2484,737,o),
(2393,828,o),
(2277,828,cs),
(2070,828,l),
(1863,828,l),
(1656,828,l),
(1449,828,l),
(1242,828,l),
(1035,828,l),
(828,828,l),
(621,828,l),
(737,828,o),
(828,919,o),
(828,1035,cs),
(828,1242,l),
(828,1449,l),
(712,1449,o),
(621,1358,o),
(621,1242,cs),
(621,1035,l),
(505,1035,o),
(414,944,o),
(414,828,cs),
(414,712,o),
(505,621,o),
(621,621,cs),
(828,621,l),
(1035,621,l),
(1242,621,l),
(1449,621,l),
(1656,621,l),
(1863,621,l),
(2070,621,l),
(2070,505,o),
(2161,414,o),
(2277,414,cs)
);
},
{
closed = 1;
nodes = (
(1242,1242,l),
(1242,1358,o),
(1151,1449,o),
(1035,1449,c),
(1151,1449,o),
(1242,1540,o),
(1242,1656,c),
(1035,1656,ls),
(919,1656,o),
(828,1565,o),
(828,1449,cs),
(828,1333,o),
(919,1242,o),
(1035,1242,cs)
);
},
{
closed = 1;
nodes = (
(1565,1242,o),
(1656,1333,o),
(1656,1449,cs),
(1656,1565,o),
(1565,1656,o),
(1449,1656,cs),
(1242,1656,l),
(1242,1540,o),
(1333,1449,o),
(1449,1449,c),
(1333,1449,o),
(1242,1358,o),
(1242,1242,c),
(1449,1242,ls)
);
},
{
closed = 1;
nodes = (
(1656,1449,l),
(1772,1449,o),
(1863,1540,o),
(1863,1656,cs),
(1863,1863,l),
(1979,1863,o),
(2070,1954,o),
(2070,2070,cs),
(2070,2186,o),
(1979,2277,o),
(1863,2277,cs),
(1656,2277,l),
(1449,2277,l),
(1242,2277,l),
(1035,2277,l),
(828,2277,l),
(621,2277,l),
(414,2277,l),
(414,2393,o),
(323,2484,o),
(207,2484,cs),
(91,2484,o),
(0,2393,o),
(0,2277,cs),
(0,2161,o),
(91,2070,o),
(207,2070,cs),
(414,2070,l),
(621,2070,l),
(828,2070,l),
(1035,2070,l),
(1242,2070,l),
(1449,2070,l),
(1656,2070,l),
(1863,2070,l),
(1747,2070,o),
(1656,1979,o),
(1656,1863,cs),
(1656,1656,l)
);
},
{
closed = 1;
nodes = (
(323,2484,o),
(414,2575,o),
(414,2691,c),
(621,2691,l),
(828,2691,l),
(1035,2691,l),
(1242,2691,l),
(1449,2691,l),
(1656,2691,l),
(1863,2691,l),
(2070,2691,l),
(2070,2575,o),
(2161,2484,o),
(2277,2484,cs),
(2393,2484,o),
(2484,2575,o),
(2484,2691,cs),
(2484,2807,o),
(2393,2898,o),
(2277,2898,cs),
(2070,2898,l),
(1863,2898,l),
(1656,2898,l),
(1449,2898,l),
(1242,2898,l),
(1035,2898,l),
(828,2898,l),
(621,2898,l),
(414,2898,l),
(207,2898,ls),
(91,2898,o),
(0,2807,o),
(0,2691,cs),
(0,2575,o),
(91,2484,o),
(207,2484,cs)
);
},
{
closed = 1;
nodes = (
(2161,2484,o),
(2070,2393,o),
(2070,2277,cs),
(2070,2070,l),
(2277,2070,ls),
(2393,2070,o),
(2484,2161,o),
(2484,2277,cs),
(2484,2393,o),
(2393,2484,o),
(2277,2484,cs)
);
}
);
width = 2691;
},
{
anchors = (
{
name = bottom;
pos = (1346,0);
},
{
name = center;
pos = (1346,1139);
},
{
name = top;
pos = (1346,2277);
}
);
layerId = m002;
shapes = (
{
closed = 1;
nodes = (
(414,0,l),
(621,0,l),
(828,0,l),
(1035,0,l),
(1242,0,l),
(1449,0,l),
(1656,0,l),
(1863,0,l),
(2070,0,l),
(2277,0,ls),
(2393,0,o),
(2484,91,o),
(2484,207,cs),
(2484,323,o),
(2393,414,o),
(2277,414,c),
(2393,414,o),
(2484,505,o),
(2484,621,cs),
(2484,737,o),
(2393,828,o),
(2277,828,cs),
(2070,828,l),
(1863,828,l),
(1656,828,l),
(1449,828,l),
(1242,828,l),
(1035,828,l),
(828,828,l),
(621,828,l),
(737,828,o),
(828,919,o),
(828,1035,cs),
(828,1242,l),
(828,1449,l),
(712,1449,o),
(621,1358,o),
(621,1242,cs),
(621,1035,l),
(505,1035,o),
(414,944,o),
(414,828,c),
(207,828,ls),
(91,828,o),
(0,737,o),
(0,621,cs),
(0,505,o),
(91,414,o),
(207,414,c),
(91,414,o),
(0,323,o),
(0,207,cs),
(0,91,o),
(91,0,o),
(207,0,cs)
);
},
{
closed = 1;
nodes = (
(1242,1242,l),
(1242,1358,o),
(1151,1449,o),
(1035,1449,c),
(1151,1449,o),
(1242,1540,o),
(1242,1656,c),
(1035,1656,ls),
(919,1656,o),
(828,1565,o),
(828,1449,cs),
(828,1333,o),
(919,1242,o),
(1035,1242,cs)
);
},
{
closed = 1;
nodes = (
(1565,1242,o),
(1656,1333,o),
(1656,1449,cs),
(1656,1565,o),
(1565,1656,o),
(1449,1656,cs),
(1242,1656,l),
(1242,1540,o),
(1333,1449,o),
(1449,1449,c),
(1333,1449,o),
(1242,1358,o),
(1242,1242,c),
(1449,1242,ls)
);
},
{
closed = 1;
nodes = (
(1656,1449,l),
(1772,1449,o),
(1863,1540,o),
(1863,1656,cs),
(1863,1863,l),
(1979,1863,o),
(2070,1954,o),
(2070,2070,c),
(2277,2070,ls),
(2393,2070,o),
(2484,2161,o),
(2484,2277,cs),
(2484,2393,o),
(2393,2484,o),
(2277,2484,c),
(2393,2484,o),
(2484,2575,o),
(2484,2691,cs),
(2484,2807,o),
(2393,2898,o),
(2277,2898,cs),
(2070,2898,l),
(1863,2898,l),
(1656,2898,l),
(1449,2898,l),
(1242,2898,l),
(1035,2898,l),
(828,2898,l),
(621,2898,l),
(414,2898,l),
(207,2898,ls),
(91,2898,o),
(0,2807,o),
(0,2691,cs),
(0,2575,o),
(91,2484,o),
(207,2484,c),
(91,2484,o),
(0,2393,o),
(0,2277,cs),
(0,2161,o),
(91,2070,o),
(207,2070,cs),
(414,2070,l),
(621,2070,l),
(828,2070,l),
(1035,2070,l),
(1242,2070,l),
(1449,2070,l),
(1656,2070,l),
(1863,2070,l),
(1747,2070,o),
(1656,1979,o),
(1656,1863,cs),
(1656,1656,l)
);
}
);
width = 2691;
}
);
note = Z;
unicode = (90,122);
}
{
glyphname = backslash;
layers = (
{
layerId = m01;
shapes = (
{
closed = 1;
nodes = (
(2186,0,o),
(2277,91,o),
(2277,207,cs),
(2277,323,o),
(2186,414,o),
(2070,414,cs),
(1863,414,l),
(1656,414,l),
(1656,828,l),
(1656,1035,ls),
(1656,1151,o),
(1565,1242,o),
(1449,1242,cs),
(1242,1242,l),
(1242,1449,l),
(1242,1656,ls),
(1242,1772,o),
(1151,1863,o),
(1035,1863,cs),
(828,1863,l),
(828,2070,l),
(828,2484,ls),
(828,2600,o),
(737,2691,o),
(621,2691,cs),
(414,2691,l),
(414,2807,o),
(323,2898,o),
(207,2898,cs),
(91,2898,o),
(0,2807,o),
(0,2691,cs),
(0,2575,o),
(91,2484,o),
(207,2484,cs),
(414,2484,l),
(621,2484,l),
(621,2070,l),
(621,1863,ls),
(621,1747,o),
(712,1656,o),
(828,1656,cs),
(1035,1656,l),
(1035,1449,l),
(1035,1242,ls),
(1035,1126,o),
(1126,1035,o),
(1242,1035,cs),
(1449,1035,l),
(1449,828,l),
(1449,414,ls),
(1449,298,o),
(1540,207,o),
(1656,207,cs),
(1863,207,l),
(1863,91,o),
(1954,0,o),
(2070,0,cs)
);
}
);
width = 2691;
},
{
layerId = m002;
shapes = (
{
closed = 1;
nodes = (
(2186,0,o),
(2277,91,o),
(2277,207,cs),
(2277,323,o),
(2186,414,o),
(2070,414,cs),
(1863,414,l),
(1656,414,l),
(1656,828,l),
(1656,1035,ls),
(1656,1151,o),
(1565,1242,o),
(1449,1242,cs),
(1242,1242,l),
(1242,1449,l),
(1242,1656,ls),
(1242,1772,o),
(1151,1863,o),
(1035,1863,cs),
(828,1863,l),
(828,2070,l),
(828,2484,ls),
(828,2600,o),
(737,2691,o),
(621,2691,cs),
(414,2691,l),
(414,2807,o),
(323,2898,o),
(207,2898,cs),
(91,2898,o),
(0,2807,o),
(0,2691,cs),
(0,2575,o),
(91,2484,o),
(207,2484,cs),
(414,2484,l),
(621,2484,l),
(621,2070,l),
(621,1863,ls),
(621,1747,o),
(712,1656,o),
(828,1656,cs),
(1035,1656,l),
(1035,1449,l),
(1035,1242,ls),
(1035,1126,o),
(1126,1035,o),
(1242,1035,cs),
(1449,1035,l),
(1449,828,l),
(1449,414,ls),
(1449,298,o),
(1540,207,o),
(1656,207,cs),
(1863,207,l),
(1863,91,o),
(1954,0,o),
(2070,0,cs)
);
}
);
width = 2691;
}
);
note = backslash;
unicode = 92;
}
{
glyphname = bracketright;
layers = (
{
layerId = m01;
shapes = (
{
closed = 1;
nodes = (
(530,0,o),
(621,91,o),
(621,207,cs),
(621,323,o),
(530,414,o),
(414,414,cs),
(298,414,o),
(207,323,o),
(207,207,c),
(91,207,o),
(0,116,o),
(0,0,c),
(207,0,l),
(414,0,ls)
);
},
{
closed = 1;
nodes = (
(737,414,o),
(828,505,o),
(828,621,cs),
(828,737,o),
(737,828,o),
(621,828,c),
(621,1242,l),
(621,1126,o),
(712,1035,o),
(828,1035,cs),
(944,1035,o),
(1035,1126,o),
(1035,1242,cs),
(1035,1449,l),
(919,1449,o),
(828,1358,o),
(828,1242,c),
(828,1358,o),
(737,1449,o),
(621,1449,c),
(737,1449,o),
(828,1540,o),
(828,1656,c),
(828,1540,o),
(919,1449,o),
(1035,1449,c),
(1035,1656,ls),
(1035,1772,o),
(944,1863,o),
(828,1863,cs),
(712,1863,o),
(621,1772,o),
(621,1656,c),
(621,1863,l),
(621,2070,l),
(737,2070,o),
(828,2161,o),
(828,2277,cs),
(828,2393,o),
(737,2484,o),
(621,2484,cs),
(505,2484,o),
(414,2393,o),
(414,2277,cs),
(414,2070,l),
(414,1863,l),
(414,1656,l),
(414,1449,l),
(414,828,l),
(414,621,ls),
(414,505,o),
(505,414,o),
(621,414,cs)
);
},
{
closed = 1;
nodes = (
(530,2484,o),
(621,2575,o),
(621,2691,cs),
(621,2807,o),
(530,2898,o),
(414,2898,cs),
(207,2898,l),
(0,2898,l),
(0,2782,o),
(91,2691,o),
(207,2691,c),
(207,2575,o),
(298,2484,o),
(414,2484,cs)
);
}
);
width = 1242;
},
{
layerId = m002;
shapes = (
{
closed = 1;
nodes = (
(530,0,o),
(621,91,o),
(621,207,cs),
(621,323,o),
(530,414,o),
(414,414,cs),
(298,414,o),
(207,323,o),
(207,207,c),
(91,207,o),
(0,116,o),
(0,0,c),
(207,0,l),
(414,0,ls)
);
},
{
closed = 1;
nodes = (
(737,414,o),
(828,505,o),
(828,621,cs),
(828,737,o),
(737,828,o),
(621,828,c),
(621,1242,l),
(621,1126,o),
(712,1035,o),
(828,1035,cs),
(944,1035,o),
(1035,1126,o),
(1035,1242,cs),
(1035,1449,l),
(919,1449,o),
(828,1358,o),
(828,1242,c),
(828,1358,o),
(737,1449,o),
(621,1449,c),
(737,1449,o),
(828,1540,o),
(828,1656,c),
(828,1540,o),
(919,1449,o),
(1035,1449,c),
(1035,1656,ls),
(1035,1772,o),
(944,1863,o),
(828,1863,cs),
(712,1863,o),
(621,1772,o),
(621,1656,c),
(621,1863,l),
(621,2070,l),
(737,2070,o),
(828,2161,o),
(828,2277,cs),
(828,2393,o),
(737,2484,o),
(621,2484,cs),
(505,2484,o),
(414,2393,o),
(414,2277,cs),
(414,2070,l),
(414,1863,l),
(414,1656,l),
(414,1449,l),
(414,828,l),
(414,621,ls),
(414,505,o),
(505,414,o),
(621,414,cs)
);
},
{
closed = 1;
nodes = (
(530,2484,o),
(621,2575,o),
(621,2691,cs),
(621,2807,o),
(530,2898,o),
(414,2898,cs),
(207,2898,l),
(0,2898,l),
(0,2782,o),
(91,2691,o),
(207,2691,c),
(207,2575,o),
(298,2484,o),
(414,2484,cs)
);
}
);
width = 1242;
}
);
note = bracketright;
unicode = 93;
}
{
glyphname = grave;
layers = (
{
anchors = (
{
name = _top;
pos = (621,2277);
}
);
layerId = m01;
shapes = (
{
closed = 1;
nodes = (
(0,2898,l),
(0,2782,o),
(91,2691,o),
(207,2691,c),
(207,2575,o),
(298,2484,o),
(414,2484,c),
(414,2368,o),
(505,2277,o),
(621,2277,cs),
(828,2277,l),
(1035,2277,l),
(1035,2484,l),
(1035,2691,ls),
(1035,2807,o),
(944,2898,o),
(828,2898,cs),
(621,2898,ls),
(505,2898,o),
(414,2807,o),
(414,2691,c),
(414,2807,o),
(323,2898,o),
(207,2898,cs)
);
},
{
closed = 1;
nodes = (
(621,2691,l),
(828,2691,l),
(828,2484,l),
(621,2484,l)
);
}
);
width = 1035;
},
{
anchors = (
{
name = _top;
pos = (621,2277);
}
);
layerId = m002;
shapes = (
{
closed = 1;
nodes = (
(0,2898,l),
(0,2782,o),
(91,2691,o),
(207,2691,c),
(207,2575,o),
(298,2484,o),
(414,2484,c),
(414,2368,o),
(505,2277,o),
(621,2277,cs),
(828,2277,l),
(1035,2277,l),
(1035,2484,l),
(1035,2691,ls),
(1035,2807,o),
(944,2898,o),
(828,2898,cs),
(621,2898,ls),
(505,2898,o),
(414,2807,o),
(414,2691,c),
(414,2807,o),
(323,2898,o),
(207,2898,cs)
);
}
);
width = 1035;
}
);
unicode = 96;
}
{
glyphname = braceright;
layers = (
{
layerId = m01;
shapes = (
{
closed = 1;
nodes = (
(207,207,l),
(0,207,l),
(0,91,o),
(91,0,o),
(207,0,c)
);
},
{
closed = 1;
nodes = (
(207,207,l),
(207,0,l),
(414,0,l),
(414,207,l)
);
},
{
closed = 1;
nodes = (
(414,207,l),
(414,0,l),
(621,0,l),
(621,207,l)
);
},
{
closed = 1;
nodes = (
(621,207,l),
(621,0,l),
(828,0,l),
(828,207,l)
);
},
{
closed = 1;
nodes = (
(828,207,l),
(828,0,l),
(1035,0,l),
(1035,207,l)
);
},
{
closed = 1;
nodes = (
(1035,0,l),
(1151,0,o),
(1242,91,o),
(1242,207,c),
(1035,207,l)
);
},
{
closed = 1;
nodes = (
(207,414,l),
(91,414,o),
(0,323,o),
(0,207,c),
(207,207,l)
);
},
{
closed = 1;
nodes = (
(207,207,l),
(414,207,l),
(414,323,o),
(323,414,o),
(207,414,c)
);
},
{
closed = 1;
nodes = (
(414,414,l),
(414,207,l),
(621,207,l),
(621,414,l)
);
},
{
closed = 1;
nodes = (
(1035,414,l),
(919,414,o),
(828,323,o),
(828,207,c),
(1035,207,l)
);
},
{
closed = 1;
nodes = (
(1035,207,l),
(1242,207,l),
(1242,323,o),
(1151,414,o),
(1035,414,c)
);
},
{
closed = 1;
nodes = (
(414,621,l),
(414,414,l),
(621,414,l),
(621,621,l)
);
},
{
closed = 1;
nodes = (
(1035,621,l),
(828,621,l),
(828,505,o),
(919,414,o),
(1035,414,c)
);
},
{
closed = 1;
nodes = (
(1035,414,l),
(1151,414,o),
(1242,505,o),
(1242,621,c),
(1035,621,l)
);
},
{
closed = 1;
nodes = (
(414,828,l),
(414,621,l),
(621,621,l),
(621,828,l)
);
},
{
closed = 1;
nodes = (
(828,828,l),
(828,621,l),
(1035,621,l),
(1035,828,l)
);
},
{
closed = 1;
nodes = (
(1035,621,l),
(1242,621,l),
(1242,737,o),
(1151,828,o),
(1035,828,c)
);
},
{
closed = 1;
nodes = (
(414,1035,l),
(414,828,l),
(621,828,l),
(621,1035,l)
);
},
{
closed = 1;
nodes = (
(828,1035,l),
(828,828,l),
(1035,828,l),
(1035,1035,l)
);
},
{
closed = 1;
nodes = (
(621,1863,l),
(621,2070,l),
(621,2277,l),
(621,2484,l),
(621,2691,l),
(828,2691,l),
(828,2575,o),
(919,2484,o),
(1035,2484,cs),
(1151,2484,o),
(1242,2575,o),
(1242,2691,cs),
(1242,2807,o),
(1151,2898,o),
(1035,2898,cs),
(828,2898,l),
(621,2898,l),
(414,2898,l),
(207,2898,ls),
(91,2898,o),
(0,2807,o),
(0,2691,cs),
(0,2575,o),
(91,2484,o),
(207,2484,cs),
(323,2484,o),
(414,2575,o),
(414,2691,c),
(414,2484,l),
(414,2277,l),
(414,2070,l),
(414,1863,l),
(414,1656,l),
(414,1035,l),
(621,1035,l),
(621,1656,l)
);
},
{
closed = 1;
nodes = (
(1035,1863,l),
(1035,2070,l),
(1151,2070,o),
(1242,2161,o),
(1242,2277,cs),
(1242,2393,o),
(1151,2484,o),
(1035,2484,cs),
(919,2484,o),
(828,2393,o),
(828,2277,cs),
(828,2070,l),
(828,1863,l),
(828,1656,l),
(828,1035,l),
(1035,1035,l),
(1035,1656,l)
);
}
);
width = 1449;
},
{
layerId = m002;
shapes = (
{
closed = 1;
nodes = (
(414,0,l),
(621,0,l),
(828,0,l),
(1035,0,ls),
(1151,0,o),
(1242,91,o),
(1242,207,cs),
(1242,323,o),
(1151,414,o),
(1035,414,c),
(1151,414,o),
(1242,505,o),
(1242,621,cs),
(1242,737,o),
(1151,828,o),
(1035,828,c),
(1035,1035,l),
(1035,1656,l),
(1035,1863,l),
(1035,2070,l),
(1151,2070,o),
(1242,2161,o),
(1242,2277,cs),
(1242,2393,o),
(1151,2484,o),
(1035,2484,c),
(1151,2484,o),
(1242,2575,o),
(1242,2691,cs),
(1242,2807,o),
(1151,2898,o),
(1035,2898,cs),
(828,2898,l),
(621,2898,l),
(414,2898,l),
(207,2898,ls),
(91,2898,o),
(0,2807,o),
(0,2691,cs),
(0,2575,o),
(91,2484,o),
(207,2484,cs),
(323,2484,o),
(414,2575,o),
(414,2691,c),
(414,2484,l),
(414,2277,l),
(414,2070,l),
(414,1863,l),
(414,1656,l),
(414,1035,l),
(414,828,l),
(414,621,l),
(414,414,l),
(414,207,l),
(414,323,o),
(323,414,o),
(207,414,cs),
(91,414,o),
(0,323,o),
(0,207,cs),
(0,91,o),
(91,0,o),
(207,0,cs)
);
}
);
width = 1449;
}
);
note = braceright;
unicode = 125;
}
{
glyphname = guillemetleft;
layers = (
{
layerId = m01;
shapes = (
{
closed = 1;
nodes = (
(828,828,ls),
(828,944,o),
(737,1035,o),
(621,1035,c),
(621,1151,o),
(530,1242,o),
(414,1242,cs),
(207,1242,l),
(207,1126,o),
(298,1035,o),
(414,1035,c),
(414,919,o),
(505,828,o),
(621,828,c),
(621,712,o),
(712,621,o),
(828,621,c)
);
},
{
closed = 1;
nodes = (
(1449,828,ls),
(1449,944,o),
(1358,1035,o),
(1242,1035,c),
(1242,1151,o),
(1151,1242,o),
(1035,1242,c),
(1035,1449,l),
(1151,1449,o),
(1242,1540,o),
(1242,1656,c),
(1358,1656,o),
(1449,1747,o),
(1449,1863,cs),
(1449,2070,l),
(1333,2070,o),
(1242,1979,o),
(1242,1863,c),
(1126,1863,o),
(1035,1772,o),
(1035,1656,c),
(919,1656,o),
(828,1565,o),
(828,1449,cs),
(828,1242,ls),
(828,1126,o),
(919,1035,o),
(1035,1035,c),
(1035,919,o),
(1126,828,o),
(1242,828,c),
(1242,712,o),
(1333,621,o),
(1449,621,c)
);
},
{
closed = 1;
nodes = (
(207,1242,l),
(207,1449,l),
(207,1656,l),
(91,1656,o),
(0,1565,o),
(0,1449,cs),
(0,1242,ls),
(0,1126,o),
(91,1035,o),
(207,1035,c)
);
},
{
closed = 1;
nodes = (
(414,1449,ls),
(530,1449,o),
(621,1540,o),
(621,1656,c),
(737,1656,o),
(828,1747,o),
(828,1863,cs),
(828,2070,l),
(712,2070,o),
(621,1979,o),
(621,1863,c),
(505,1863,o),
(414,1772,o),
(414,1656,c),
(298,1656,o),
(207,1565,o),
(207,1449,c)
);
}
);
width = 1656;
},
{
layerId = m002;
shapes = (
{
closed = 1;
nodes = (
(828,828,ls),
(828,944,o),
(737,1035,o),
(621,1035,c),
(621,1151,o),
(530,1242,o),
(414,1242,cs),
(207,1242,l),
(207,1126,o),
(298,1035,o),
(414,1035,c),
(414,919,o),
(505,828,o),
(621,828,c),
(621,712,o),
(712,621,o),
(828,621,c)
);
},
{
closed = 1;
nodes = (
(1449,828,ls),
(1449,944,o),
(1358,1035,o),
(1242,1035,c),
(1242,1151,o),
(1151,1242,o),
(1035,1242,c),
(1035,1449,l),
(1151,1449,o),
(1242,1540,o),
(1242,1656,c),
(1358,1656,o),
(1449,1747,o),
(1449,1863,cs),
(1449,2070,l),
(1333,2070,o),
(1242,1979,o),
(1242,1863,c),
(1126,1863,o),
(1035,1772,o),
(1035,1656,c),
(919,1656,o),
(828,1565,o),
(828,1449,cs),
(828,1242,ls),
(828,1126,o),
(919,1035,o),
(1035,1035,c),
(1035,919,o),
(1126,828,o),
(1242,828,c),
(1242,712,o),
(1333,621,o),
(1449,621,c)
);
},
{
closed = 1;
nodes = (
(207,1242,l),
(207,1449,l),
(207,1656,l),
(91,1656,o),
(0,1565,o),
(0,1449,cs),
(0,1242,ls),
(0,1126,o),
(91,1035,o),
(207,1035,c)
);
},
{
closed = 1;
nodes = (
(414,1449,ls),
(530,1449,o),
(621,1540,o),
(621,1656,c),
(737,1656,o),
(828,1747,o),
(828,1863,cs),
(828,2070,l),
(712,2070,o),
(621,1979,o),
(621,1863,c),
(505,1863,o),
(414,1772,o),
(414,1656,c),
(298,1656,o),
(207,1565,o),
(207,1449,c)
);
}
);
width = 1656;
}
);
note = guillemetleft;
unicode = 171;
}
{
glyphname = guillemetright;
layers = (
{
layerId = m01;
shapes = (
{
closed = 1;
nodes = (
(621,1863,ls),
(621,1747,o),
(712,1656,o),
(828,1656,c),
(828,1540,o),
(919,1449,o),
(1035,1449,cs),
(1242,1449,l),
(1242,1565,o),
(1151,1656,o),
(1035,1656,c),
(1035,1772,o),
(944,1863,o),
(828,1863,c),
(828,1979,o),
(737,2070,o),
(621,2070,c)
);
},
{
closed = 1;
nodes = (
(0,1863,ls),
(0,1747,o),
(91,1656,o),
(207,1656,c),
(207,1540,o),
(298,1449,o),
(414,1449,c),
(414,1242,l),
(298,1242,o),
(207,1151,o),
(207,1035,c),
(91,1035,o),
(0,944,o),
(0,828,cs),
(0,621,l),
(116,621,o),
(207,712,o),
(207,828,c),
(323,828,o),
(414,919,o),
(414,1035,c),
(530,1035,o),
(621,1126,o),
(621,1242,cs),
(621,1449,ls),
(621,1565,o),
(530,1656,o),
(414,1656,c),
(414,1772,o),
(323,1863,o),
(207,1863,c),
(207,1979,o),
(116,2070,o),
(0,2070,c)
);
},
{
closed = 1;
nodes = (
(1242,1449,l),
(1242,1242,l),
(1242,1035,l),
(1358,1035,o),
(1449,1126,o),
(1449,1242,cs),
(1449,1449,ls),
(1449,1565,o),
(1358,1656,o),
(1242,1656,c)
);
},
{
closed = 1;
nodes = (
(1035,1242,ls),
(919,1242,o),
(828,1151,o),
(828,1035,c),
(712,1035,o),
(621,944,o),
(621,828,cs),
(621,621,l),
(737,621,o),
(828,712,o),
(828,828,c),
(944,828,o),
(1035,919,o),
(1035,1035,c),
(1151,1035,o),
(1242,1126,o),
(1242,1242,c)
);
}
);
width = 1656;
},
{
layerId = m002;
shapes = (
{
closed = 1;
nodes = (
(621,1863,ls),
(621,1747,o),
(712,1656,o),
(828,1656,c),
(828,1540,o),
(919,1449,o),
(1035,1449,cs),
(1242,1449,l),
(1242,1565,o),
(1151,1656,o),
(1035,1656,c),
(1035,1772,o),
(944,1863,o),
(828,1863,c),
(828,1979,o),
(737,2070,o),
(621,2070,c)
);
},
{
closed = 1;
nodes = (
(0,1863,ls),
(0,1747,o),
(91,1656,o),
(207,1656,c),
(207,1540,o),
(298,1449,o),
(414,1449,c),
(414,1242,l),
(298,1242,o),
(207,1151,o),
(207,1035,c),
(91,1035,o),
(0,944,o),
(0,828,cs),
(0,621,l),
(116,621,o),
(207,712,o),
(207,828,c),
(323,828,o),
(414,919,o),
(414,1035,c),
(530,1035,o),
(621,1126,o),
(621,1242,cs),
(621,1449,ls),
(621,1565,o),
(530,1656,o),
(414,1656,c),
(414,1772,o),
(323,1863,o),
(207,1863,c),
(207,1979,o),
(116,2070,o),
(0,2070,c)
);
},
{
closed = 1;
nodes = (
(1242,1449,l),
(1242,1242,l),
(1242,1035,l),
(1358,1035,o),
(1449,1126,o),
(1449,1242,cs),
(1449,1449,ls),
(1449,1565,o),
(1358,1656,o),
(1242,1656,c)
);
},
{
closed = 1;
nodes = (
(1035,1242,ls),
(919,1242,o),
(828,1151,o),
(828,1035,c),
(712,1035,o),
(621,944,o),
(621,828,cs),
(621,621,l),
(737,621,o),
(828,712,o),
(828,828,c),
(944,828,o),
(1035,919,o),
(1035,1035,c),
(1151,1035,o),
(1242,1126,o),
(1242,1242,c)
);
}
);
width = 1656;
}
);
note = guillemetright;
unicode = 187;
}
{
glyphname = quoteleft;
layers = (
{
layerId = m01;
shapes = (
{
closed = 1;
nodes = (
(621,2186,o),
(530,2277,o),
(414,2277,c),
(530,2277,o),
(621,2368,o),
(621,2484,cs),
(621,2691,ls),
(621,2807,o),
(530,2898,o),
(414,2898,cs),
(207,2898,l),
(0,2898,l),
(0,2691,l),
(0,2484,ls),
(0,2368,o),
(91,2277,o),
(207,2277,c),
(207,2161,o),
(298,2070,o),
(414,2070,c),
(414,1954,o),
(505,1863,o),
(621,1863,c),
(621,2070,ls)
);
},
{
closed = 1;
nodes = (
(207,2691,l),
(414,2691,l),
(414,2484,l),
(207,2484,l)
);
}
);
width = 828;
},
{
layerId = m002;
shapes = (
{
closed = 1;
nodes = (
(621,2186,o),
(530,2277,o),
(414,2277,c),
(530,2277,o),
(621,2368,o),
(621,2484,cs),
(621,2691,ls),
(621,2807,o),
(530,2898,o),
(414,2898,cs),
(207,2898,l),
(0,2898,l),
(0,2691,l),
(0,2484,ls),
(0,2368,o),
(91,2277,o),
(207,2277,c),
(207,2161,o),
(298,2070,o),
(414,2070,c),
(414,1954,o),
(505,1863,o),
(621,1863,c),
(621,2070,ls)
);
}
);
width = 828;
}
);
unicode = 8216;
}
{
glyphname = quotedblleft;
layers = (
{
layerId = m01;
shapes = (
{
closed = 1;
nodes = (
(621,2070,ls),
(621,2186,o),
(530,2277,o),
(414,2277,c),
(414,2393,o),
(323,2484,o),
(207,2484,c),
(207,2691,l),
(414,2691,l),
(414,2484,ls),
(414,2368,o),
(505,2277,o),
(621,2277,c),
(621,2161,o),
(712,2070,o),
(828,2070,c),
(828,1954,o),
(919,1863,o),
(1035,1863,c),
(1035,2070,ls),
(1035,2186,o),
(944,2277,o),
(828,2277,c),
(828,2393,o),
(737,2484,o),
(621,2484,c),
(621,2691,l),
(828,2691,l),
(828,2484,l),
(828,2277,l),
(944,2277,o),
(1035,2368,o),
(1035,2484,cs),
(1035,2691,ls),
(1035,2807,o),
(944,2898,o),
(828,2898,cs),
(621,2898,l),
(414,2898,l),
(207,2898,ls),
(91,2898,o),
(0,2807,o),
(0,2691,cs),
(0,2484,ls),
(0,2368,o),
(91,2277,o),
(207,2277,c),
(207,2161,o),
(298,2070,o),
(414,2070,c),
(414,1954,o),
(505,1863,o),
(621,1863,c)
);
}
);
width = 1242;
},
{
layerId = m002;
shapes = (
{
closed = 1;
nodes = (
(621,2070,ls),
(621,2186,o),
(530,2277,o),
(414,2277,c),
(414,2484,l),
(414,2368,o),
(505,2277,o),
(621,2277,c),
(621,2161,o),
(712,2070,o),
(828,2070,c),
(828,1954,o),
(919,1863,o),
(1035,1863,c),
(1035,2070,ls),
(1035,2186,o),
(944,2277,o),
(828,2277,c),
(944,2277,o),
(1035,2368,o),
(1035,2484,cs),
(1035,2691,ls),
(1035,2807,o),
(944,2898,o),
(828,2898,cs),
(621,2898,l),
(414,2898,l),
(207,2898,ls),
(91,2898,o),
(0,2807,o),
(0,2691,cs),
(0,2484,ls),
(0,2368,o),
(91,2277,o),
(207,2277,c),
(207,2161,o),
(298,2070,o),
(414,2070,c),
(414,1954,o),
(505,1863,o),
(621,1863,c)
);
}
);
width = 1242;
}
);
note = quotedblleft;
unicode = 8220;
}
{
glyphname = quotedblright;
layers = (
{
layerId = m01;
shapes = (
{
closed = 1;
nodes = (
(0,1863,l),
(116,1863,o),
(207,1954,o),
(207,2070,c),
(323,2070,o),
(414,2161,o),
(414,2277,c),
(530,2277,o),
(621,2368,o),
(621,2484,cs),
(621,2691,l),
(828,2691,l),
(828,2484,l),
(712,2484,o),
(621,2393,o),
(621,2277,c),
(505,2277,o),
(414,2186,o),
(414,2070,cs),
(414,1863,l),
(530,1863,o),
(621,1954,o),
(621,2070,c),
(737,2070,o),
(828,2161,o),
(828,2277,c),
(944,2277,o),
(1035,2368,o),
(1035,2484,cs),
(1035,2691,ls),
(1035,2807,o),
(944,2898,o),
(828,2898,cs),
(621,2898,l),
(414,2898,l),
(207,2898,ls),
(91,2898,o),
(0,2807,o),
(0,2691,cs),
(0,2484,ls),
(0,2368,o),
(91,2277,o),
(207,2277,c),
(91,2277,o),
(0,2186,o),
(0,2070,cs)
);
},
{
closed = 1;
nodes = (
(207,2484,l),
(207,2691,l),
(414,2691,l),
(414,2484,l)
);
}
);
width = 1242;
},
{
layerId = m002;
shapes = (
{
closed = 1;
nodes = (
(0,1863,l),
(116,1863,o),
(207,1954,o),
(207,2070,c),
(323,2070,o),
(414,2161,o),
(414,2277,c),
(530,2277,o),
(621,2368,o),
(621,2484,c),
(621,2277,l),
(505,2277,o),
(414,2186,o),
(414,2070,cs),
(414,1863,l),
(530,1863,o),
(621,1954,o),
(621,2070,c),
(737,2070,o),
(828,2161,o),
(828,2277,c),
(944,2277,o),
(1035,2368,o),
(1035,2484,cs),
(1035,2691,ls),
(1035,2807,o),
(944,2898,o),
(828,2898,cs),
(621,2898,l),
(414,2898,l),
(207,2898,ls),
(91,2898,o),
(0,2807,o),
(0,2691,cs),
(0,2484,ls),
(0,2368,o),
(91,2277,o),
(207,2277,c),
(91,2277,o),
(0,2186,o),
(0,2070,cs)
);
}
);
width = 1242;
}
);
note = quotedblright;
unicode = 8221;
}
{
glyphname = asterism;
layers = (
{
layerId = m01;
shapes = (
{
closed = 1;
nodes = (
(621,207,l),
(414,207,l),
(414,91,o),
(505,0,o),
(621,0,c)
);
},
{
closed = 1;
nodes = (
(1863,207,l),
(1656,207,l),
(1656,91,o),
(1747,0,o),
(1863,0,c)
);
},
{
closed = 1;
nodes = (
(0,207,l),
(116,207,o),
(207,298,o),
(207,414,c),
(0,414,l)
);
},
{
closed = 1;
nodes = (
(414,414,l),
(414,207,l),
(621,207,l),
(621,414,l)
);
},
{
closed = 1;
nodes = (
(1035,414,l),
(828,414,l),
(828,298,o),
(919,207,o),
(1035,207,c)
);
},
{
closed = 1;
nodes = (
(1242,207,l),
(1358,207,o),
(1449,298,o),
(1449,414,c),
(1242,414,l)
);
},
{
closed = 1;
nodes = (
(1656,414,l),
(1656,207,l),
(1863,207,l),
(1863,414,l)
);
},
{
closed = 1;
nodes = (
(2277,414,l),
(2070,414,l),
(2070,298,o),
(2161,207,o),
(2277,207,c)
);
},
{
closed = 1;
nodes = (
(207,621,l),
(91,621,o),
(0,530,o),
(0,414,c),
(207,414,l)
);
},
{
closed = 1;
nodes = (
(207,414,l),
(323,414,o),
(414,505,o),
(414,621,c),
(207,621,l)
);
},
{
closed = 1;
nodes = (
(414,621,l),
(414,414,l),
(621,414,l),
(621,621,l)
);
},
{
closed = 1;
nodes = (
(828,621,l),
(621,621,l),
(621,505,o),
(712,414,o),
(828,414,c)
);
},
{
closed = 1;
nodes = (
(828,414,l),
(1035,414,l),
(1035,530,o),
(944,621,o),
(828,621,c)
);
},
{
closed = 1;
nodes = (
(1449,621,l),
(1333,621,o),
(1242,530,o),
(1242,414,c),
(1449,414,l)
);
},
{
closed = 1;
nodes = (
(1449,414,l),
(1565,414,o),
(1656,505,o),
(1656,621,c),
(1449,621,l)
);
},
{
closed = 1;
nodes = (
(1656,621,l),
(1656,414,l),
(1863,414,l),
(1863,621,l)
);
},
{
closed = 1;
nodes = (
(2070,621,l),
(1863,621,l),
(1863,505,o),
(1954,414,o),
(2070,414,c)
);
},
{
closed = 1;
nodes = (
(2070,414,l),
(2277,414,l),
(2277,530,o),
(2186,621,o),
(2070,621,c)
);
},
{
closed = 1;
nodes = (
(207,828,l),
(0,828,l),
(0,712,o),
(91,621,o),
(207,621,c)
);
},
{
closed = 1;
nodes = (
(207,621,l),
(414,621,l),
(414,737,o),
(323,828,o),
(207,828,c)
);
},
{
closed = 1;
nodes = (
(414,828,l),
(414,621,l),
(621,621,l),
(621,828,l)
);
},
{
closed = 1;
nodes = (
(828,828,l),
(712,828,o),
(621,737,o),
(621,621,c),
(828,621,l)
);
},
{
closed = 1;
nodes = (
(828,621,l),
(944,621,o),
(1035,712,o),
(1035,828,c),
(828,828,l)
);
},
{
closed = 1;
nodes = (
(1449,828,l),
(1242,828,l),
(1242,712,o),
(1333,621,o),
(1449,621,c)
);
},
{
closed = 1;
nodes = (
(1449,621,l),
(1656,621,l),
(1656,737,o),
(1565,828,o),
(1449,828,c)
);
},
{
closed = 1;
nodes = (
(1656,828,l),
(1656,621,l),
(1863,621,l),
(1863,828,l)
);
},
{
closed = 1;
nodes = (
(2070,828,l),
(1954,828,o),
(1863,737,o),
(1863,621,c),
(2070,621,l)
);
},
{
closed = 1;
nodes = (
(2070,621,l),
(2186,621,o),
(2277,712,o),
(2277,828,c),
(2070,828,l)
);
},
{
closed = 1;
nodes = (
(0,828,l),
(207,828,l),
(207,944,o),
(116,1035,o),
(0,1035,c)
);
},
{
closed = 1;
nodes = (
(414,1035,l),
(414,828,l),
(621,828,l),
(621,1035,l)
);
},
{
closed = 1;
nodes = (
(1035,1035,l),
(919,1035,o),
(828,944,o),
(828,828,c),
(1035,828,l)
);
},
{
closed = 1;
nodes = (
(1242,828,l),
(1449,828,l),
(1449,944,o),
(1358,1035,o),
(1242,1035,c)
);
},
{
closed = 1;
nodes = (
(1656,1035,l),
(1656,828,l),
(1863,828,l),
(1863,1035,l)
);
},
{
closed = 1;
nodes = (
(2277,1035,l),
(2161,1035,o),
(2070,944,o),
(2070,828,c),
(2277,828,l)
);
},
{
closed = 1;
nodes = (
(414,1035,l),
(621,1035,l),
(621,1151,o),
(530,1242,o),
(414,1242,c)
);
},
{
closed = 1;
nodes = (
(1656,1035,l),
(1863,1035,l),
(1863,1151,o),
(1772,1242,o),
(1656,1242,c)
);
},
{
closed = 1;
nodes = (
(1242,1449,l),
(1035,1449,l),
(1035,1333,o),
(1126,1242,o),
(1242,1242,c)
);
},
{
closed = 1;
nodes = (
(621,1449,l),
(737,1449,o),
(828,1540,o),
(828,1656,c),
(621,1656,l)
);
},
{
closed = 1;
nodes = (
(1035,1656,l),
(1035,1449,l),
(1242,1449,l),
(1242,1656,l)
);
},
{
closed = 1;
nodes = (
(1656,1656,l),
(1449,1656,l),
(1449,1540,o),
(1540,1449,o),
(1656,1449,c)
);
},
{
closed = 1;
nodes = (
(828,1863,l),
(712,1863,o),
(621,1772,o),
(621,1656,c),
(828,1656,l)
);
},
{
closed = 1;
nodes = (
(828,1656,l),
(944,1656,o),
(1035,1747,o),
(1035,1863,c),
(828,1863,l)
);
},
{
closed = 1;
nodes = (
(1035,1863,l),
(1035,1656,l),
(1242,1656,l),
(1242,1863,l)
);
},
{
closed = 1;
nodes = (
(1449,1863,l),
(1242,1863,l),
(1242,1747,o),
(1333,1656,o),
(1449,1656,c)
);
},
{
closed = 1;
nodes = (
(1449,1656,l),
(1656,1656,l),
(1656,1772,o),
(1565,1863,o),
(1449,1863,c)
);
},
{
closed = 1;
nodes = (
(828,2070,l),
(621,2070,l),
(621,1954,o),
(712,1863,o),
(828,1863,c)
);
},
{
closed = 1;
nodes = (
(828,1863,l),
(1035,1863,l),
(1035,1979,o),
(944,2070,o),
(828,2070,c)
);
},
{
closed = 1;
nodes = (
(1035,2070,l),
(1035,1863,l),
(1242,1863,l),
(1242,2070,l)
);
},
{
closed = 1;
nodes = (
(1449,2070,l),
(1333,2070,o),
(1242,1979,o),
(1242,1863,c),
(1449,1863,l)
);
},
{
closed = 1;
nodes = (
(1449,1863,l),
(1565,1863,o),
(1656,1954,o),
(1656,2070,c),
(1449,2070,l)
);
},
{
closed = 1;
nodes = (
(621,2070,l),
(828,2070,l),
(828,2186,o),
(737,2277,o),
(621,2277,c)
);
},
{
closed = 1;
nodes = (
(1035,2277,l),
(1035,2070,l),
(1242,2070,l),
(1242,2277,l)
);
},
{
closed = 1;
nodes = (
(1656,2277,l),
(1540,2277,o),
(1449,2186,o),
(1449,2070,c),
(1656,2070,l)
);
},
{
closed = 1;
nodes = (
(1035,2277,l),
(1242,2277,l),
(1242,2393,o),
(1151,2484,o),
(1035,2484,c)
);
}
);
width = 2484;
},
{
layerId = m002;
shapes = (
{
closed = 1;
nodes = (
(621,207,l),
(414,207,l),
(414,91,o),
(505,0,o),
(621,0,c)
);
},
{
closed = 1;
nodes = (
(1863,207,l),
(1656,207,l),
(1656,91,o),
(1747,0,o),
(1863,0,c)
);
},
{
closed = 1;
nodes = (
(0,207,l),
(116,207,o),
(207,298,o),
(207,414,c),
(0,414,l)
);
},
{
closed = 1;
nodes = (
(414,414,l),
(414,207,l),
(621,207,l),
(621,414,l)
);
},
{
closed = 1;
nodes = (
(1035,414,l),
(828,414,l),
(828,298,o),
(919,207,o),
(1035,207,c)
);
},
{
closed = 1;
nodes = (
(1242,207,l),
(1358,207,o),
(1449,298,o),
(1449,414,c),
(1242,414,l)
);
},
{
closed = 1;
nodes = (
(1656,414,l),
(1656,207,l),
(1863,207,l),
(1863,414,l)
);
},
{
closed = 1;
nodes = (
(2277,414,l),
(2070,414,l),
(2070,298,o),
(2161,207,o),
(2277,207,c)
);
},
{
closed = 1;
nodes = (
(207,621,l),
(91,621,o),
(0,530,o),
(0,414,c),
(207,414,l)
);
},
{
closed = 1;
nodes = (
(207,414,l),
(323,414,o),
(414,505,o),
(414,621,c),
(207,621,l)
);
},
{
closed = 1;
nodes = (
(414,621,l),
(414,414,l),
(621,414,l),
(621,621,l)
);
},
{
closed = 1;
nodes = (
(828,621,l),
(621,621,l),
(621,505,o),
(712,414,o),
(828,414,c)
);
},
{
closed = 1;
nodes = (
(828,414,l),
(1035,414,l),
(1035,530,o),
(944,621,o),
(828,621,c)
);
},
{
closed = 1;
nodes = (
(1449,621,l),
(1333,621,o),
(1242,530,o),
(1242,414,c),
(1449,414,l)
);
},
{
closed = 1;
nodes = (
(1449,414,l),
(1565,414,o),
(1656,505,o),
(1656,621,c),
(1449,621,l)
);
},
{
closed = 1;
nodes = (
(1656,621,l),
(1656,414,l),
(1863,414,l),
(1863,621,l)
);
},
{
closed = 1;
nodes = (
(2070,621,l),
(1863,621,l),
(1863,505,o),
(1954,414,o),
(2070,414,c)
);
},
{
closed = 1;
nodes = (
(2070,414,l),
(2277,414,l),
(2277,530,o),
(2186,621,o),
(2070,621,c)
);
},
{
closed = 1;
nodes = (
(207,828,l),
(0,828,l),
(0,712,o),
(91,621,o),
(207,621,c)
);
},
{
closed = 1;
nodes = (
(207,621,l),
(414,621,l),
(414,737,o),
(323,828,o),
(207,828,c)
);
},
{
closed = 1;
nodes = (
(414,828,l),
(414,621,l),
(621,621,l),
(621,828,l)
);
},
{
closed = 1;
nodes = (
(828,828,l),
(712,828,o),
(621,737,o),
(621,621,c),
(828,621,l)
);
},
{
closed = 1;
nodes = (
(828,621,l),
(944,621,o),
(1035,712,o),
(1035,828,c),
(828,828,l)
);
},
{
closed = 1;
nodes = (
(1449,828,l),
(1242,828,l),
(1242,712,o),
(1333,621,o),
(1449,621,c)
);
},
{
closed = 1;
nodes = (
(1449,621,l),
(1656,621,l),
(1656,737,o),
(1565,828,o),
(1449,828,c)
);
},
{
closed = 1;
nodes = (
(1656,828,l),
(1656,621,l),
(1863,621,l),
(1863,828,l)
);
},
{
closed = 1;
nodes = (
(2070,828,l),
(1954,828,o),
(1863,737,o),
(1863,621,c),
(2070,621,l)
);
},
{
closed = 1;
nodes = (
(2070,621,l),
(2186,621,o),
(2277,712,o),
(2277,828,c),
(2070,828,l)
);
},
{
closed = 1;
nodes = (
(0,828,l),
(207,828,l),
(207,944,o),
(116,1035,o),
(0,1035,c)
);
},
{
closed = 1;
nodes = (
(414,1035,l),
(414,828,l),
(621,828,l),
(621,1035,l)
);
},
{
closed = 1;
nodes = (
(1035,1035,l),
(919,1035,o),
(828,944,o),
(828,828,c),
(1035,828,l)
);
},
{
closed = 1;
nodes = (
(1242,828,l),
(1449,828,l),
(1449,944,o),
(1358,1035,o),
(1242,1035,c)
);
},
{
closed = 1;
nodes = (
(1656,1035,l),
(1656,828,l),
(1863,828,l),
(1863,1035,l)
);
},
{
closed = 1;
nodes = (
(2277,1035,l),
(2161,1035,o),
(2070,944,o),
(2070,828,c),
(2277,828,l)
);
},
{
closed = 1;
nodes = (
(414,1035,l),
(621,1035,l),
(621,1151,o),
(530,1242,o),
(414,1242,c)
);
},
{
closed = 1;
nodes = (
(1656,1035,l),
(1863,1035,l),
(1863,1151,o),
(1772,1242,o),
(1656,1242,c)
);
},
{
closed = 1;
nodes = (
(1242,1449,l),
(1035,1449,l),
(1035,1333,o),
(1126,1242,o),
(1242,1242,c)
);
},
{
closed = 1;
nodes = (
(621,1449,l),
(737,1449,o),
(828,1540,o),
(828,1656,c),
(621,1656,l)
);
},
{
closed = 1;
nodes = (
(1035,1656,l),
(1035,1449,l),
(1242,1449,l),
(1242,1656,l)
);
},
{
closed = 1;
nodes = (
(1656,1656,l),
(1449,1656,l),
(1449,1540,o),
(1540,1449,o),
(1656,1449,c)
);
},
{
closed = 1;
nodes = (
(828,1863,l),
(712,1863,o),
(621,1772,o),
(621,1656,c),
(828,1656,l)
);
},
{
closed = 1;
nodes = (
(828,1656,l),
(944,1656,o),
(1035,1747,o),
(1035,1863,c),
(828,1863,l)
);
},
{
closed = 1;
nodes = (
(1035,1863,l),
(1035,1656,l),
(1242,1656,l),
(1242,1863,l)
);
},
{
closed = 1;
nodes = (
(1449,1863,l),
(1242,1863,l),
(1242,1747,o),
(1333,1656,o),
(1449,1656,c)
);
},
{
closed = 1;
nodes = (
(1449,1656,l),
(1656,1656,l),
(1656,1772,o),
(1565,1863,o),
(1449,1863,c)
);
},
{
closed = 1;
nodes = (
(828,2070,l),
(621,2070,l),
(621,1954,o),
(712,1863,o),
(828,1863,c)
);
},
{
closed = 1;
nodes = (
(828,1863,l),
(1035,1863,l),
(1035,1979,o),
(944,2070,o),
(828,2070,c)
);
},
{
closed = 1;
nodes = (
(1035,2070,l),
(1035,1863,l),
(1242,1863,l),
(1242,2070,l)
);
},
{
closed = 1;
nodes = (
(1449,2070,l),
(1333,2070,o),
(1242,1979,o),
(1242,1863,c),
(1449,1863,l)
);
},
{
closed = 1;
nodes = (
(1449,1863,l),
(1565,1863,o),
(1656,1954,o),
(1656,2070,c),
(1449,2070,l)
);
},
{
closed = 1;
nodes = (
(621,2070,l),
(828,2070,l),
(828,2186,o),
(737,2277,o),
(621,2277,c)
);
},
{
closed = 1;
nodes = (
(1035,2277,l),
(1035,2070,l),
(1242,2070,l),
(1242,2277,l)
);
},
{
closed = 1;
nodes = (
(1656,2277,l),
(1540,2277,o),
(1449,2186,o),
(1449,2070,c),
(1656,2070,l)
);
},
{
closed = 1;
nodes = (
(1035,2277,l),
(1242,2277,l),
(1242,2393,o),
(1151,2484,o),
(1035,2484,c)
);
}
);
width = 2484;
}
);
unicode = 8258;
}
{
glyphname = arrowleft;
layers = (
{
layerId = m01;
shapes = (
{
closed = 1;
nodes = (
(1242,0,ls),
(1358,0,o),
(1449,91,o),
(1449,207,cs),
(1449,414,ls),
(1449,530,o),
(1358,621,o),
(1242,621,c),
(1242,737,o),
(1151,828,o),
(1035,828,c),
(1035,944,o),
(944,1035,o),
(828,1035,c),
(828,828,ls),
(828,712,o),
(919,621,o),
(1035,621,c),
(1035,505,o),
(1126,414,o),
(1242,414,c),
(1242,207,l),
(1035,207,l),
(1035,323,o),
(944,414,o),
(828,414,c),
(828,530,o),
(737,621,o),
(621,621,c),
(621,828,ls),
(621,944,o),
(712,1035,o),
(828,1035,cs),
(1035,1035,ls),
(1151,1035,o),
(1242,1126,o),
(1242,1242,c),
(1242,1126,o),
(1333,1035,o),
(1449,1035,cs),
(1565,1035,o),
(1656,1126,o),
(1656,1242,c),
(1656,1126,o),
(1747,1035,o),
(1863,1035,cs),
(1979,1035,o),
(2070,1126,o),
(2070,1242,c),
(2070,1126,o),
(2161,1035,o),
(2277,1035,cs),
(2393,1035,o),
(2484,1126,o),
(2484,1242,c),
(2484,1126,o),
(2575,1035,o),
(2691,1035,cs),
(2807,1035,o),
(2898,1126,o),
(2898,1242,c),
(2898,1126,o),
(2989,1035,o),
(3105,1035,c),
(3105,1242,ls),
(3105,1358,o),
(3014,1449,o),
(2898,1449,cs),
(2782,1449,o),
(2691,1358,o),
(2691,1242,c),
(2691,1358,o),
(2600,1449,o),
(2484,1449,cs),
(2368,1449,o),
(2277,1358,o),
(2277,1242,c),
(2277,1358,o),
(2186,1449,o),
(2070,1449,cs),
(1954,1449,o),
(1863,1358,o),
(1863,1242,c),
(1863,1358,o),
(1772,1449,o),
(1656,1449,cs),
(1540,1449,o),
(1449,1358,o),
(1449,1242,c),
(1449,1358,o),
(1358,1449,o),
(1242,1449,cs),
(1126,1449,o),
(1035,1358,o),
(1035,1242,c),
(1035,1358,o),
(944,1449,o),
(828,1449,cs),
(712,1449,o),
(621,1540,o),
(621,1656,cs),
(621,1863,l),
(737,1863,o),
(828,1954,o),
(828,2070,c),
(944,2070,o),
(1035,2161,o),
(1035,2277,c),
(1242,2277,l),
(1242,2070,l),
(1126,2070,o),
(1035,1979,o),
(1035,1863,c),
(919,1863,o),
(828,1772,o),
(828,1656,cs),
(828,1449,l),
(944,1449,o),
(1035,1540,o),
(1035,1656,c),
(1151,1656,o),
(1242,1747,o),
(1242,1863,c),
(1358,1863,o),
(1449,1954,o),
(1449,2070,cs),
(1449,2277,ls),
(1449,2393,o),
(1358,2484,o),
(1242,2484,cs),
(1035,2484,ls),
(919,2484,o),
(828,2393,o),
(828,2277,c),
(712,2277,o),
(621,2186,o),
(621,2070,c),
(505,2070,o),
(414,1979,o),
(414,1863,cs),
(414,1656,ls),
(414,1540,o),
(323,1449,o),
(207,1449,cs),
(91,1449,o),
(0,1358,o),
(0,1242,cs),
(0,1126,o),
(91,1035,o),
(207,1035,cs),
(323,1035,o),
(414,944,o),
(414,828,cs),
(414,621,ls),
(414,505,o),
(505,414,o),
(621,414,c),
(621,298,o),
(712,207,o),
(828,207,c),
(828,91,o),
(919,0,o),
(1035,0,cs)
);
},
{
closed = 1;
nodes = (
(621,1151,o),
(530,1242,o),
(414,1242,c),
(530,1242,o),
(621,1333,o),
(621,1449,c),
(621,1333,o),
(712,1242,o),
(828,1242,c),
(712,1242,o),
(621,1151,o),
(621,1035,c)
);
}
);
width = 3312;
},
{
layerId = m002;
shapes = (
{
closed = 1;
nodes = (
(1242,0,ls),
(1358,0,o),
(1449,91,o),
(1449,207,cs),
(1449,414,ls),
(1449,530,o),
(1358,621,o),
(1242,621,c),
(1242,737,o),
(1151,828,o),
(1035,828,c),
(1035,944,o),
(944,1035,o),
(828,1035,c),
(1035,1035,ls),
(1151,1035,o),
(1242,1126,o),
(1242,1242,c),
(1242,1126,o),
(1333,1035,o),
(1449,1035,cs),
(1565,1035,o),
(1656,1126,o),
(1656,1242,c),
(1656,1126,o),
(1747,1035,o),
(1863,1035,cs),
(1979,1035,o),
(2070,1126,o),
(2070,1242,c),
(2070,1126,o),
(2161,1035,o),
(2277,1035,cs),
(2393,1035,o),
(2484,1126,o),
(2484,1242,c),
(2484,1126,o),
(2575,1035,o),
(2691,1035,cs),
(2807,1035,o),
(2898,1126,o),
(2898,1242,c),
(2898,1126,o),
(2989,1035,o),
(3105,1035,c),
(3105,1242,ls),
(3105,1358,o),
(3014,1449,o),
(2898,1449,cs),
(2782,1449,o),
(2691,1358,o),
(2691,1242,c),
(2691,1358,o),
(2600,1449,o),
(2484,1449,cs),
(2368,1449,o),
(2277,1358,o),
(2277,1242,c),
(2277,1358,o),
(2186,1449,o),
(2070,1449,cs),
(1954,1449,o),
(1863,1358,o),
(1863,1242,c),
(1863,1358,o),
(1772,1449,o),
(1656,1449,cs),
(1540,1449,o),
(1449,1358,o),
(1449,1242,c),
(1449,1358,o),
(1358,1449,o),
(1242,1449,cs),
(1126,1449,o),
(1035,1358,o),
(1035,1242,c),
(1035,1358,o),
(944,1449,o),
(828,1449,c),
(944,1449,o),
(1035,1540,o),
(1035,1656,c),
(1151,1656,o),
(1242,1747,o),
(1242,1863,c),
(1358,1863,o),
(1449,1954,o),
(1449,2070,cs),
(1449,2277,ls),
(1449,2393,o),
(1358,2484,o),
(1242,2484,cs),
(1035,2484,ls),
(919,2484,o),
(828,2393,o),
(828,2277,c),
(712,2277,o),
(621,2186,o),
(621,2070,c),
(505,2070,o),
(414,1979,o),
(414,1863,cs),
(414,1656,ls),
(414,1540,o),
(323,1449,o),
(207,1449,cs),
(91,1449,o),
(0,1358,o),
(0,1242,cs),
(0,1126,o),
(91,1035,o),
(207,1035,cs),
(323,1035,o),
(414,944,o),
(414,828,cs),
(414,621,ls),
(414,505,o),
(505,414,o),
(621,414,c),
(621,298,o),
(712,207,o),
(828,207,c),
(828,91,o),
(919,0,o),
(1035,0,cs)
);
},
{
closed = 1;
nodes = (
(621,1151,o),
(530,1242,o),
(414,1242,c),
(530,1242,o),
(621,1333,o),
(621,1449,c),
(621,1333,o),
(712,1242,o),
(828,1242,c),
(712,1242,o),
(621,1151,o),
(621,1035,c)
);
}
);
width = 3312;
}
);
note = arrowleft;
unicode = 8592;
}
{
glyphname = arrowright;
layers = (
{
layerId = m01;
shapes = (
{
closed = 1;
nodes = (
(1863,2485,ls),
(1747,2485,o),
(1656,2394,o),
(1656,2278,cs),
(1656,2071,ls),
(1656,1955,o),
(1747,1864,o),
(1863,1864,c),
(1863,1748,o),
(1954,1657,o),
(2070,1657,c),
(2070,1541,o),
(2161,1450,o),
(2277,1450,c),
(2277,1657,ls),
(2277,1773,o),
(2186,1864,o),
(2070,1864,c),
(2070,1980,o),
(1979,2071,o),
(1863,2071,c),
(1863,2278,l),
(2070,2278,l),
(2070,2162,o),
(2161,2071,o),
(2277,2071,c),
(2277,1955,o),
(2368,1864,o),
(2484,1864,c),
(2484,1657,ls),
(2484,1541,o),
(2393,1450,o),
(2277,1450,cs),
(2070,1450,ls),
(1954,1450,o),
(1863,1359,o),
(1863,1243,c),
(1863,1359,o),
(1772,1450,o),
(1656,1450,cs),
(1540,1450,o),
(1449,1359,o),
(1449,1243,c),
(1449,1359,o),
(1358,1450,o),
(1242,1450,cs),
(1126,1450,o),
(1035,1359,o),
(1035,1243,c),
(1035,1359,o),
(944,1450,o),
(828,1450,cs),
(712,1450,o),
(621,1359,o),
(621,1243,c),
(621,1359,o),
(530,1450,o),
(414,1450,cs),
(298,1450,o),
(207,1359,o),
(207,1243,c),
(207,1359,o),
(116,1450,o),
(0,1450,c),
(0,1243,ls),
(0,1127,o),
(91,1036,o),
(207,1036,cs),
(323,1036,o),
(414,1127,o),
(414,1243,c),
(414,1127,o),
(505,1036,o),
(621,1036,cs),
(737,1036,o),
(828,1127,o),
(828,1243,c),
(828,1127,o),
(919,1036,o),
(1035,1036,cs),
(1151,1036,o),
(1242,1127,o),
(1242,1243,c),
(1242,1127,o),
(1333,1036,o),
(1449,1036,cs),
(1565,1036,o),
(1656,1127,o),
(1656,1243,c),
(1656,1127,o),
(1747,1036,o),
(1863,1036,cs),
(1979,1036,o),
(2070,1127,o),
(2070,1243,c),
(2070,1127,o),
(2161,1036,o),
(2277,1036,cs),
(2393,1036,o),
(2484,945,o),
(2484,829,cs),
(2484,622,l),
(2368,622,o),
(2277,531,o),
(2277,415,c),
(2161,415,o),
(2070,324,o),
(2070,208,c),
(1863,208,l),
(1863,415,l),
(1979,415,o),
(2070,506,o),
(2070,622,c),
(2186,622,o),
(2277,713,o),
(2277,829,cs),
(2277,1036,l),
(2161,1036,o),
(2070,945,o),
(2070,829,c),
(1954,829,o),
(1863,738,o),
(1863,622,c),
(1747,622,o),
(1656,531,o),
(1656,415,cs),
(1656,208,ls),
(1656,92,o),
(1747,1,o),
(1863,1,cs),
(2070,1,ls),
(2186,1,o),
(2277,92,o),
(2277,208,c),
(2393,208,o),
(2484,299,o),
(2484,415,c),
(2600,415,o),
(2691,506,o),
(2691,622,cs),
(2691,829,ls),
(2691,945,o),
(2782,1036,o),
(2898,1036,cs),
(3014,1036,o),
(3105,1127,o),
(3105,1243,cs),
(3105,1359,o),
(3014,1450,o),
(2898,1450,cs),
(2782,1450,o),
(2691,1541,o),
(2691,1657,cs),
(2691,1864,ls),
(2691,1980,o),
(2600,2071,o),
(2484,2071,c),
(2484,2187,o),
(2393,2278,o),
(2277,2278,c),
(2277,2394,o),
(2186,2485,o),
(2070,2485,cs)
);
},
{
closed = 1;
nodes = (
(2484,1334,o),
(2575,1243,o),
(2691,1243,c),
(2575,1243,o),
(2484,1152,o),
(2484,1036,c),
(2484,1152,o),
(2393,1243,o),
(2277,1243,c),
(2393,1243,o),
(2484,1334,o),
(2484,1450,c)
);
}
);
width = 3312;
},
{
layerId = m002;
shapes = (
{
closed = 1;
nodes = (
(1863,2485,ls),
(1747,2485,o),
(1656,2394,o),
(1656,2278,cs),
(1656,2071,ls),
(1656,1955,o),
(1747,1864,o),
(1863,1864,c),
(1863,1748,o),
(1954,1657,o),
(2070,1657,c),
(2070,1541,o),
(2161,1450,o),
(2277,1450,c),
(2070,1450,ls),
(1954,1450,o),
(1863,1359,o),
(1863,1243,c),
(1863,1359,o),
(1772,1450,o),
(1656,1450,cs),
(1540,1450,o),
(1449,1359,o),
(1449,1243,c),
(1449,1359,o),
(1358,1450,o),
(1242,1450,cs),
(1126,1450,o),
(1035,1359,o),
(1035,1243,c),
(1035,1359,o),
(944,1450,o),
(828,1450,cs),
(712,1450,o),
(621,1359,o),
(621,1243,c),
(621,1359,o),
(530,1450,o),
(414,1450,cs),
(298,1450,o),
(207,1359,o),
(207,1243,c),
(207,1359,o),
(116,1450,o),
(0,1450,c),
(0,1243,ls),
(0,1127,o),
(91,1036,o),
(207,1036,cs),
(323,1036,o),
(414,1127,o),
(414,1243,c),
(414,1127,o),
(505,1036,o),
(621,1036,cs),
(737,1036,o),
(828,1127,o),
(828,1243,c),
(828,1127,o),
(919,1036,o),
(1035,1036,cs),
(1151,1036,o),
(1242,1127,o),
(1242,1243,c),
(1242,1127,o),
(1333,1036,o),
(1449,1036,cs),
(1565,1036,o),
(1656,1127,o),
(1656,1243,c),
(1656,1127,o),
(1747,1036,o),
(1863,1036,cs),
(1979,1036,o),
(2070,1127,o),
(2070,1243,c),
(2070,1127,o),
(2161,1036,o),
(2277,1036,c),
(2161,1036,o),
(2070,945,o),
(2070,829,c),
(1954,829,o),
(1863,738,o),
(1863,622,c),
(1747,622,o),
(1656,531,o),
(1656,415,cs),
(1656,208,ls),
(1656,92,o),
(1747,1,o),
(1863,1,cs),
(2070,1,ls),
(2186,1,o),
(2277,92,o),
(2277,208,c),
(2393,208,o),
(2484,299,o),
(2484,415,c),
(2600,415,o),
(2691,506,o),
(2691,622,cs),
(2691,829,ls),
(2691,945,o),
(2782,1036,o),
(2898,1036,cs),
(3014,1036,o),
(3105,1127,o),
(3105,1243,cs),
(3105,1359,o),
(3014,1450,o),
(2898,1450,cs),
(2782,1450,o),
(2691,1541,o),
(2691,1657,cs),
(2691,1864,ls),
(2691,1980,o),
(2600,2071,o),
(2484,2071,c),
(2484,2187,o),
(2393,2278,o),
(2277,2278,c),
(2277,2394,o),
(2186,2485,o),
(2070,2485,cs)
);
},
{
closed = 1;
nodes = (
(2484,1334,o),
(2575,1243,o),
(2691,1243,c),
(2575,1243,o),
(2484,1152,o),
(2484,1036,c),
(2484,1152,o),
(2393,1243,o),
(2277,1243,c),
(2393,1243,o),
(2484,1334,o),
(2484,1450,c)
);
}
);
width = 3312;
}
);
note = arrowright;
unicode = 8594;
}
{
glyphname = L_L;
layers = (
{
layerId = m01;
shapes = (
{
closed = 1;
nodes = (
(414,0,l),
(621,0,l),
(828,0,ls),
(944,0,o),
(1035,91,o),
(1035,207,c),
(1035,91,o),
(1126,0,o),
(1242,0,cs),
(1358,0,o),
(1449,91,o),
(1449,207,c),
(1449,91,o),
(1540,0,o),
(1656,0,cs),
(1772,0,o),
(1863,91,o),
(1863,207,c),
(1863,91,o),
(1954,0,o),
(2070,0,cs),
(2186,0,o),
(2277,91,o),
(2277,207,c),
(2277,91,o),
(2368,0,o),
(2484,0,cs),
(2600,0,o),
(2691,91,o),
(2691,207,c),
(2807,207,o),
(2898,298,o),
(2898,414,cs),
(2898,621,ls),
(2898,737,o),
(2807,828,o),
(2691,828,cs),
(2575,828,o),
(2484,737,o),
(2484,621,c),
(2484,737,o),
(2393,828,o),
(2277,828,cs),
(2161,828,o),
(2070,737,o),
(2070,621,c),
(2070,737,o),
(1979,828,o),
(1863,828,cs),
(1656,828,ls),
(1540,828,o),
(1449,737,o),
(1449,621,cs),
(1449,505,o),
(1540,414,o),
(1656,414,cs),
(1772,414,o),
(1863,505,o),
(1863,621,c),
(1863,505,o),
(1954,414,o),
(2070,414,cs),
(2186,414,o),
(2277,505,o),
(2277,621,c),
(2277,505,o),
(2368,414,o),
(2484,414,cs),
(2600,414,o),
(2691,505,o),
(2691,621,c),
(2691,414,l),
(2575,414,o),
(2484,323,o),
(2484,207,c),
(2484,323,o),
(2393,414,o),
(2277,414,cs),
(2161,414,o),
(2070,323,o),
(2070,207,c),
(2070,323,o),
(1979,414,o),
(1863,414,cs),
(1747,414,o),
(1656,323,o),
(1656,207,c),
(1656,323,o),
(1565,414,o),
(1449,414,cs),
(1333,414,o),
(1242,323,o),
(1242,207,c),
(1242,323,o),
(1151,414,o),
(1035,414,c),
(1035,621,l),
(1035,828,l),
(1035,1035,l),
(1035,1242,l),
(1035,1863,l),
(1035,2070,l),
(1151,2070,o),
(1242,2161,o),
(1242,2277,cs),
(1242,2393,o),
(1151,2484,o),
(1035,2484,cs),
(919,2484,o),
(828,2393,o),
(828,2277,cs),
(828,2070,l),
(828,1863,l),
(828,1242,l),
(828,1035,l),
(828,828,l),
(828,621,l),
(828,414,l),
(828,207,l),
(621,207,l),
(414,207,l),
(414,323,o),
(323,414,o),
(207,414,cs),
(91,414,o),
(0,323,o),
(0,207,cs),
(0,91,o),
(91,0,o),
(207,0,cs)
);
},
{
closed = 1;
nodes = (
(323,414,o),
(414,505,o),
(414,621,cs),
(414,828,l),
(414,1035,l),
(414,1242,l),
(414,1863,l),
(414,2070,l),
(414,2277,ls),
(414,2393,o),
(323,2484,o),
(207,2484,cs),
(91,2484,o),
(0,2393,o),
(0,2277,cs),
(0,2161,o),
(91,2070,o),
(207,2070,c),
(207,1863,l),
(207,1242,l),
(207,1035,l),
(207,828,l),
(91,828,o),
(0,737,o),
(0,621,cs),
(0,505,o),
(91,414,o),
(207,414,cs)
);
},
{
closed = 1;
nodes = (
(1863,1035,l),
(2070,1035,l),
(2277,1035,ls),
(2393,1035,o),
(2484,1126,o),
(2484,1242,c),
(2484,1126,o),
(2575,1035,o),
(2691,1035,cs),
(2807,1035,o),
(2898,1126,o),
(2898,1242,cs),
(2898,1449,l),
(2898,1656,ls),
(2898,1772,o),
(2807,1863,o),
(2691,1863,cs),
(2575,1863,o),
(2484,1772,o),
(2484,1656,cs),
(2484,1540,o),
(2575,1449,o),
(2691,1449,c),
(2691,1242,l),
(2691,1358,o),
(2600,1449,o),
(2484,1449,cs),
(2368,1449,o),
(2277,1358,o),
(2277,1242,c),
(2277,1449,l),
(2277,2070,l),
(2277,2277,l),
(2277,2484,l),
(2393,2484,o),
(2484,2575,o),
(2484,2691,cs),
(2484,2807,o),
(2393,2898,o),
(2277,2898,cs),
(2070,2898,l),
(1863,2898,l),
(1656,2898,ls),
(1540,2898,o),
(1449,2807,o),
(1449,2691,cs),
(1449,2575,o),
(1540,2484,o),
(1656,2484,cs),
(1772,2484,o),
(1863,2575,o),
(1863,2691,c),
(2070,2691,l),
(2070,2484,l),
(2070,2277,l),
(2070,2070,l),
(2070,1449,l),
(2070,1242,l),
(1863,1242,l),
(1863,1449,l),
(1863,2070,l),
(1863,2277,ls),
(1863,2393,o),
(1772,2484,o),
(1656,2484,cs),
(1540,2484,o),
(1449,2393,o),
(1449,2277,cs),
(1449,2161,o),
(1540,2070,o),
(1656,2070,c),
(1656,1449,l),
(1540,1449,o),
(1449,1358,o),
(1449,1242,cs),
(1449,1126,o),
(1540,1035,o),
(1656,1035,cs)
);
},
{
closed = 1;
nodes = (
(323,2484,o),
(414,2575,o),
(414,2691,c),
(621,2691,l),
(828,2691,l),
(828,2575,o),
(919,2484,o),
(1035,2484,cs),
(1151,2484,o),
(1242,2575,o),
(1242,2691,cs),
(1242,2807,o),
(1151,2898,o),
(1035,2898,cs),
(828,2898,l),
(621,2898,l),
(414,2898,l),
(207,2898,ls),
(91,2898,o),
(0,2807,o),
(0,2691,cs),
(0,2575,o),
(91,2484,o),
(207,2484,cs)
);
}
);
width = 3105;
},
{
layerId = m002;
shapes = (
{
closed = 1;
nodes = (
(414,0,l),
(621,0,l),
(828,0,ls),
(944,0,o),
(1035,91,o),
(1035,207,c),
(1035,91,o),
(1126,0,o),
(1242,0,cs),
(1358,0,o),
(1449,91,o),
(1449,207,c),
(1449,91,o),
(1540,0,o),
(1656,0,cs),
(1772,0,o),
(1863,91,o),
(1863,207,c),
(1863,91,o),
(1954,0,o),
(2070,0,cs),
(2186,0,o),
(2277,91,o),
(2277,207,c),
(2277,91,o),
(2368,0,o),
(2484,0,cs),
(2600,0,o),
(2691,91,o),
(2691,207,c),
(2807,207,o),
(2898,298,o),
(2898,414,cs),
(2898,621,ls),
(2898,737,o),
(2807,828,o),
(2691,828,cs),
(2575,828,o),
(2484,737,o),
(2484,621,c),
(2484,737,o),
(2393,828,o),
(2277,828,cs),
(2161,828,o),
(2070,737,o),
(2070,621,c),
(2070,737,o),
(1979,828,o),
(1863,828,cs),
(1656,828,ls),
(1540,828,o),
(1449,737,o),
(1449,621,cs),
(1449,505,o),
(1540,414,o),
(1656,414,cs),
(1772,414,o),
(1863,505,o),
(1863,621,c),
(1863,505,o),
(1954,414,o),
(2070,414,cs),
(2186,414,o),
(2277,505,o),
(2277,621,c),
(2277,505,o),
(2368,414,o),
(2484,414,cs),
(2600,414,o),
(2691,505,o),
(2691,621,c),
(2691,414,l),
(2575,414,o),
(2484,323,o),
(2484,207,c),
(2484,323,o),
(2393,414,o),
(2277,414,cs),
(2161,414,o),
(2070,323,o),
(2070,207,c),
(2070,323,o),
(1979,414,o),
(1863,414,cs),
(1747,414,o),
(1656,323,o),
(1656,207,c),
(1656,323,o),
(1565,414,o),
(1449,414,cs),
(1333,414,o),
(1242,323,o),
(1242,207,c),
(1242,323,o),
(1151,414,o),
(1035,414,c),
(1035,621,l),
(1035,828,l),
(1035,1035,l),
(1035,1242,l),
(1035,1863,l),
(1035,2070,l),
(1151,2070,o),
(1242,2161,o),
(1242,2277,cs),
(1242,2393,o),
(1151,2484,o),
(1035,2484,c),
(1151,2484,o),
(1242,2575,o),
(1242,2691,cs),
(1242,2807,o),
(1151,2898,o),
(1035,2898,cs),
(828,2898,l),
(621,2898,l),
(414,2898,l),
(207,2898,ls),
(91,2898,o),
(0,2807,o),
(0,2691,cs),
(0,2575,o),
(91,2484,o),
(207,2484,c),
(91,2484,o),
(0,2393,o),
(0,2277,cs),
(0,2161,o),
(91,2070,o),
(207,2070,c),
(207,1863,l),
(207,1242,l),
(207,1035,l),
(207,828,l),
(91,828,o),
(0,737,o),
(0,621,cs),
(0,505,o),
(91,414,o),
(207,414,c),
(91,414,o),
(0,323,o),
(0,207,cs),
(0,91,o),
(91,0,o),
(207,0,cs)
);
},
{
closed = 1;
nodes = (
(1863,1035,l),
(2070,1035,l),
(2277,1035,ls),
(2393,1035,o),
(2484,1126,o),
(2484,1242,c),
(2484,1126,o),
(2575,1035,o),
(2691,1035,cs),
(2807,1035,o),
(2898,1126,o),
(2898,1242,cs),
(2898,1449,l),
(2898,1656,ls),
(2898,1772,o),
(2807,1863,o),
(2691,1863,cs),
(2575,1863,o),
(2484,1772,o),
(2484,1656,cs),
(2484,1540,o),
(2575,1449,o),
(2691,1449,c),
(2691,1242,l),
(2691,1358,o),
(2600,1449,o),
(2484,1449,cs),
(2368,1449,o),
(2277,1358,o),
(2277,1242,c),
(2277,1449,l),
(2277,2070,l),
(2277,2277,l),
(2277,2484,l),
(2393,2484,o),
(2484,2575,o),
(2484,2691,cs),
(2484,2807,o),
(2393,2898,o),
(2277,2898,cs),
(2070,2898,l),
(1863,2898,l),
(1656,2898,ls),
(1540,2898,o),
(1449,2807,o),
(1449,2691,cs),
(1449,2576,o),
(1538,2486,o),
(1653,2484,c),
(1538,2482,o),
(1449,2392,o),
(1449,2277,cs),
(1449,2162,o),
(1538,2072,o),
(1653,2070,c),
(1653,2070,l),
(1653,1449,l),
(1653,1449,l),
(1538,1447,o),
(1449,1357,o),
(1449,1242,cs),
(1449,1126,o),
(1540,1035,o),
(1656,1035,cs)
);
}
);
width = 3105;
}
);
metricLeft = L;
}
{
glyphname = V.ss01;
layers = (
{
layerId = m01;
shapes = (
{
closed = 1;
nodes = (
(1242,207,l),
(1035,207,l),
(1035,91,o),
(1126,0,o),
(1242,0,c)
);
},
{
closed = 1;
nodes = (
(1242,0,l),
(1358,0,o),
(1449,91,o),
(1449,207,c),
(1242,207,l)
);
},
{
closed = 1;
nodes = (
(1656,207,l),
(1449,207,l),
(1449,91,o),
(1540,0,o),
(1656,0,c)
);
},
{
closed = 1;
nodes = (
(1656,0,l),
(1772,0,o),
(1863,91,o),
(1863,207,c),
(1656,207,l)
);
},
{
closed = 1;
nodes = (
(621,414,l),
(414,414,l),
(414,298,o),
(505,207,o),
(621,207,c)
);
},
{
closed = 1;
nodes = (
(621,414,l),
(621,207,l),
(828,207,l),
(828,414,l)
);
},
{
closed = 1;
nodes = (
(828,414,l),
(828,207,l),
(1035,207,l),
(1035,414,l)
);
},
{
closed = 1;
nodes = (
(1035,207,l),
(1242,207,l),
(1242,323,o),
(1151,414,o),
(1035,414,c)
);
},
{
closed = 1;
nodes = (
(1449,414,l),
(1333,414,o),
(1242,323,o),
(1242,207,c),
(1449,207,l)
);
},
{
closed = 1;
nodes = (
(1449,207,l),
(1656,207,l),
(1656,323,o),
(1565,414,o),
(1449,414,c)
);
},
{
closed = 1;
nodes = (
(1863,414,l),
(1747,414,o),
(1656,323,o),
(1656,207,c),
(1863,207,l)
);
},
{
closed = 1;
nodes = (
(1863,414,l),
(1863,207,l),
(2070,207,l),
(2070,414,l)
);
},
{
closed = 1;
nodes = (
(2070,414,l),
(2070,207,l),
(2277,207,l),
(2277,414,l)
);
},
{
closed = 1;
nodes = (
(2277,207,l),
(2393,207,o),
(2484,298,o),
(2484,414,c),
(2277,414,l)
);
},
{
closed = 1;
nodes = (
(207,621,l),
(0,621,l),
(0,505,o),
(91,414,o),
(207,414,c)
);
},
{
closed = 1;
nodes = (
(207,414,l),
(323,414,o),
(414,505,o),
(414,621,c),
(207,621,l)
);
},
{
closed = 1;
nodes = (
(621,621,l),
(505,621,o),
(414,530,o),
(414,414,c),
(621,414,l)
);
},
{
closed = 1;
nodes = (
(621,414,l),
(828,414,l),
(828,530,o),
(737,621,o),
(621,621,c)
);
},
{
closed = 1;
nodes = (
(828,621,l),
(828,414,l),
(1035,414,l),
(1035,621,l)
);
},
{
closed = 1;
nodes = (
(1863,621,l),
(1863,414,l),
(2070,414,l),
(2070,621,l)
);
},
{
closed = 1;
nodes = (
(2277,621,l),
(2161,621,o),
(2070,530,o),
(2070,414,c),
(2277,414,l)
);
},
{
closed = 1;
nodes = (
(2277,414,l),
(2484,414,l),
(2484,530,o),
(2393,621,o),
(2277,621,c)
);
},
{
closed = 1;
nodes = (
(2691,621,l),
(2484,621,l),
(2484,505,o),
(2575,414,o),
(2691,414,c)
);
},
{
closed = 1;
nodes = (
(2691,414,l),
(2807,414,o),
(2898,505,o),
(2898,621,c),
(2691,621,l)
);
},
{
closed = 1;
nodes = (
(207,828,l),
(91,828,o),
(0,737,o),
(0,621,c),
(207,621,l)
);
},
{
closed = 1;
nodes = (
(207,828,l),
(207,621,l),
(414,621,l),
(414,828,l)
);
},
{
closed = 1;
nodes = (
(828,828,l),
(828,621,l),
(1035,621,l),
(1035,828,l)
);
},
{
closed = 1;
nodes = (
(1863,828,l),
(1863,621,l),
(2070,621,l),
(2070,828,l)
);
},
{
closed = 1;
nodes = (
(2484,828,l),
(2484,621,l),
(2691,621,l),
(2691,828,l)
);
},
{
closed = 1;
nodes = (
(2691,621,l),
(2898,621,l),
(2898,737,o),
(2807,828,o),
(2691,828,c)
);
},
{
closed = 1;
nodes = (
(207,1035,l),
(207,828,l),
(414,828,l),
(414,1035,l)
);
},
{
closed = 1;
nodes = (
(828,1035,l),
(828,828,l),
(1035,828,l),
(1035,1035,l)
);
},
{
closed = 1;
nodes = (
(1863,1035,l),
(1863,828,l),
(2070,828,l),
(2070,1035,l)
);
},
{
closed = 1;
nodes = (
(2484,1035,l),
(2484,828,l),
(2691,828,l),
(2691,1035,l)
);
},
{
closed = 1;
nodes = (
(414,1863,l),
(414,2070,l),
(414,2277,ls),
(414,2393,o),
(323,2484,o),
(207,2484,cs),
(91,2484,o),
(0,2393,o),
(0,2277,cs),
(0,2161,o),
(91,2070,o),
(207,2070,c),
(207,1863,l),
(207,1656,l),
(207,1035,l),
(414,1035,l),
(414,1656,l)
);
},
{
closed = 1;
nodes = (
(1035,1863,l),
(1035,2070,l),
(1035,2277,l),
(1035,2484,l),
(1035,2691,l),
(1035,2898,l),
(828,2898,l),
(621,2898,l),
(414,2898,ls),
(298,2898,o),
(207,2807,o),
(207,2691,cs),
(207,2575,o),
(298,2484,o),
(414,2484,cs),
(530,2484,o),
(621,2575,o),
(621,2691,c),
(828,2691,l),
(828,2484,l),
(828,2277,l),
(828,2070,l),
(828,1863,l),
(828,1656,l),
(828,1035,l),
(1035,1035,l),
(1035,1656,l)
);
},
{
closed = 1;
nodes = (
(2070,1863,l),
(2070,2070,l),
(2070,2277,l),
(2070,2484,l),
(2070,2691,l),
(2277,2691,l),
(2277,2575,o),
(2368,2484,o),
(2484,2484,cs),
(2600,2484,o),
(2691,2575,o),
(2691,2691,cs),
(2691,2807,o),
(2600,2898,o),
(2484,2898,cs),
(2277,2898,l),
(2070,2898,l),
(1863,2898,l),
(1863,2691,l),
(1863,2484,l),
(1863,2277,l),
(1863,2070,l),
(1863,1863,l),
(1863,1656,l),
(1863,1035,l),
(2070,1035,l),
(2070,1656,l)
);
},
{
closed = 1;
nodes = (
(2691,1863,l),
(2691,2070,l),
(2807,2070,o),
(2898,2161,o),
(2898,2277,cs),
(2898,2393,o),
(2807,2484,o),
(2691,2484,cs),
(2575,2484,o),
(2484,2393,o),
(2484,2277,cs),
(2484,2070,l),
(2484,1863,l),
(2484,1656,l),
(2484,1035,l),
(2691,1035,l),
(2691,1656,l)
);
}
);
width = 3105;
},
{
anchors = (
{
name = bottom;
pos = (1553,0);
},
{
name = top;
pos = (1553,2277);
}
);
layerId = m002;
shapes = (
{
closed = 1;
nodes = (
(1358,0,o),
(1449,91,o),
(1449,207,c),
(1449,91,o),
(1540,0,o),
(1656,0,cs),
(1772,0,o),
(1863,91,o),
(1863,207,c),
(2070,207,l),
(2277,207,ls),
(2393,207,o),
(2484,298,o),
(2484,414,c),
(2691,414,ls),
(2807,414,o),
(2898,505,o),
(2898,621,cs),
(2898,737,o),
(2807,828,o),
(2691,828,c),
(2691,1035,l),
(2691,1656,l),
(2691,1863,l),
(2691,2070,l),
(2807,2070,o),
(2898,2161,o),
(2898,2277,cs),
(2898,2393,o),
(2807,2484,o),
(2691,2484,c),
(2691,2691,l),
(2691,2692,ls),
(2690,2808,o),
(2600,2898,o),
(2484,2898,cs),
(2277,2898,l),
(2070,2898,l),
(1863,2898,l),
(1863,2691,l),
(1863,2484,l),
(1863,2277,l),
(1863,2070,l),
(1863,1863,l),
(1863,1656,l),
(1863,1035,l),
(1863,828,l),
(1863,621,l),
(1863,414,l),
(1747,414,o),
(1656,323,o),
(1656,207,c),
(1656,323,o),
(1565,414,o),
(1449,414,cs),
(1333,414,o),
(1242,323,o),
(1242,207,c),
(1242,323,o),
(1151,414,o),
(1035,414,c),
(1035,621,l),
(1035,828,l),
(1035,1035,l),
(1035,1656,l),
(1035,1863,l),
(1035,2070,l),
(1035,2277,l),
(1035,2484,l),
(1035,2691,l),
(1035,2898,l),
(828,2898,l),
(621,2898,l),
(414,2898,ls),
(298,2898,o),
(208,2808,o),
(207,2692,cs),
(207,2691,l),
(207,2484,l),
(91,2484,o),
(0,2393,o),
(0,2277,cs),
(0,2161,o),
(91,2070,o),
(207,2070,c),
(207,1863,l),
(207,1656,l),
(207,1035,l),
(207,828,l),
(91,828,o),
(0,737,o),
(0,621,cs),
(0,505,o),
(91,414,o),
(207,414,cs),
(414,414,l),
(414,298,o),
(505,207,o),
(621,207,cs),
(828,207,l),
(1035,207,l),
(1035,91,o),
(1126,0,o),
(1242,0,cs)
);
}
);
width = 3105;
}
);
note = V.ss01;
}
{
glyphname = X.ss01;
layers = (
{
layerId = m01;
shapes = (
{
closed = 1;
nodes = (
(414,0,ls),
(530,0,o),
(621,91,o),
(621,207,cs),
(621,414,l),
(737,414,o),
(828,505,o),
(828,621,cs),
(828,828,l),
(944,828,o),
(1035,919,o),
(1035,1035,cs),
(1035,1242,l),
(1035,1126,o),
(1126,1035,o),
(1242,1035,cs),
(1358,1035,o),
(1449,1126,o),
(1449,1242,c),
(1656,1242,l),
(1863,1242,l),
(1863,1035,l),
(1863,828,l),
(1863,621,l),
(1863,207,ls),
(1863,91,o),
(1954,0,o),
(2070,0,cs),
(2277,0,ls),
(2393,0,o),
(2484,91,o),
(2484,207,cs),
(2484,621,l),
(2484,828,ls),
(2484,944,o),
(2393,1035,o),
(2277,1035,cs),
(2070,1035,l),
(2070,1242,ls),
(2070,1358,o),
(1979,1449,o),
(1863,1449,cs),
(1656,1449,l),
(1656,1656,l),
(1772,1656,o),
(1863,1747,o),
(1863,1863,cs),
(1863,2070,l),
(1863,2484,l),
(1863,2368,o),
(1954,2277,o),
(2070,2277,cs),
(2277,2277,ls),
(2393,2277,o),
(2484,2368,o),
(2484,2484,cs),
(2484,2691,ls),
(2484,2807,o),
(2393,2898,o),
(2277,2898,cs),
(2070,2898,ls),
(1954,2898,o),
(1863,2807,o),
(1863,2691,c),
(1747,2691,o),
(1656,2600,o),
(1656,2484,cs),
(1656,2070,l),
(1540,2070,o),
(1449,1979,o),
(1449,1863,cs),
(1449,1656,l),
(1449,1772,o),
(1358,1863,o),
(1242,1863,cs),
(1126,1863,o),
(1035,1772,o),
(1035,1656,c),
(828,1656,l),
(621,1656,l),
(621,1863,l),
(621,2070,l),
(621,2484,l),
(621,2691,ls),
(621,2807,o),
(530,2898,o),
(414,2898,cs),
(207,2898,ls),
(91,2898,o),
(0,2807,o),
(0,2691,cs),
(0,2484,l),
(0,2070,ls),
(0,1954,o),
(91,1863,o),
(207,1863,cs),
(414,1863,l),
(414,1656,ls),
(414,1540,o),
(505,1449,o),
(621,1449,cs),
(828,1449,l),
(828,1242,l),
(712,1242,o),
(621,1151,o),
(621,1035,cs),
(621,828,l),
(621,621,l),
(621,737,o),
(530,828,o),
(414,828,cs),
(207,828,ls),
(91,828,o),
(0,737,o),
(0,621,cs),
(0,207,ls),
(0,91,o),
(91,0,o),
(207,0,cs)
);
},
{
closed = 1;
nodes = (
(207,207,l),
(207,621,l),
(414,621,l),
(414,207,l)
);
},
{
closed = 1;
nodes = (
(2070,207,l),
(2070,621,l),
(2070,828,l),
(2277,828,l),
(2277,621,l),
(2277,207,l)
);
},
{
closed = 1;
nodes = (
(1242,1358,o),
(1151,1449,o),
(1035,1449,c),
(1151,1449,o),
(1242,1540,o),
(1242,1656,c),
(1242,1540,o),
(1333,1449,o),
(1449,1449,c),
(1333,1449,o),
(1242,1358,o),
(1242,1242,c)
);
},
{
closed = 1;
nodes = (
(207,2070,l),
(207,2484,l),
(207,2691,l),
(414,2691,l),
(414,2484,l),
(414,2070,l)
);
},
{
closed = 1;
nodes = (
(2070,2484,l),
(2070,2691,l),
(2277,2691,l),
(2277,2484,l)
);
}
);
width = 2691;
},
{
anchors = (
{
name = bottom;
pos = (1346,0);
},
{
name = top;
pos = (1346,2277);
}
);
layerId = m002;
shapes = (
{
closed = 1;
nodes = (
(414,0,ls),
(530,0,o),
(621,91,o),
(621,207,cs),
(621,414,l),
(737,414,o),
(828,505,o),
(828,621,cs),
(828,828,l),
(944,828,o),
(1035,919,o),
(1035,1035,cs),
(1035,1242,l),
(1035,1126,o),
(1126,1035,o),
(1242,1035,cs),
(1358,1035,o),
(1449,1126,o),
(1449,1242,c),
(1656,1242,l),
(1863,1242,l),
(1863,1035,l),
(1863,828,l),
(1863,621,l),
(1863,207,ls),
(1863,91,o),
(1954,0,o),
(2070,0,cs),
(2277,0,ls),
(2393,0,o),
(2484,91,o),
(2484,207,cs),
(2484,621,l),
(2484,828,ls),
(2484,944,o),
(2393,1035,o),
(2277,1035,cs),
(2070,1035,l),
(2070,1242,ls),
(2070,1358,o),
(1979,1449,o),
(1863,1449,cs),
(1656,1449,l),
(1656,1656,l),
(1772,1656,o),
(1863,1747,o),
(1863,1863,cs),
(1863,2070,l),
(1863,2484,l),
(1863,2368,o),
(1954,2277,o),
(2070,2277,cs),
(2277,2277,ls),
(2393,2277,o),
(2484,2368,o),
(2484,2484,cs),
(2484,2691,ls),
(2484,2807,o),
(2393,2898,o),
(2277,2898,cs),
(2070,2898,ls),
(1954,2898,o),
(1863,2807,o),
(1863,2691,c),
(1747,2691,o),
(1656,2600,o),
(1656,2484,cs),
(1656,2070,l),
(1540,2070,o),
(1449,1979,o),
(1449,1863,cs),
(1449,1656,l),
(1449,1772,o),
(1358,1863,o),
(1242,1863,cs),
(1126,1863,o),
(1035,1772,o),
(1035,1656,c),
(828,1656,l),
(621,1656,l),
(621,1863,l),
(621,2070,l),
(621,2484,l),
(621,2691,ls),
(621,2807,o),
(530,2898,o),
(414,2898,cs),
(207,2898,ls),
(91,2898,o),
(0,2807,o),
(0,2691,cs),
(0,2484,l),
(0,2070,ls),
(0,1954,o),
(91,1863,o),
(207,1863,cs),
(414,1863,l),
(414,1656,ls),
(414,1540,o),
(505,1449,o),
(621,1449,cs),
(828,1449,l),
(828,1242,l),
(712,1242,o),
(621,1151,o),
(621,1035,cs),
(621,828,l),
(621,621,l),
(621,737,o),
(530,828,o),
(414,828,cs),
(207,828,ls),
(91,828,o),
(0,737,o),
(0,621,cs),
(0,207,ls),
(0,91,o),
(91,0,o),
(207,0,cs)
);
},
{
closed = 1;
nodes = (
(1242,1358,o),
(1151,1449,o),
(1035,1449,c),
(1151,1449,o),
(1242,1540,o),
(1242,1656,c),
(1242,1540,o),
(1333,1449,o),
(1449,1449,c),
(1333,1449,o),
(1242,1358,o),
(1242,1242,c)
);
}
);
width = 2691;
}
);
note = X.ss02;
}
